<svg height="512" viewBox="0 0 512 512" width="512" xmlns="http://www.w3.org/2000/svg"><g id="filled_outline" data-name="filled outline"><path d="m472 256 14.331-27.961-20.559-23.753 7.208-30.577-25.677-18.102-.356-31.413-29.264-11.428-7.837-30.422-31.142-4.132-14.865-27.677-31.226 3.444-21.083-23.289-29.478 10.864-26.052-17.554-26.052 17.554-29.479-10.864-21.084 23.289-31.225-3.443-14.865 27.677-31.143 4.132-7.836 30.423-29.264 11.428-.356 31.413-25.676 18.101 7.208 30.577-20.56 23.752 14.332 27.961-14.331 27.961 20.559 23.753-7.208 30.577 25.677 18.102.356 31.413 29.264 11.428 7.837 30.422 31.142 4.132 14.865 27.677 31.226-3.444 21.083 23.289 29.478-10.864 26.052 17.554 26.052-17.554 29.479 10.864 21.084-23.289 31.225 3.443 14.865-27.677 31.143-4.132 7.836-30.423 29.264-11.428.356-31.413 25.676-18.101-7.208-30.577 20.56-23.752z" fill="#009245"/><circle cx="256" cy="256" fill="#b0e1b7" r="184"/><circle cx="256" cy="256" fill="#ffe9b3" r="120"/><path d="m158.464 325.912a120.014 120.014 0 0 0 205.059-123.233 292.343 292.343 0 0 1 -205.059 123.233z" fill="#efd59a"/><path d="m224 328a15.947 15.947 0 0 1 -11.313-4.687l-32-32a16 16 0 1 1 22.627-22.626l20.686 20.685 76.687-76.685a16 16 0 0 1 22.627 22.626l-88 88a15.947 15.947 0 0 1 -11.314 4.687z" fill="#39b54a"/><path d="m477.589 167.171-22.333-15.745-.31-27.322a8 8 0 0 0 -5.089-7.362l-25.449-9.937-6.815-26.457a8 8 0 0 0 -6.7-5.935l-27.079-3.593-12.927-24.07a8.016 8.016 0 0 0 -7.925-4.167l-27.162 3-18.34-20.263a7.994 7.994 0 0 0 -8.7-2.136l-25.636 9.449-22.653-15.268a8 8 0 0 0 -8.942 0l-22.656 15.268-25.638-9.45a8 8 0 0 0 -8.7 2.137l-18.335 20.259-27.161-2.995a7.992 7.992 0 0 0 -7.925 4.167l-12.927 24.07-27.087 3.593a8 8 0 0 0 -6.7 5.936l-6.814 26.457-25.449 9.937a8 8 0 0 0 -5.089 7.361l-.31 27.322-22.328 15.745a8 8 0 0 0 -3.177 8.374l6.27 26.6-17.883 20.654a8 8 0 0 0 -1.07 8.884l12.461 24.316-12.461 24.312a8 8 0 0 0 1.07 8.884l17.88 20.662-6.27 26.6a8 8 0 0 0 3.178 8.373l22.333 15.745.31 27.322a8 8 0 0 0 5.089 7.362l25.452 9.94 6.815 26.457a8 8 0 0 0 6.7 5.935l27.083 3.593 12.927 24.07a8.016 8.016 0 0 0 7.925 4.167l27.162-2.995 18.34 20.258a8 8 0 0 0 8.7 2.136l25.636-9.449 22.656 15.268a8 8 0 0 0 8.942 0l22.656-15.268 25.638 9.45a8.008 8.008 0 0 0 8.7-2.137l18.34-20.259 27.161 3a8 8 0 0 0 7.925-4.167l12.927-24.07 27.084-3.593a8 8 0 0 0 6.7-5.936l6.814-26.457 25.449-9.937a8 8 0 0 0 5.089-7.361l.31-27.322 22.333-15.745a8 8 0 0 0 3.177-8.374l-6.27-26.6 17.869-20.664a8 8 0 0 0 1.07-8.884l-12.461-24.316 12.461-24.312a8 8 0 0 0 -1.07-8.884l-17.88-20.662 6.27-26.6a8 8 0 0 0 -3.181-8.371zm-.839 62.022-11.869 23.159a7.991 7.991 0 0 0 0 7.3l11.869 23.159-17.026 19.671a8 8 0 0 0 -1.738 7.071l5.968 25.316-21.26 14.989a8 8 0 0 0 -3.389 6.447l-.3 26.014-24.237 9.464a8 8 0 0 0 -4.836 5.457l-6.491 25.2-25.793 3.421a8 8 0 0 0 -6 4.146l-12.3 22.913-25.856-2.852a8.009 8.009 0 0 0 -6.807 2.583l-17.457 19.285-24.41-9a8.011 8.011 0 0 0 -7.237.873l-21.581 14.545-21.581-14.543a8 8 0 0 0 -7.237-.872l-24.408 9-17.457-19.284a8.012 8.012 0 0 0 -6.807-2.583l-25.857 2.852-12.309-22.924a8 8 0 0 0 -6-4.146l-25.792-3.421-6.492-25.2a8 8 0 0 0 -4.836-5.456l-24.237-9.464-.287-26.013a8 8 0 0 0 -3.389-6.448l-21.26-14.988 5.967-25.317a7.994 7.994 0 0 0 -1.738-7.07l-17.03-19.67 11.869-23.159a7.991 7.991 0 0 0 0-7.3l-11.869-23.155 17.026-19.671a8 8 0 0 0 1.738-7.071l-5.968-25.316 21.26-14.989a8 8 0 0 0 3.389-6.447l.3-26.014 24.237-9.464a8 8 0 0 0 4.836-5.457l6.491-25.2 25.793-3.421a8 8 0 0 0 6-4.146l12.3-22.917 25.856 2.852a8.02 8.02 0 0 0 6.807-2.583l17.457-19.285 24.41 9a8.011 8.011 0 0 0 7.237-.873l21.581-14.545 21.581 14.543a8 8 0 0 0 7.237.872l24.408-9 17.457 19.284a8.016 8.016 0 0 0 6.807 2.583l25.857-2.852 12.309 22.924a8 8 0 0 0 6 4.146l25.792 3.421 6.492 25.2a8 8 0 0 0 4.836 5.456l24.237 9.464.287 26.013a8 8 0 0 0 3.389 6.448l21.26 14.988-5.967 25.317a7.994 7.994 0 0 0 1.738 7.07z"/><path d="m400 256v.336h16v-.336a162.509 162.509 0 0 0 -.862-16.71l-15.914 1.652a146.786 146.786 0 0 1 .776 15.058z"/><path d="m124.34 314.416-14.621 6.5a160.486 160.486 0 0 0 7.6 14.927l13.86-7.994a144.357 144.357 0 0 1 -6.839-13.433z"/><path d="m148.779 374.761a161.176 161.176 0 0 0 12.99 10.559l9.431-12.92a145.236 145.236 0 0 1 -11.694-9.508z"/><path d="m363.034 159.666a145.482 145.482 0 0 1 9.493 11.714l12.938-9.414a161.908 161.908 0 0 0 -10.54-13z"/><path d="m206.315 408.134a160.045 160.045 0 0 0 16.176 4.35l3.336-15.648a143.491 143.491 0 0 1 -14.547-3.913z"/><path d="m396.885 226.06 15.654-3.311a159.737 159.737 0 0 0 -4.324-16.185l-15.215 4.936a143.423 143.423 0 0 1 3.885 14.56z"/><path d="m387.6 197.438 14.613-6.514a159.893 159.893 0 0 0 -7.613-14.924l-13.85 8.012a144.047 144.047 0 0 1 6.85 13.426z"/><path d="m239.026 415.109a162.471 162.471 0 0 0 16.709.89l.026-16a146.142 146.142 0 0 1 -15.055-.8z"/><path d="m139.38 340.492-12.949 9.4a160.8 160.8 0 0 0 10.527 13.018l11.9-10.695a145.314 145.314 0 0 1 -9.478-11.723z"/><path d="m363.09 137.121a161.154 161.154 0 0 0 -13-10.547l-9.416 12.936a144.918 144.918 0 0 1 11.7 9.494z"/><path d="m336.059 117.441a160.432 160.432 0 0 0 -14.908-7.616l-6.523 14.61a144.437 144.437 0 0 1 13.415 6.854z"/><path d="m211.578 118.979-4.93-15.22a159.361 159.361 0 0 0 -15.644 6l6.506 14.617a143.736 143.736 0 0 1 14.068-5.397z"/><path d="m241.021 112.769-1.642-15.916a160.692 160.692 0 0 0 -16.542 2.588l3.3 15.657a143.628 143.628 0 0 1 14.884-2.329z"/><path d="m272.8 96.871a162.463 162.463 0 0 0 -16.711-.871l-.008 16a146.433 146.433 0 0 1 15.055.785z"/><path d="m305.517 103.812a160.3 160.3 0 0 0 -16.178-4.333l-3.322 15.651a144 144 0 0 1 14.552 3.9z"/><path d="m372.35 340.863 12.92 9.44a161 161 0 0 0 9.156-14.014l-13.832-8.041a144.874 144.874 0 0 1 -8.244 12.615z"/><path d="m327.778 380.864 7.989 13.864a160.856 160.856 0 0 0 14.051-9.108l-9.39-12.953a144.789 144.789 0 0 1 -12.65 8.197z"/><path d="m175.787 394.47a160.228 160.228 0 0 0 14.9 7.634l6.539-14.6a143.939 143.939 0 0 1 -13.407-6.869z"/><path d="m352.154 363.2 10.688 11.9a161.4 161.4 0 0 0 11.858-11.813l-11.867-10.732a145.267 145.267 0 0 1 -10.679 10.645z"/><path d="m387.468 314.848 14.6 6.545a159.379 159.379 0 0 0 6.038-15.623l-15.206-4.97a143.733 143.733 0 0 1 -5.432 14.048z"/><path d="m300.271 393.069 4.912 15.227a159.193 159.193 0 0 0 15.652-5.979l-6.49-14.625a143.129 143.129 0 0 1 -14.074 5.377z"/><path d="m115.148 225.9-15.648-3.323a160.359 160.359 0 0 0 -2.616 16.538l15.912 1.67a144.113 144.113 0 0 1 2.352-14.885z"/><path d="m112 256v-.168h-16v.168a162.16 162.16 0 0 0 .845 16.535l15.916-1.637a146.2 146.2 0 0 1 -.761-14.898z"/><path d="m270.82 399.247 1.625 15.918a160.779 160.779 0 0 0 16.543-2.57l-3.279-15.66a144.624 144.624 0 0 1 -14.889 2.312z"/><path d="m124.467 197.3-14.608-6.529a159.819 159.819 0 0 0 -6.019 15.63l15.213 4.955a143.709 143.709 0 0 1 5.414-14.056z"/><path d="m115.083 285.784-15.658 3.293a159.813 159.813 0 0 0 4.306 16.191l15.225-4.922a143.21 143.21 0 0 1 -3.873-14.562z"/><path d="m396.818 286.252 15.647 3.346a160.286 160.286 0 0 0 2.635-16.536l-15.911-1.687a144.248 144.248 0 0 1 -2.371 14.877z"/><path d="m159.727 148.912-10.7-11.894a161.786 161.786 0 0 0 -11.845 11.828l11.879 10.718a145.863 145.863 0 0 1 10.666-10.652z"/><path d="m139.557 171.266-12.93-9.426a161.147 161.147 0 0 0 -9.142 14.023l13.842 8.026a144.622 144.622 0 0 1 8.23-12.623z"/><path d="m184.084 131.215-8-13.856a161.2 161.2 0 0 0 -14.044 9.124l9.406 12.944a144.381 144.381 0 0 1 12.638-8.212z"/><path d="m384 256a128 128 0 1 0 -128 128 128.146 128.146 0 0 0 128-128zm-128 112a112 112 0 1 1 112-112 112.127 112.127 0 0 1 -112 112z"/><path d="m328.971 207.029a24.031 24.031 0 0 0 -33.942 0l-71.029 71.03-15.029-15.03a24 24 0 0 0 -33.942 33.942l32 32a24 24 0 0 0 33.942 0l88-88a24 24 0 0 0 0-33.942zm-11.315 22.627-88 88a8 8 0 0 1 -11.312 0l-32-32a8 8 0 0 1 11.314-11.312l20.687 20.685a8 8 0 0 0 11.313 0l76.687-76.685a8 8 0 1 1 11.312 11.312z"/><path d="m256 64c-105.869 0-192 86.131-192 192s86.131 192 192 192 192-86.131 192-192-86.131-192-192-192zm0 368c-97.047 0-176-78.953-176-176s78.953-176 176-176 176 78.953 176 176-78.953 176-176 176z"/></g></svg>