<svg height="512" viewBox="0 0 512 512" width="512" xmlns="http://www.w3.org/2000/svg"><g><g><path d="m432 368h-384l-32-128h480z" fill="#ff5023"/><path d="m64 160h112v80h-112z" fill="#e0e0e2"/><path d="m88 128h48v32h-48z" fill="#ff5023"/><path d="m112 184h64v32h-64z" fill="#2488ff"/><path d="m224 160h112v80h-112z" fill="#57565c"/><path d="m336 160h112v80h-112z" fill="#57565c"/><path d="m288 80h112v80h-112z" fill="#acabb1"/><path d="m16 368h480v96h-480z" fill="#83d8f4"/></g><g><path d="m280 176a8 8 0 0 0 -8 8v32a8 8 0 0 0 16 0v-32a8 8 0 0 0 -8-8z"/><path d="m256 176a8 8 0 0 0 -8 8v32a8 8 0 0 0 16 0v-32a8 8 0 0 0 -8-8z"/><path d="m304 176a8 8 0 0 0 -8 8v32a8 8 0 0 0 16 0v-32a8 8 0 0 0 -8-8z"/><path d="m392 176a8 8 0 0 0 -8 8v32a8 8 0 0 0 16 0v-32a8 8 0 0 0 -8-8z"/><path d="m368 176a8 8 0 0 0 -8 8v32a8 8 0 0 0 16 0v-32a8 8 0 0 0 -8-8z"/><path d="m416 224a8 8 0 0 0 8-8v-32a8 8 0 0 0 -16 0v32a8 8 0 0 0 8 8z"/><path d="m344 144a8 8 0 0 0 8-8v-32a8 8 0 0 0 -16 0v32a8 8 0 0 0 8 8z"/><path d="m320 96a8 8 0 0 0 -8 8v32a8 8 0 0 0 16 0v-32a8 8 0 0 0 -8-8z"/><path d="m368 144a8 8 0 0 0 8-8v-32a8 8 0 0 0 -16 0v32a8 8 0 0 0 8 8z"/><path d="m496 360h-51.06l58.22-116.42a8.008 8.008 0 0 0 -7.16-11.58h-40v-72a8 8 0 0 0 -8-8h-40v-72a8 8 0 0 0 -8-8h-112a8 8 0 0 0 -8 8v72h-56a8 8 0 0 0 -8 8v72h-32v-72a8 8 0 0 0 -8-8h-32v-24a8 8 0 0 0 -8-8h-24v-40a8 8 0 0 0 -16 0v11.06l-4.42-2.22a8.005 8.005 0 0 0 -7.16 14.32l11.58 5.78v11.06h-8a8 8 0 0 0 -8 8v24h-16a8 8 0 0 0 -8 8v72h-40a8 8 0 0 0 -7.76 9.94l29.51 118.06h-21.75a8 8 0 0 0 0 16h480a8 8 0 0 0 0-16zm-56-192v64h-96v-64zm-144-80h96v64h-96zm-64 80h96v64h-96zm-136-32h32v16h-32zm-24 32h96v8h-56a8 8 0 0 0 -8 8v32a8 8 0 0 0 8 8h56v8h-96zm96 24v16h-48v-16zm259.06 168h-372.81l-28-112h456.81z"/><path d="m120 264h-64a8 8 0 0 0 0 16h64a8 8 0 0 0 0-16z"/><path d="m152 264h-8a8 8 0 0 0 0 16h8a8 8 0 0 0 0-16z"/><path d="m496 400c-11.119 0-16.166-3.027-22.555-6.86-7.14-4.285-15.234-9.14-30.784-9.14s-23.644 4.855-30.785 9.14c-6.389 3.833-11.436 6.86-22.554 6.86s-16.162-3.027-22.55-6.86c-7.14-4.285-15.233-9.14-30.782-9.14s-23.641 4.855-30.782 9.14c-6.388 3.833-11.433 6.86-22.551 6.86s-16.161-3.027-22.549-6.859c-7.14-4.286-15.233-9.141-30.782-9.141s-23.641 4.855-30.781 9.141c-6.388 3.832-11.433 6.859-22.545 6.859s-16.162-3.027-22.55-6.859c-7.14-4.286-15.233-9.141-30.783-9.141s-23.641 4.855-30.781 9.14c-6.392 3.833-11.437 6.86-22.553 6.86s-16.164-3.027-22.551-6.86c-7.14-4.285-15.233-9.14-30.782-9.14a8 8 0 0 0 0 16c11.117 0 16.162 3.027 22.55 6.859 7.14 4.286 15.233 9.141 30.783 9.141s23.641-4.855 30.781-9.141c6.386-3.832 11.433-6.859 22.549-6.859s16.163 3.027 22.551 6.86c7.14 4.285 15.233 9.14 30.782 9.14s23.642-4.855 30.781-9.141c6.388-3.832 11.433-6.859 22.549-6.859s16.162 3.027 22.55 6.86c7.141 4.285 15.233 9.14 30.781 9.14s23.643-4.855 30.783-9.141c6.388-3.832 11.433-6.859 22.55-6.859s16.162 3.027 22.55 6.86c7.141 4.285 15.233 9.14 30.782 9.14s23.644-4.855 30.784-9.14c6.389-3.833 11.436-6.86 22.555-6.86s16.165 3.027 22.553 6.86c7.141 4.285 15.235 9.14 30.786 9.14a8 8 0 0 0 0-16z"/><path d="m496 432c-11.119 0-16.166-3.027-22.555-6.86-7.14-4.285-15.234-9.14-30.784-9.14s-23.644 4.855-30.785 9.14c-6.389 3.833-11.436 6.86-22.554 6.86s-16.162-3.027-22.55-6.86c-7.14-4.285-15.233-9.14-30.782-9.14s-23.641 4.855-30.782 9.14c-6.388 3.833-11.433 6.86-22.551 6.86s-16.161-3.027-22.549-6.859c-7.14-4.286-15.233-9.141-30.782-9.141s-23.641 4.855-30.781 9.141c-6.388 3.832-11.433 6.859-22.545 6.859s-16.162-3.027-22.55-6.859c-7.14-4.286-15.233-9.141-30.783-9.141s-23.641 4.855-30.781 9.14c-6.392 3.833-11.437 6.86-22.553 6.86s-16.164-3.027-22.551-6.86c-7.14-4.285-15.233-9.14-30.782-9.14a8 8 0 0 0 0 16c11.117 0 16.162 3.027 22.55 6.859 7.14 4.286 15.233 9.141 30.783 9.141s23.641-4.855 30.781-9.141c6.386-3.832 11.433-6.859 22.549-6.859s16.163 3.027 22.551 6.86c7.14 4.285 15.233 9.14 30.782 9.14s23.642-4.855 30.781-9.141c6.388-3.832 11.433-6.859 22.549-6.859s16.162 3.027 22.55 6.86c7.141 4.285 15.233 9.14 30.781 9.14s23.643-4.855 30.783-9.141c6.388-3.832 11.433-6.859 22.55-6.859s16.162 3.027 22.55 6.86c7.141 4.285 15.233 9.14 30.782 9.14s23.644-4.855 30.784-9.14c6.389-3.833 11.436-6.86 22.555-6.86s16.165 3.027 22.553 6.86c7.141 4.285 15.235 9.14 30.786 9.14a8 8 0 0 0 0-16z"/></g></g></svg>