<svg id="filled_outline" height="512" viewBox="0 0 512 512" width="512" xmlns="http://www.w3.org/2000/svg" data-name="filled outline"><path d="m184 328h112v32h-112z" fill="#ffb401"/><path d="m296 328h144v32h-144z" fill="#ffb401"/><circle cx="296" cy="352" fill="#d1e4ff" r="24"/><circle cx="344" cy="352" fill="#d1e4ff" r="24"/><path d="m184 352h-136l-16-24h152z" fill="#ffb401"/><g fill="#d1e4ff"><circle cx="88" cy="352" r="24"/><circle cx="136" cy="352" r="24"/><circle cx="184" cy="352" r="24"/></g><path d="m400 240h88v120h-88z" fill="#ffc431"/><path d="m24 136h376v160h-376z" fill="#ef5e3b"/><path d="m24 296h376v32h-376z" fill="#ffc431"/><circle cx="440" cy="352" fill="#d1e4ff" r="24"/><path d="m487.999 304h-24l-31.999-16v-16h56z" fill="#ffe28f"/><path d="m400 208h40l24 32h-64z" fill="#ffb401"/><path d="m48 168h320v96h-320z" fill="#e04f2b"/><path d="m384 296h16v32h-16z" fill="#ffb401"/><path d="m488 232h-20l-21.6001-28.7998a7.99927 7.99927 0 0 0 -6.3999-3.2002h-32v-64a7.99977 7.99977 0 0 0 -8-8h-376a7.99977 7.99977 0 0 0 -8 8v192a7.99977 7.99977 0 0 0 8 8h3.71875l13.625 20.4375a7.99943 7.99943 0 0 0 6.65625 3.5625h9.01257a31.97872 31.97872 0 0 0 54.98743 13.13232 31.93444 31.93444 0 0 0 48 0 31.95391 31.95391 0 0 0 51.695-5.13232h56.61a31.95391 31.95391 0 0 0 51.695 5.13232 31.95391 31.95391 0 0 0 51.695-5.13232h40.61a31.96917 31.96917 0 0 0 55.39 0h20.305a7.99977 7.99977 0 0 0 8-8v-120a7.99977 7.99977 0 0 0 -8-8zm-52-16 12.00012 16h-40.00012v-16zm-404 104v-16h360v16zm0-176h360v144h-360zm14.94794 192h13.35706a31.79684 31.79684 0 0 0 -3.29242 8h-4.73133zm41.05206 32a16 16 0 1 1 16-16 16.01833 16.01833 0 0 1 -16 16zm48 0a16 16 0 1 1 16-16 16.01833 16.01833 0 0 1 -16 16zm48 0a16 16 0 1 1 16-16 16.01833 16.01833 0 0 1 -16 16zm27.695-32h20.305v16h-16a31.79288 31.79288 0 0 0 -4.305-16zm36.305 16v-16h16v16zm48 16a16 16 0 1 1 16-16 16.01833 16.01833 0 0 1 -16 16zm48 0a16 16 0 1 1 16-16 16.01833 16.01833 0 0 1 -16 16zm32-16a31.79288 31.79288 0 0 0 -4.305-16h40.61a31.79288 31.79288 0 0 0 -4.305 16zm64 16a16 16 0 1 1 16-16 16.01833 16.01833 0 0 1 -16 16zm32-16a32.036 32.036 0 0 0 -32-32h-32v-72h72v16h-48a7.99977 7.99977 0 0 0 -8 8v16a7.99924 7.99924 0 0 0 4.42236 7.15527l31.999 16a7.99582 7.99582 0 0 0 3.57764.84473h16.001v40zm8-72v16h-14.1123l-25.8877-12.94434v-3.05566z"/><path d="m368 160h-320v16h24v80h-24v16h320a7.99977 7.99977 0 0 0 8-8v-96a7.99977 7.99977 0 0 0 -8-8zm-216 16h16v80h-16zm-16 80h-16v-80h16zm48-80h16v80h-16zm32 0h16v80h-16zm32 0h16v80h-16zm32 0h16v80h-16zm32 0h16v80h-16zm-224 0h16v80h-16zm272 80h-16v-80h16z"/><circle cx="88" cy="352" r="8"/><circle cx="136" cy="352" r="8"/><circle cx="184" cy="352" r="8"/><circle cx="296" cy="352" r="8"/><circle cx="344" cy="352" r="8"/><circle cx="440" cy="352" r="8"/></svg>