<?xml version="1.0" encoding="iso-8859-1"?>
<!-- Generator: Adobe Illustrator 19.0.0, SVG Export Plug-In . SVG Version: 6.00 Build 0)  -->
<svg version="1.1" id="Capa_1" xmlns="http://www.w3.org/2000/svg" xmlns:xlink="http://www.w3.org/1999/xlink" x="0px" y="0px"
	 viewBox="0 0 480 340" style="enable-background:new 0 0 480 480;" xml:space="preserve">
<path style="fill:#8D9AA5;" d="M0,372h480v16H0V372z"/>
<path style="fill:#D1E3EE;" d="M448,164h-96v128H8v48h344v-40h40c26.51,0,48,21.49,48,48h32V237.232L448,164z"/>
<path style="fill:#9FC8DD;" d="M448,164l-1.6,22.784C442.645,239.295,403.798,282.593,352,292
	c-15.205,20.274-38.641,32.734-63.952,34L8,340h344v-40h40c26.51,0,48,21.49,48,48h32V237.232L448,164z"/>
<path style="fill:#2BB3CE;" d="M8,100h288v192H8V100z"/>
<g>
	<circle style="fill:#5A6570;" cx="392" cy="356" r="24"/>
	<circle style="fill:#5A6570;" cx="80" cy="356" r="24"/>
	<circle style="fill:#5A6570;" cx="160" cy="356" r="24"/>
</g>
<path style="fill:#9FC8DD;" d="M376,260h16v16h-16V260z"/>
<path style="fill:#1D5C88;" d="M384,196h40l16,48l-56-8V196z"/>
<path style="fill:#9FC8DD;" d="M352,116h32c26.51,0,48,21.49,48,48l0,0h-80l0,0V116L352,116z"/>
<g>
	<g>
		<path id="SVGCleanerId_0" style="fill:#1D5C88;" d="M32,140h16v128H32V140z"/>
	</g>
	<g>
		<path id="SVGCleanerId_1" style="fill:#1D5C88;" d="M256,140h16v128h-16V140z"/>
	</g>
	<path style="fill:#1D5C88;" d="M64,140h16v128H64V140z"/>
	<path style="fill:#1D5C88;" d="M224,140h16v128h-16V140z"/>
	<path style="fill:#1D5C88;" d="M96,156h16v112H96V156z"/>
	<path style="fill:#1D5C88;" d="M192,156h16v112h-16V156z"/>
	<path style="fill:#1D5C88;" d="M128,188h16v80h-16V188z"/>
	<path style="fill:#1D5C88;" d="M160,188h16v80h-16V188z"/>
</g>
<path style="fill:#D3B585;" d="M32,100l92.184,92.184c15.364,15.359,40.268,15.359,55.632,0L272,100L32,100z"/>
<path d="M455.6,161.504c-1.078-3.284-4.144-5.504-7.6-5.504h-8.64c-3.973-27.527-27.547-47.967-55.36-48h-32c-4.418,0-8,3.582-8,8
	v168h-40V100c0-4.418-3.582-8-8-8H8c-4.418,0-8,3.582-8,8v240c0,4.418,3.582,8,8,8h49.472c-3.078,8.263-1.219,17.556,4.8,24H0v16
	h480v-16h-70.24c8.915-9.809,8.191-24.987-1.617-33.903c-9.809-8.915-24.987-8.191-33.903,1.617c-8.32,9.154-8.32,23.132,0,32.285
	H177.76c6.019-6.444,7.878-15.737,4.8-24H344c4.418,0,8-3.582,8-8v-32h40c22.08,0.026,39.974,17.92,40,40c0,4.418,3.582,8,8,8h32
	c4.418,0,8-3.582,8-8V237.232c0-0.848-0.135-1.69-0.4-2.496L455.6,161.504z M392,348c4.418,0,8,3.582,8,8s-3.582,8-8,8s-8-3.582-8-8
	S387.582,348,392,348z M360,124h24c19.002,0.021,35.375,13.387,39.2,32H360V124z M252.688,108l-78.528,78.528
	c-12.249,12.214-32.071,12.214-44.32,0L51.312,108H252.688z M16,108h12.688L64,143.312V268h16V159.312l16,16V268h16v-76.688
	l6.528,6.528c2.842,2.77,6.025,5.168,9.472,7.136V268h16v-57.08c5.285,1.013,10.715,1.013,16,0V268h16v-63.024
	c3.447-1.968,6.63-4.366,9.472-7.136l6.528-6.528V268h16v-92.688l16-16V268h16V143.312L275.312,108H288v176H16L16,108z M88,356
	c0,4.418-3.582,8-8,8s-8-3.582-8-8s3.582-8,8-8S88,351.582,88,356z M97.76,372c6.019-6.444,7.878-15.737,4.8-24h34.944
	c-3.078,8.263-1.219,17.556,4.8,24H97.76z M168,356c0,4.418-3.582,8-8,8s-8-3.582-8-8s3.582-8,8-8S168,351.582,168,356z M336,332H16
	v-32h320V332z M464,340h-16.568c-4.013-27.535-27.606-47.965-55.432-48h-32V172h82.2l21.8,66.504V340z"/>
<path d="M376,260h16v16h-16V260z"/>
<path d="M424,188h-40c-4.418,0-8,3.582-8,8v40c-0.001,3.98,2.924,7.355,6.864,7.92l56,8c0.376,0.054,0.756,0.081,1.136,0.08
	c4.418,0.001,8.001-3.58,8.002-7.998c0-0.86-0.138-1.714-0.41-2.53l-16-48C430.503,190.204,427.445,187.999,424,188L424,188z
	 M392,229.064V204h26.232l10.088,30.248L392,229.064z"/>
<path id="SVGCleanerId_0_1_" d="M32,140h16v128H32V140z"/>
<path id="SVGCleanerId_1_1_" d="M256,140h16v128h-16V140z"/>
<g>
</g>
<g>
</g>
<g>
</g>
<g>
</g>
<g>
</g>
<g>
</g>
<g>
</g>
<g>
</g>
<g>
</g>
<g>
</g>
<g>
</g>
<g>
</g>
<g>
</g>
<g>
</g>
<g>
</g>
</svg>
