<svg height="480pt" viewBox="0 -16 480.00001 480" width="480pt" xmlns="http://www.w3.org/2000/svg"><path d="m344.527344 192.152344-.527344-.152344v74.160156h88v-10.160156c-20.660156-30.984375-51.664062-53.617188-87.472656-63.847656zm0 0" fill="#2bb3ce"/><path d="m8 144h304v176h-304zm0 0" fill="#f7ce49"/><path d="m8 144h24v176h-24zm0 0" fill="#fff"/><path d="m40 192h16v96h-16zm0 0" fill="#dd9e25"/><path d="m264 192h16v96h-16zm0 0" fill="#dd9e25"/><path d="m104 192h16v96h-16zm0 0" fill="#dd9e25"/><path d="m200 192h16v96h-16zm0 0" fill="#dd9e25"/><path d="m8 360h352v32h-352zm0 0" fill="#a9bfd1"/><path d="m472 416h-128v-160h104l24 80zm0 0" fill="#1d5c88"/><path d="m408 320h59.199219l-9.597657-32h-49.601562zm0 0" fill="#fff"/><path d="m368 280h16v16h-16zm0 0" fill="#e3472c"/><path d="m368 304h16v16h-16zm0 0" fill="#ec7422"/><path d="m344 360h80l16 16v40h-96zm0 0" fill="#7d8f9f"/><path d="m32 144 128 128 128-128zm0 0" fill="#a75b25"/><path d="m189.65625 197.65625-11.3125-11.3125 13.65625-13.65625v-49.375l-25.945312-25.953125 10.96875-11.632813 28.632812 28.617188c1.5 1.5 2.34375 3.535156 2.34375 5.65625v56c0 2.121094-.84375 4.15625-2.34375 5.65625zm0 0" fill="#7d8f9f"/><path d="m112 144h-16v-24c0-2.121094.84375-4.15625 2.34375-5.65625l29.128906-29.542969 10.398438 12.613281-25.871094 25.898438zm0 0" fill="#7d8f9f"/><path d="m144 0h16v48h-16zm0 0" fill="#7d8f9f"/><g fill="#5a6570"><path d="m64 416c0 13.253906-10.746094 24-24 24s-24-10.746094-24-24 10.746094-24 24-24 24 10.746094 24 24zm0 0"/><path d="m120 416c0 13.253906-10.746094 24-24 24s-24-10.746094-24-24 10.746094-24 24-24 24 10.746094 24 24zm0 0"/><path d="m264 416c0 13.253906-10.746094 24-24 24s-24-10.746094-24-24 10.746094-24 24-24 24 10.746094 24 24zm0 0"/><path d="m320 416c0 13.253906-10.746094 24-24 24s-24-10.746094-24-24 10.746094-24 24-24 24 10.746094 24 24zm0 0"/><path d="m416 416c0 13.253906-10.746094 24-24 24s-24-10.746094-24-24 10.746094-24 24-24 24 10.746094 24 24zm0 0"/></g><path d="m184 72c0 17.671875-14.328125 32-32 32s-32-14.328125-32-32 14.328125-32 32-32 32 14.328125 32 32zm0 0" fill="#a9bfd1"/><path d="m144 64h16v16h-16zm0 0" fill="#5a6570"/><path d="m455.664062 253.703125c-1.015624-3.382813-4.128906-5.703125-7.664062-5.703125h-11.953125c-21.808594-30.878906-53.53125-53.359375-89.894531-63.703125-2.410156-.675781-4.996094-.179687-6.988282 1.332031-1.992187 1.511719-3.164062 3.871094-3.164062 6.371094v160h-328c-4.417969 0-8 3.582031-8 8v32c0 4.417969 3.582031 8 8 8h4.449219c-2.878907 4.84375-4.417969 10.367188-4.449219 16-.066406 14.652344 9.855469 27.460938 24.058594 31.058594 14.199218 3.597656 29.027344-2.941406 35.941406-15.859375 8.617188 15.339843 28.035156 20.792969 43.375 12.175781 15.339844-8.613281 20.792969-28.035156 12.175781-43.375h88.898438c-2.878907 4.84375-4.417969 10.367188-4.449219 16-.066406 14.652344 9.855469 27.460938 24.058594 31.058594 14.199218 3.597656 29.027344-2.941406 35.941406-15.859375 8.617188 15.339843 28.035156 20.792969 43.375 12.175781 15.339844-8.613281 20.792969-28.035156 12.175781-43.375h12.449219v16c0 4.417969 3.582031 8 8 8h17.136719c3.589843 14.113281 16.300781 23.992188 30.863281 23.992188s27.273438-9.878907 30.863281-23.992188h49.136719c4.417969 0 8-3.582031 8-8v-80c0-.777344-.113281-1.550781-.335938-2.296875zm.800782 58.296875h-40.464844v-16h35.648438zm-40.503906-64h-63.960938v-45.039062c24.941406 9.054687 47.015625 24.601562 63.945312 45.039062zm-375.960938 184c-8.835938 0-16-7.164062-16-16s7.164062-16 16-16 16 7.164062 16 16-7.164062 16-16 16zm27.550781-32h.898438c-.160157.273438-.296875.550781-.449219.800781-.152344-.25-.289062-.527343-.449219-.800781zm44.449219 16c0 8.835938-7.164062 16-16 16s-16-7.164062-16-16 7.164062-16 16-16 16 7.164062 16 16zm128 16c-8.835938 0-16-7.164062-16-16s7.164062-16 16-16 16 7.164062 16 16-7.164062 16-16 16zm27.550781-32h.898438c-.160157.273438-.296875.550781-.449219.800781-.152344-.25-.289062-.527343-.449219-.800781zm44.449219 16c0 8.835938-7.164062 16-16 16s-16-7.164062-16-16 7.164062-16 16-16 16 7.164062 16 16zm-296-32v-16h320v16zm376 48c-8.835938 0-16-7.164062-16-16s7.164062-16 16-16 16 7.164062 16 16-7.164062 16-16 16zm0-48c-14.546875.054688-27.226562 9.914062-30.863281 24h-9.136719v-40h68.6875l11.3125 11.3125v28.6875h-9.136719c-3.636719-14.085938-16.316406-23.945312-30.863281-24zm72 24h-16v-32c0-2.121094-.84375-4.15625-2.34375-5.65625l-16-16c-1.5-1.5-3.535156-2.34375-5.65625-2.34375h-72v-88h90.046875l4.800781 16h-38.847656c-4.417969 0-8 3.582031-8 8v32c0 4.417969 3.582031 8 8 8h53.246094l2.753906 9.167969zm0 0"/><path d="m368 280h16v16h-16zm0 0"/><path d="m368 304h16v16h-16zm0 0"/><path d="m312 136h-104v-16c0-2.121094-.84375-4.15625-2.34375-5.65625l-20.320312-20.320312c7.351562-11.070313 8.714843-25.074219 3.632812-37.355469s-15.941406-21.230469-28.96875-23.867188v-32.800781h-16v32.800781c-13.023438 2.636719-23.882812 11.585938-28.964844 23.863281-5.082031 12.277344-3.722656 26.28125 3.628906 37.351563l-20.320312 20.320313c-1.503906 1.503906-2.34375 3.539062-2.34375 5.664062v16h-88c-4.417969 0-8 3.582031-8 8v176c0 4.417969 3.582031 8 8 8h304c4.417969 0 8-3.582031 8-8v-176c0-4.417969-3.582031-8-8-8zm-43.3125 16-108.6875 108.6875-108.6875-108.6875h140.6875v20.6875l-13.65625 13.65625 11.3125 11.3125 16-16c1.5-1.5 2.34375-3.535156 2.34375-5.65625v-24zm-116.6875-104c13.253906 0 24 10.746094 24 24s-10.746094 24-24 24-24-10.746094-24-24 10.746094-24 24-24zm-40 75.3125 17.976562-17.976562c13.339844 8.886718 30.707032 8.886718 44.046876 0l17.976562 17.976562v12.6875h-80zm192 188.6875h-288v-160h12.6875l75.3125 75.3125v60.6875h16v-44.6875l34.34375 34.34375c3.125 3.121094 8.1875 3.121094 11.3125 0l34.34375-34.34375v44.6875h16v-60.6875l75.3125-75.3125h12.6875zm0 0"/><path d="m40 192h16v96h-16zm0 0"/><path d="m264 192h16v96h-16zm0 0"/><path d="m144 64h16v16h-16zm0 0"/></svg>