<?xml version="1.0" encoding="iso-8859-1"?>
<!-- Generator: Adobe Illustrator 19.0.0, SVG Export Plug-In . SVG Version: 6.00 Build 0)  -->
<svg version="1.1" id="Capa_1" xmlns="http://www.w3.org/2000/svg" xmlns:xlink="http://www.w3.org/1999/xlink" x="0px" y="0px"
	 viewBox="0 0 512 512" style="enable-background:new 0 0 512 512;" xml:space="preserve">
<g>
	<polyline style="fill:#EB7665;" points="240,472 128,472 128,444.568 232,408 	"/>
	<polyline style="fill:#EB7665;" points="272,472 384,472 384,444.568 280,408 	"/>
</g>
<g>
	<path style="fill:#F2F2F2;" d="M200,72l38.656,417.472c0.76,8.232,7.664,14.528,15.928,14.528h2.824
		c8.264,0,15.168-6.296,15.928-14.528L312,72c0-39.768-25.072-64-56-64S200,32.232,200,72z"/>
	<polyline style="fill:#F2F2F2;" points="208,200 8,336 8,376 216,304 	"/>
</g>
<g>
	<polygon style="fill:#EB7665;" points="8,336 8,376 40,364.92 40,314.24 	"/>
	<path style="fill:#EB7665;" d="M56,304v-38.944c0-5.624,2.952-10.832,7.768-13.72l20.112-12.072
		c5.336-3.2,12.112,0.64,12.112,6.856V280"/>
	<path style="fill:#EB7665;" d="M128,256v-38.944c0-5.624,2.952-10.832,7.768-13.72l20.112-12.072
		c5.336-3.2,12.112,0.64,12.112,6.856V232"/>
</g>
<polyline style="fill:#F2F2F2;" points="304,200 504,336 504,376 296,304 "/>
<g>
	<polygon style="fill:#EB7665;" points="504,336 504,376 472,364.92 472,314.24 	"/>
	<path style="fill:#EB7665;" d="M456,304v-38.944c0-5.624-2.952-10.832-7.768-13.72l-20.112-12.072
		c-5.336-3.2-12.112,0.64-12.112,6.856V280"/>
	<path style="fill:#EB7665;" d="M384,256v-38.944c0-5.624-2.952-10.832-7.768-13.72l-20.112-12.072
		c-5.336-3.2-12.112,0.64-12.112,6.856V232"/>
</g>
<path d="M282.344,85.656L256,59.312l-26.344,26.344l-11.312-11.312l32-32c3.128-3.128,8.184-3.128,11.312,0l32,32L282.344,85.656z"
	/>
<path d="M511.496,378.632c0.088-0.248,0.208-0.48,0.272-0.736C511.92,377.28,512,376.648,512,376v-40
	c0-2.648-1.312-5.128-3.504-6.616L464,299.12v-34.064c0-8.384-4.464-16.272-11.656-20.576l-20.112-12.072
	c-5.016-3.008-11.032-3.088-16.12-0.2c-5.08,2.872-8.112,8.08-8.112,13.92v14.912l-16-10.88v-33.104
	c0-8.384-4.464-16.272-11.656-20.576l-20.112-12.072c-5.008-3-11.032-3.088-16.12-0.2c-5.08,2.872-8.112,8.08-8.112,13.92v13.952
	l-27.248-18.528L320,72c0-41.72-26.912-72-64-72s-64,30.28-64,72c0,0.248,0.008,0.496,0.032,0.736l11.192,120.832L176,212.08
	v-13.952c0-5.84-3.032-11.048-8.12-13.92c-5.088-2.88-11.112-2.8-16.12,0.2l-20.112,12.072C124.464,200.792,120,208.672,120,217.056
	v33.104l-16,10.88v-14.912c0-5.84-3.032-11.048-8.12-13.92c-5.088-2.88-11.112-2.808-16.12,0.2L59.656,244.48
	C52.464,248.792,48,256.672,48,265.056v34.064L3.504,329.376C1.312,330.872,0,333.352,0,336v40c0,0.648,0.08,1.28,0.232,1.896
	c0.048,0.208,0.152,0.392,0.224,0.6c0.128,0.392,0.248,0.792,0.432,1.16c0.152,0.296,0.368,0.56,0.56,0.832
	c0.168,0.24,0.296,0.504,0.488,0.728c0.248,0.288,0.56,0.528,0.848,0.776c0.184,0.16,0.344,0.352,0.544,0.496
	c0,0,0.008,0,0.008,0.008c0.008,0.008,0.016,0.016,0.024,0.024c0.512,0.368,1.08,0.592,1.648,0.824c0.192,0.08,0.36,0.216,0.56,0.28
	C6.352,383.872,7.176,384,8,384c0.848,0,1.704-0.136,2.528-0.408l203.992-68l8.08,87.232l-97.248,34.2
	c-3.208,1.128-5.352,4.152-5.352,7.544V472c0,4.416,3.584,8,8,8h101.744l0.944,10.216C231.84,502.632,242.112,512,254.584,512h2.832
	c12.472,0,22.744-9.368,23.896-21.784L282.256,480H384c4.416,0,8-3.584,8-8v-27.432c0-3.392-2.144-6.424-5.344-7.544l-97.256-34.2
	l8.072-87.232l204.008,68c0.816,0.272,1.672,0.408,2.52,0.408c0.824,0,1.648-0.128,2.432-0.384c0.2-0.064,0.368-0.2,0.56-0.28
	c0.568-0.232,1.144-0.464,1.648-0.824c0.008-0.008,0.016-0.016,0.024-0.024c0,0,0.008,0,0.008-0.008
	c0.192-0.144,0.344-0.328,0.52-0.48c0.296-0.256,0.616-0.504,0.872-0.8c0.176-0.208,0.296-0.448,0.448-0.664
	c0.208-0.296,0.432-0.576,0.6-0.896C511.28,379.328,511.376,378.976,511.496,378.632z M496,364.768l-16-5.536V329.36l16,10.88
	V364.768z M424,246.128l20.12,12.072c2.392,1.44,3.88,4.064,3.88,6.856v23.184l-24-16.32V246.128z M352,198.128l20.12,12.072
	c2.392,1.44,3.88,4.064,3.88,6.856v22.224l-24-16.32V198.128z M136,217.056c0-2.792,1.488-5.424,3.888-6.856L160,198.128v24.832
	l-24,16.32V217.056z M64,265.056c0-2.792,1.488-5.424,3.888-6.856L88,246.128v25.792l-24,16.32V265.056z M32,329.352v29.872
	l-16,5.536v-24.528L32,329.352z M160,316.904V304h-16v18.232l-32,10.664V320H96v18.232l-48,16v-35.76L175.168,232H176v-0.56
	l28.912-19.656l8.096,87.456L160,316.904z M216,464v-8h-16v8h-16v-8h-16v8h-32v-13.76l88.12-30.984L228.264,464H216z M257.416,496
	h-2.832c-4.16,0-7.584-3.12-7.968-7.264L223.592,240H232v-16h-9.896l-1.48-16H232v-16h-12.856l-1.48-16H232v-16h-15.816l-1.48-16
	H232v-16h-18.784L208,71.64C208.144,38.856,227.84,16,256,16c28.264,0,48,23.024,48.032,55.264L298.784,128H280v16h17.296l-1.48,16
	H280v16h14.336l-1.48,16H280v16h11.376l-1.48,16H280v16h8.408l-23.032,248.736C265,492.88,261.568,496,257.416,496z M376,450.24V464
	h-32v-8h-16v8h-16v-8h-16v8h-12.264l4.144-44.752L376,450.24z M307.072,211.768L336,231.44V232h0.832L464,318.472v35.76l-48-16V320
	h-16v12.904l-32-10.664V304h-16v12.904l-53.024-17.672L307.072,211.768z"/>
<g>
</g>
<g>
</g>
<g>
</g>
<g>
</g>
<g>
</g>
<g>
</g>
<g>
</g>
<g>
</g>
<g>
</g>
<g>
</g>
<g>
</g>
<g>
</g>
<g>
</g>
<g>
</g>
<g>
</g>
</svg>
