<?xml version="1.0"?>
<svg xmlns="http://www.w3.org/2000/svg" id="Layer_1" data-name="Layer 1" viewBox="0 0 128 128" width="512" height="512"><title>SOUTH KOREA</title><rect x="12" y="27.751" width="104" height="72.497" style="fill:#f0f0f0"/><circle cx="64" cy="64" r="20.167" style="fill:#d60a2e"/><path d="M23.619,50a1.75,1.75,0,0,1-1.45-2.729L32.24,32.348a1.75,1.75,0,1,1,2.9,1.958L25.071,49.225A1.749,1.749,0,0,1,23.619,50Z"/><path d="M28.247,53.12a1.751,1.751,0,0,1-1.45-2.729l10.071-14.92a1.75,1.75,0,0,1,2.9,1.958L29.7,52.349A1.749,1.749,0,0,1,28.247,53.12Z"/><path d="M32.874,56.243a1.749,1.749,0,0,1-1.449-2.729L41.5,38.6a1.75,1.75,0,1,1,2.9,1.958L34.326,55.472A1.748,1.748,0,0,1,32.874,56.243Z"/><path d="M97.619,39.977a1.748,1.748,0,0,1-1.452-.771l-3.308-4.9a1.75,1.75,0,1,1,2.9-1.958l3.308,4.9a1.75,1.75,0,0,1-1.449,2.729Z"/><path d="M104.381,50a1.749,1.749,0,0,1-1.452-.771L99.38,43.967a1.75,1.75,0,0,1,2.9-1.958l3.549,5.258A1.75,1.75,0,0,1,104.381,50Z"/><path d="M31.557,83.281a1.748,1.748,0,0,1-1.452-.771l-3.308-4.9a1.75,1.75,0,0,1,2.9-1.958l3.307,4.9a1.75,1.75,0,0,1-1.449,2.729Z"/><path d="M38.32,93.3a1.748,1.748,0,0,1-1.452-.771l-3.55-5.258a1.75,1.75,0,1,1,2.9-1.958l3.549,5.258A1.751,1.751,0,0,1,38.32,93.3Z"/><path d="M101.07,86.405a1.751,1.751,0,0,1-1.449-2.729l3.308-4.9a1.75,1.75,0,1,1,2.9,1.958l-3.309,4.9A1.748,1.748,0,0,1,101.07,86.405Z"/><path d="M94.308,96.423a1.75,1.75,0,0,1-1.449-2.729l3.549-5.257a1.75,1.75,0,1,1,2.9,1.958L95.76,95.652A1.748,1.748,0,0,1,94.308,96.423Z"/><path d="M96.443,83.281a1.75,1.75,0,0,1-1.449-2.729l3.307-4.9a1.75,1.75,0,0,1,2.9,1.958L97.9,82.51A1.748,1.748,0,0,1,96.443,83.281Z"/><path d="M89.68,93.3a1.751,1.751,0,0,1-1.449-2.729l3.549-5.258a1.75,1.75,0,1,1,2.9,1.958l-3.55,5.258A1.748,1.748,0,0,1,89.68,93.3Z"/><path d="M91.815,80.157a1.75,1.75,0,0,1-1.449-2.729l3.308-4.9a1.75,1.75,0,0,1,2.9,1.958l-3.308,4.9A1.748,1.748,0,0,1,91.815,80.157Z"/><path d="M85.053,90.176A1.749,1.749,0,0,1,83.6,87.447l3.548-5.258a1.75,1.75,0,1,1,2.9,1.958l-3.549,5.258A1.748,1.748,0,0,1,85.053,90.176Z"/><path d="M88.363,46.225a1.749,1.749,0,0,1-1.452-.771l-3.307-4.9a1.75,1.75,0,1,1,2.9-1.958l3.308,4.9a1.751,1.751,0,0,1-1.45,2.729Z"/><path d="M95.126,56.243a1.748,1.748,0,0,1-1.452-.771l-3.549-5.258a1.75,1.75,0,0,1,2.9-1.958l3.549,5.258a1.749,1.749,0,0,1-1.449,2.729Z"/><path d="M99.753,53.12a1.749,1.749,0,0,1-1.452-.771l-10.07-14.92a1.75,1.75,0,0,1,2.9-1.958L101.2,50.391a1.751,1.751,0,0,1-1.45,2.729Z"/><path d="M33.692,96.423a1.748,1.748,0,0,1-1.452-.771L22.169,80.733a1.75,1.75,0,1,1,2.9-1.958l10.07,14.919a1.75,1.75,0,0,1-1.449,2.729Z"/><path d="M42.947,90.176a1.748,1.748,0,0,1-1.452-.771L31.425,74.486a1.75,1.75,0,1,1,2.9-1.958L44.4,87.447a1.749,1.749,0,0,1-1.449,2.729Z"/><path d="M64,84.167A20.167,20.167,0,0,0,84.167,64l-.033,0A10.067,10.067,0,0,0,64,64h-.033a10.067,10.067,0,0,1-20.134,0A20.167,20.167,0,0,0,64,84.167Z" style="fill:#0b55b1"/><path d="M23.619,50a1.751,1.751,0,0,1-1.45-2.729L32.24,32.347a1.75,1.75,0,0,1,2.9,1.958l-10.07,14.92A1.749,1.749,0,0,1,23.619,50Z"/><path d="M28.247,53.119A1.75,1.75,0,0,1,26.8,50.39L36.868,35.471a1.75,1.75,0,1,1,2.9,1.958L29.7,52.348A1.749,1.749,0,0,1,28.247,53.119Z"/><path d="M32.874,56.243a1.75,1.75,0,0,1-1.449-2.729L41.5,38.594a1.75,1.75,0,0,1,2.9,1.958l-10.07,14.92A1.748,1.748,0,0,1,32.874,56.243Z"/><path d="M97.619,39.977a1.748,1.748,0,0,1-1.452-.771l-3.308-4.9a1.75,1.75,0,0,1,2.9-1.958l3.308,4.9a1.751,1.751,0,0,1-1.449,2.729Z"/><path d="M104.381,50a1.749,1.749,0,0,1-1.452-.771L99.38,43.967a1.75,1.75,0,1,1,2.9-1.958l3.549,5.258A1.751,1.751,0,0,1,104.381,50Z"/><path d="M31.557,83.28a1.748,1.748,0,0,1-1.452-.771l-3.308-4.9a1.75,1.75,0,1,1,2.9-1.958l3.307,4.9a1.749,1.749,0,0,1-1.449,2.729Z"/><path d="M38.32,93.3a1.748,1.748,0,0,1-1.452-.771l-3.55-5.257a1.75,1.75,0,1,1,2.9-1.958l3.549,5.257A1.75,1.75,0,0,1,38.32,93.3Z"/><path d="M101.07,86.4a1.75,1.75,0,0,1-1.449-2.729l3.308-4.9a1.75,1.75,0,1,1,2.9,1.958l-3.309,4.9A1.748,1.748,0,0,1,101.07,86.4Z"/><path d="M94.308,96.423a1.75,1.75,0,0,1-1.449-2.729l3.549-5.258a1.75,1.75,0,1,1,2.9,1.958L95.76,95.652A1.748,1.748,0,0,1,94.308,96.423Z"/><path d="M96.443,83.28a1.749,1.749,0,0,1-1.449-2.729l3.307-4.9a1.75,1.75,0,1,1,2.9,1.958l-3.308,4.9A1.748,1.748,0,0,1,96.443,83.28Z"/><path d="M89.68,93.3a1.75,1.75,0,0,1-1.449-2.729l3.549-5.257a1.75,1.75,0,1,1,2.9,1.958l-3.55,5.257A1.748,1.748,0,0,1,89.68,93.3Z"/><path d="M91.815,80.157a1.75,1.75,0,0,1-1.449-2.729l3.308-4.9a1.75,1.75,0,0,1,2.9,1.958l-3.308,4.9A1.748,1.748,0,0,1,91.815,80.157Z"/><path d="M85.053,90.176A1.749,1.749,0,0,1,83.6,87.447l3.548-5.258a1.75,1.75,0,1,1,2.9,1.958l-3.549,5.258A1.748,1.748,0,0,1,85.053,90.176Z"/><path d="M88.363,46.224a1.749,1.749,0,0,1-1.452-.771l-3.307-4.9a1.75,1.75,0,0,1,2.9-1.958l3.308,4.9a1.75,1.75,0,0,1-1.45,2.729Z"/><path d="M95.126,56.243a1.748,1.748,0,0,1-1.452-.771l-3.549-5.258a1.75,1.75,0,1,1,2.9-1.958l3.549,5.258a1.75,1.75,0,0,1-1.449,2.729Z"/><path d="M99.753,53.119a1.749,1.749,0,0,1-1.452-.771L88.231,37.429a1.75,1.75,0,1,1,2.9-1.958L101.2,50.39a1.75,1.75,0,0,1-1.45,2.729Z"/><path d="M33.692,96.423a1.748,1.748,0,0,1-1.452-.771L22.169,80.733a1.75,1.75,0,1,1,2.9-1.958l10.07,14.919a1.75,1.75,0,0,1-1.449,2.729Z"/><path d="M42.947,90.176a1.748,1.748,0,0,1-1.452-.771l-10.07-14.92a1.75,1.75,0,0,1,2.9-1.958L44.4,87.447a1.749,1.749,0,0,1-1.449,2.729Z"/><path d="M12,46.75A1.751,1.751,0,0,0,13.75,45V43.833a1.75,1.75,0,0,0-3.5,0V45A1.751,1.751,0,0,0,12,46.75Z"/><path d="M108.5,98.5H13.75V53.375a1.75,1.75,0,0,0-3.5,0v46.874A1.751,1.751,0,0,0,12,102h96.5a1.75,1.75,0,0,0,0-3.5Z"/><path d="M116,26H12a1.751,1.751,0,0,0-1.75,1.75v8.933a1.75,1.75,0,0,0,3.5,0V29.5h100.5v70.748a1.75,1.75,0,0,0,3.5,0v-72.5A1.751,1.751,0,0,0,116,26Z"/><path d="M50.061,49.323a1.751,1.751,0,0,0-2.471.149A21.917,21.917,0,1,0,64,42.083a22.4,22.4,0,0,0-2.57.149,1.75,1.75,0,0,0,.406,3.477,18.384,18.384,0,0,1,17.073,7.523,11.8,11.8,0,0,0-16.654,10.4,1.768,1.768,0,0,0-.038.366,8.317,8.317,0,0,1-16.634,0,18.4,18.4,0,0,1,4.626-12.207A1.749,1.749,0,0,0,50.061,49.323ZM53.9,75.817A11.832,11.832,0,0,0,65.712,64.366,1.768,1.768,0,0,0,65.75,64a8.317,8.317,0,0,1,16.634,0,1.8,1.8,0,0,0,.021.221,18.388,18.388,0,0,1-33.3,10.571A11.727,11.727,0,0,0,53.9,75.817Z"/><path d="M54.455,47.982a1.736,1.736,0,0,0,.829-.21c.188-.1.38-.2.572-.3A1.75,1.75,0,1,0,54.3,44.34q-.343.171-.68.351a1.75,1.75,0,0,0,.832,3.291Z"/><path d="M34.669,31.876a1.75,1.75,0,0,0-2.429.472L22.169,47.267a1.75,1.75,0,0,0,2.9,1.958l10.07-14.919A1.749,1.749,0,0,0,34.669,31.876Z"/><path d="M39.3,35a1.749,1.749,0,0,0-2.429.471L26.8,50.391a1.75,1.75,0,0,0,2.9,1.958l10.07-14.92A1.748,1.748,0,0,0,39.3,35Z"/><path d="M43.925,38.123a1.752,1.752,0,0,0-2.43.472L31.425,53.514a1.75,1.75,0,1,0,2.9,1.958L44.4,40.553A1.75,1.75,0,0,0,43.925,38.123Z"/><path d="M95.76,32.348a1.75,1.75,0,1,0-2.9,1.958l3.308,4.9a1.75,1.75,0,1,0,2.9-1.958Z"/><path d="M105.831,47.267l-3.549-5.258a1.75,1.75,0,0,0-2.9,1.958l3.549,5.258a1.75,1.75,0,0,0,2.9-1.958Z"/><path d="M29.7,75.651a1.75,1.75,0,0,0-2.9,1.958l3.308,4.9a1.75,1.75,0,0,0,2.9-1.958Z"/><path d="M36.868,92.529a1.75,1.75,0,0,0,2.9-1.958L36.22,85.313a1.75,1.75,0,1,0-2.9,1.958Z"/><path d="M100.093,86.105a1.748,1.748,0,0,0,2.429-.471l3.309-4.9a1.75,1.75,0,1,0-2.9-1.958l-3.308,4.9A1.75,1.75,0,0,0,100.093,86.105Z"/><path d="M93.331,96.124a1.75,1.75,0,0,0,2.429-.472L99.309,90.4a1.75,1.75,0,1,0-2.9-1.958l-3.549,5.257A1.749,1.749,0,0,0,93.331,96.124Z"/><path d="M95.465,82.981a1.75,1.75,0,0,0,2.43-.471l3.308-4.9a1.75,1.75,0,0,0-2.9-1.958l-3.307,4.9A1.749,1.749,0,0,0,95.465,82.981Z"/><path d="M88.7,93a1.748,1.748,0,0,0,2.429-.471l3.55-5.258a1.75,1.75,0,1,0-2.9-1.958l-3.549,5.258A1.748,1.748,0,0,0,88.7,93Z"/><path d="M96.1,72.057a1.75,1.75,0,0,0-2.43.471l-3.308,4.9a1.75,1.75,0,1,0,2.9,1.958l3.308-4.9A1.749,1.749,0,0,0,96.1,72.057Z"/><path d="M87.152,82.189,83.6,87.447a1.75,1.75,0,1,0,2.9,1.958l3.549-5.258a1.75,1.75,0,1,0-2.9-1.958Z"/><path d="M84.075,38.123a1.75,1.75,0,0,0-.471,2.43l3.307,4.9a1.75,1.75,0,0,0,2.9-1.958l-3.308-4.9A1.751,1.751,0,0,0,84.075,38.123Z"/><path d="M93.026,48.256a1.75,1.75,0,0,0-2.9,1.958l3.549,5.258a1.75,1.75,0,1,0,2.9-1.958Z"/><path d="M88.7,35a1.748,1.748,0,0,0-.472,2.429L98.3,52.349a1.75,1.75,0,0,0,2.9-1.958L91.132,35.471A1.749,1.749,0,0,0,88.7,35Z"/><path d="M22.169,80.733,32.24,95.652a1.75,1.75,0,1,0,2.9-1.958L25.071,78.775a1.75,1.75,0,1,0-2.9,1.958Z"/><path d="M42.947,90.176A1.749,1.749,0,0,0,44.4,87.447L34.326,72.528a1.75,1.75,0,1,0-2.9,1.958L41.5,89.405A1.748,1.748,0,0,0,42.947,90.176Z"/></svg>
