<svg id="Layer_1" height="512" viewBox="0 0 128 128" width="512" xmlns="http://www.w3.org/2000/svg" data-name="Layer 1"><path d="m12 27.751h104v72.497h-104z" fill="#0b55b1"/><path d="m12 27.751h104v24.166h-104z" fill="#f0f0f0"/><path d="m12 76.083h104v24.166h-104z" fill="#d60a2e"/><path d="m98.125 29.5h.875a1.75 1.75 0 0 0 0-3.5h-.875a1.75 1.75 0 0 0 0 3.5z"/><path d="m12 94.25a1.75 1.75 0 0 0 1.75-1.75v-.875a1.75 1.75 0 0 0 -3.5 0v.875a1.75 1.75 0 0 0 1.75 1.75z"/><path d="m116 26h-9.75a1.75 1.75 0 0 0 0 3.5h8v20.667h-93a1.75 1.75 0 0 0 0 3.5h93v20.666h-100.5v-44.833h77.063a1.75 1.75 0 0 0 0-3.5h-78.813a1.75 1.75 0 0 0 -1.75 1.75v57.125a1.75 1.75 0 0 0 3.5 0v-7.042h100.5v20.667h-102.25a1.75 1.75 0 0 0 0 3.5h104a1.75 1.75 0 0 0 1.75-1.75v-72.5a1.75 1.75 0 0 0 -1.75-1.75z"/></svg>