<svg height="512" viewBox="0 0 64 64" width="512" xmlns="http://www.w3.org/2000/svg"><g id="File-3" data-name="File"><path d="m40 13h8l-10-10v8a2 2 0 0 0 2 2z" fill="#ff6243"/><path d="m49 61h-45v-58h34v8a2.006 2.006 0 0 0 2 2h8z" fill="#ffde55"/><path d="m48 13h-1.958l.363 17.417a28 28 0 0 1 -27.994 28.583h-14.411v2h45z" fill="#e5c84d"/><path d="m51.95 34h-7.89c-5.25 2.66-9.06 10.19-9.06 16 0 7.18 5.82 11 13 11s13-3.82 13-11c0-5.8-3.8-13.33-9.05-16z" fill="#a97c50"/><path d="m44 34h.06 7.89.05v-3h-8z" fill="#c49a6c"/><path d="m44 31h8l3-6h-7-7z" fill="#8b5e3c"/><path d="m51.95 34h-2c5.25 2.67 9.05 10.2 9.05 16 0 6.842-5.289 10.625-12 10.966.331.017.662.034 1 .034 7.18 0 13-3.82 13-11 0-5.8-3.8-13.33-9.05-16z" fill="#8b5e3c"/><path d="m53 25-3 6h2l3-6z" fill="#754c29"/><path d="m10 45h4v8h-4z" fill="#d80027"/><path d="m18 41h4v12h-4z" fill="#5eac24"/><path d="m26 35h4v18h-4z" fill="#006df0"/><g fill="#231f20"><path d="m47 45h2a1 1 0 0 1 1 1 1 1 0 0 0 2 0 3 3 0 0 0 -3-3v-1a1 1 0 0 0 -2 0v1a3 3 0 0 0 0 6h2a1 1 0 0 1 0 2h-2a1 1 0 0 1 -1-1 1 1 0 0 0 -2 0 3 3 0 0 0 3 3v1a1 1 0 0 0 2 0v-1a3 3 0 0 0 0-6h-2a1 1 0 0 1 0-2z"/><path d="m12 16h-2a1 1 0 0 1 -1-1 1 1 0 0 0 -2 0 3 3 0 0 0 3 3v1a1 1 0 0 0 2 0v-1a3 3 0 0 0 0-6h-2a1 1 0 0 1 0-2h2a1 1 0 0 1 1 1 1 1 0 0 0 2 0 3 3 0 0 0 -3-3v-1a1 1 0 0 0 -2 0v1a3 3 0 0 0 0 6h2a1 1 0 0 1 0 2z"/><path d="m53 33.45v-2.21l2.89-5.79a1 1 0 0 0 -.89-1.45h-6v-11a1.033 1.033 0 0 0 -.29-.71l-10-10a1.033 1.033 0 0 0 -.71-.29h-34a1 1 0 0 0 -1 1v58a1 1 0 0 0 1 1h44c8.37 0 14-4.82 14-12 0-5.58-3.43-13.31-9-16.55zm.38-7.45-2 4h-6.76l-2-4zm-2.38 6v1h-6v-1zm-12-26.59 6.59 6.59h-5.59a1 1 0 0 1 -1-1zm-34 54.59v-56h32v7a3.009 3.009 0 0 0 3 3h7v10h-6a1 1 0 0 0 -.89 1.45l2.89 5.79v2.22c-5.57 3.23-9 10.96-9 16.54a11.116 11.116 0 0 0 5.74 10zm43 0c-5.54 0-12-2.62-12-10 0-5.15 3.34-12.34 8.32-15h7.36c4.99 2.67 8.32 9.86 8.32 15 0 7.38-6.46 10-12 10z"/><path d="m32 8h-14a1 1 0 0 0 0 2h14a1 1 0 0 0 0-2z"/><path d="m32 12h-14a1 1 0 0 0 0 2h14a1 1 0 0 0 0-2z"/><path d="m32 16h-14a1 1 0 0 0 0 2h14a1 1 0 0 0 0-2z"/><path d="m32 52h-1v-17a1 1 0 0 0 -1-1h-4a1 1 0 0 0 -1 1v17h-2v-11a1 1 0 0 0 -1-1h-4a1 1 0 0 0 -1 1v11h-2v-7a1 1 0 0 0 -1-1h-4a1 1 0 0 0 -1 1v7h-1a1 1 0 0 0 0 2h24a1 1 0 0 0 0-2zm-21 0v-6h2v6zm8 0v-10h2v10zm8 0v-16h2v16z"/><path d="m11.219 38.625a1 1 0 0 0 1.406.156l14.375-11.501v1.72a1 1 0 0 0 2 0v-4a1 1 0 0 0 -1-1h-4a1 1 0 0 0 0 2h1.4l-14.025 11.219a1 1 0 0 0 -.156 1.406z"/></g></g></svg>