<svg id="Layer_1" height="512" viewBox="0 0 512 512" width="512" xmlns="http://www.w3.org/2000/svg" data-name="Layer 1"><path d="m417.37 382.8-13.8 113.2h-71.76l9.02-29.59 19.56-64.15 5.93-19.46z" fill="#50dd5a"/><path d="m355.81 476 9.02-29.59 19.395-63.61h-17.905l-5.93 19.46-19.56 64.15-9.02 29.59h71.76l2.438-20z" fill="#49c160"/><path d="m203.47 393.03a25.427 25.427 0 0 1 16.89-6.38h34.4a40.959 40.959 0 0 0 17.8-4.08l3.54-1.72a57.223 57.223 0 0 1 59.33 5.8l8.57 7.62a33.627 33.627 0 0 0 16.23 7.94l.16.05-19.56 64.15-27.99-17.7a19.217 19.217 0 0 0 -14.07-1.86l-51.69 9.51a62.639 62.639 0 0 1 -38.94-5.49l-89.43-61.4a20.725 20.725 0 0 1 27.6-7.55l4.55 2.46 37.95 20.47 6.3 3.32a25.469 25.469 0 0 1 8.36-15.14z" fill="#ffd39f"/><path d="m322.84 428.71a19.217 19.217 0 0 0 -14.07-1.86l-51.69 9.51a62.639 62.639 0 0 1 -38.94-5.49l-69.319-47.592-2.511-1.358a20.725 20.725 0 0 0 -27.6 7.55l89.43 61.4a62.639 62.639 0 0 0 38.94 5.49l51.69-9.51a19.217 19.217 0 0 1 14.07 1.86l27.99 17.7 6.729-22.069z" fill="#efc597"/><path d="m316.94 212.9a84.157 84.157 0 0 1 -3.62 104.13 100.373 100.373 0 0 1 -153.25 0 84.169 84.169 0 0 1 -3.62-104.13l22.77-31.05a79.786 79.786 0 0 1 20.83 9.12 53.648 53.648 0 0 0 20.25 7.17 140.262 140.262 0 0 0 21.93 1.28h41.82a14.316 14.316 0 0 0 14.14-12.1z" fill="#edb740"/><path d="m228.77 71.82a152.238 152.238 0 0 0 -7.33-22.87 153.325 153.325 0 0 0 -12.19-23.7l-5.83-9.25 90.55.95a160.408 160.408 0 0 0 -22.01 59.75l-.16 1.03-1.21 7.86.01.39-30.94.57c-5.65 0-10.4-5.22-11.01-10.84v-3.86z" fill="#edb740"/><path d="m180.07 317.03a84.169 84.169 0 0 1 -3.62-104.13l18.292-24.944a79.744 79.744 0 0 0 -15.522-6.106l-22.77 31.05a84.169 84.169 0 0 0 3.62 104.13 99.914 99.914 0 0 0 76.62 35.54q5.007 0 10-.5a99.774 99.774 0 0 1 -66.62-35.04z" fill="#cc9a40"/><path d="m248.65 75.71s-4.17-19.35-7.21-26.76a153.325 153.325 0 0 0 -12.19-23.7l-5.7-9.039-20.13-.211 5.83 9.25a153.325 153.325 0 0 1 12.19 23.7 152.238 152.238 0 0 1 7.33 22.87l-.12.03v3.86c.61 5.62 5.36 10.84 11.01 10.84l17.617-.325c-4.551-1.205-8.105-5.708-8.627-10.515z" fill="#cc9a40"/><path d="m146.01 178.95v16.68h-51.38v-131.49h51.38v18.85z" fill="#5fa8ed"/><path d="m114.63 95.051a10.911 10.911 0 0 1 10.911-10.911h20.469v-20h-51.38v131.49h20z" fill="#4689d3"/><path d="m179.22 181.85a79.845 79.845 0 0 0 -21.35-2.9h-11.86v-95.96h12.86c7.66 0 14.7-2.92 21.04-6.89 5.26-3.29 3.23-27.12 27.09-27.12h14.36l.08-.03a152.246 152.246 0 0 1 7.136 22.055c.065.271.074 4.7.074 4.7.61 5.62 5.36 10.84 11.01 10.84l30.94-.57 20.93-.39a13.43 13.43 0 1 1 0 26.86h-1.37v.06a14.805 14.805 0 0 1 0 29.61h.44a14.355 14.355 0 0 1 0 28.71h-6.55a14.306 14.306 0 0 1 14.3 14.29 15.932 15.932 0 0 1 -.16 2.2 14.316 14.316 0 0 1 -14.14 12.1h-41.82a140.262 140.262 0 0 1 -21.93-1.28 53.648 53.648 0 0 1 -20.25-7.17 79.786 79.786 0 0 0 -20.83-9.115z" fill="#f9b691"/><path d="m306.58 48.98v.55c0 15.57-7.72 28.2-23.29 28.2h-11.49l.16-1.03a159.274 159.274 0 0 1 6.85-27.72z" fill="#f9b691"/><g fill="#e5a889"><path d="m278.81 48.98c-1.919 5.572-4.985 17.718-5.063 18.075l28.669-.075a34.963 34.963 0 0 0 4.164-17.45v-.55z"/><path d="m227.276 65.994a151.965 151.965 0 0 0 -5.836-17.044l-.08.03h-14.36c-23.86 0-21.83 23.83-27.09 27.12-6.34 3.97-13.38 6.89-21.04 6.89h-12.86v18h12.86c7.66 0 14.7-2.92 21.04-6.89 5.26-3.29 3.23-27.12 27.09-27.12h14.36l.08-.03"/><path d="m228.727 84.782.043 5.038-.12.03v3.86c.61 5.62 5.36 10.84 11.01 10.84l30.94-.57 20.93-.39a13.392 13.392 0 0 1 9.5 3.93c.158.158.3.33.45.5a13.414 13.414 0 0 0 -9.95-22.425l-20.93.39-30.94.57a9.964 9.964 0 0 1 -5.806-1.948"/></g><path d="m227.99 386.65h-7.63a25.427 25.427 0 0 0 -16.89 6.38l-24.39-13.15.3-.56a23.44 23.44 0 0 1 28.33-3.7z" fill="#efc69a"/><path d="m179.08 379.88 24.39 13.15a25.469 25.469 0 0 0 -8.36 15.14l-6.3-3.32-37.95-20.47.03-.05c4.25-7.48 14.31-11.68 21.98-7.79z" fill="#efc69a"/><g fill="#284268"><path d="m421.863 378.825a6 6 0 0 0 -4.492-2.022h-51.048a6 6 0 0 0 -5.74 4.25l-4.219 13.84a27.549 27.549 0 0 1 -8.378-5.106l-8.563-7.623c-.123-.109-.25-.214-.381-.312a62.981 62.981 0 0 0 -65.551-6.4l-3.547 1.715a35.09 35.09 0 0 1 -15.189 3.481h-25.24l-18.875-10.266a29.466 29.466 0 0 0 -32.555 2.149l-2.364-1.274c-.045-.024-.089-.047-.134-.069-8.5-4.308-19.48-1.733-26.387 5.473l-.04-.021a26.688 26.688 0 0 0 -35.585 9.731 6 6 0 0 0 1.744 8.041l89.424 61.4a5.918 5.918 0 0 0 .734.43 69.074 69.074 0 0 0 42.692 6.022l51.69-9.518c.127-.022.252-.05.377-.081a13.16 13.16 0 0 1 9.546 1.212l23.977 15.158-7.687 25.215a6 6 0 0 0 5.739 7.75h71.755a6 6 0 0 0 5.956-5.273l13.805-113.2a6 6 0 0 0 -1.464-4.702zm-217.163 1.983.142.08 3.755 2.041a31.584 31.584 0 0 0 -5.67 2.985l-12.281-6.614a17.429 17.429 0 0 1 14.054 1.508zm-34.592 1.054 23.959 12.91a31.539 31.539 0 0 0 -2.579 4.7l-30.912-16.672c3.056-1.823 6.724-2.326 9.529-.938zm145.936 61.778c-.09-.058-.183-.114-.277-.166a25.119 25.119 0 0 0 -18.257-2.5l-51.5 9.481a56.971 56.971 0 0 1 -34.839-4.788l-83.5-57.332a14.705 14.705 0 0 1 15.788-1.139l42.547 22.953 2.8 1.475c0 .2-.014.391-.014.589a6 6 0 0 0 6 6c.09 0 .181 0 .272-.006l29.337-1.327a139.038 139.038 0 0 1 25.332 1.17 6 6 0 1 0 1.646-11.887 151.266 151.266 0 0 0 -27.52-1.271l-22.018 1a19.606 19.606 0 0 1 18.523-13.246h34.394a47.154 47.154 0 0 0 20.413-4.678l3.547-1.715a51.028 51.028 0 0 1 52.918 5.043l8.374 7.454a39.57 39.57 0 0 0 12.854 7.634l-15.473 50.749zm82.209 46.36h-58.34l30.853-101.2h39.828z"/><path d="m152.015 195.627v-10.679h5.858a74.074 74.074 0 0 1 11.025.833l-17.288 23.574a89.887 89.887 0 0 0 3.878 111.553 106.177 106.177 0 0 0 81.206 37.663 106.185 106.185 0 0 0 81.206-37.663 89.889 89.889 0 0 0 3.878-111.553l-17.453-23.8c0-.147.022-.289.022-.436a20.161 20.161 0 0 0 -3.368-11.169 20.3 20.3 0 0 0 3.9-31.964 20.74 20.74 0 0 0 .225-29.1 19.4 19.4 0 0 0 -8.104-32.502c9.669-5.256 15.578-16.368 15.578-30.855v-.55a6 6 0 0 0 -6-6h-19.123a154.363 154.363 0 0 1 11.617-22.874 6 6 0 0 0 -5.042-9.151l-90.55-.954a6 6 0 0 0 -5.139 9.2l5.83 9.253a148.528 148.528 0 0 1 8.048 14.527h-5.219c-21.151 0-26.373 15.679-29.179 24.1a37.416 37.416 0 0 1 -1.578 4.236c-6.237 3.816-11.924 5.672-17.37 5.672h-6.858v-12.846a6 6 0 0 0 -6-6h-51.386a6 6 0 0 0 -6 6v131.485a6 6 0 0 0 6 6h51.386a6 6 0 0 0 6-6zm160.085 20.825a77.923 77.923 0 0 1 -3.362 96.7 94.377 94.377 0 0 1 -144.092 0 77.921 77.921 0 0 1 -3.361-96.7l20.248-27.611a74.013 74.013 0 0 1 14.612 6.784c-14.767 12.47-13.907 31.818-10.895 41.356a6 6 0 0 0 11.443-3.613 35.168 35.168 0 0 1 -1.013-12.468 23.583 23.583 0 0 1 13.065-19.362c10.638 3.484 21.932 3.876 33.481 3.876h13.981l1.428 2.577a57.4 57.4 0 0 1 7.082 31.677l-.121 1.837a6 6 0 0 0 5.591 6.383c.134.009.268.013.4.013a6 6 0 0 0 5.981-5.6l.122-1.837a69.353 69.353 0 0 0 -6.563-34.382c3.465 1.32 13.967 7.038 15.956 28.162a6 6 0 0 0 5.967 5.438c.188 0 .379-.009.57-.027a6 6 0 0 0 5.411-6.536c-1.26-13.375-5.417-22.228-10.1-28.083a20.272 20.272 0 0 0 11.156-6.328zm-11.933-161.473c-1.061 6.992-4.721 16.747-16.877 16.747h-4.365a153.84 153.84 0 0 1 4.209-16.748h17.033zm-80.952-32.812a6.053 6.053 0 0 0 .679.339c9.491 3.935 17.115 16.253 15.689 25.346a6 6 0 0 0 5 6.857 6.084 6.084 0 0 0 .937.073 6 6 0 0 0 5.92-5.072c1.434-9.148-2.128-19.423-8.6-27.337l18.965.2c-2.021 5.875-3.793 14.093-2.259 22.609a6 6 0 0 0 11.81-2.127c-1.454-8.075 1.448-16.241 3.282-20.347l13.017.137a165.08 165.08 0 0 0 -17.627 52.943l-.659 4.283-25.75.478a4.736 4.736 0 0 1 -3.267-1.736 158.852 158.852 0 0 0 -21.993-56.7zm-67.2 66.822h6.858c7.9 0 15.827-2.551 24.22-7.8 3.381-2.113 4.647-5.915 6.114-10.317 3.1-9.306 6.19-15.894 17.793-15.894h10.376a146.964 146.964 0 0 1 5.269 17.014v3.713a5.9 5.9 0 0 0 .036.651c.974 8.928 8.592 16.192 16.981 16.192h.111l51.8-.962a7.43 7.43 0 0 1 -.048 14.86h-12.359a6.115 6.115 0 0 0 -.84.065h-7.941a6 6 0 0 0 0 12h19.772a8.8 8.8 0 0 1 0 17.605h-19.772a6 6 0 0 0 0 12h20.215a8.356 8.356 0 0 1 0 16.711h-29.15a6 6 0 0 0 0 12h22.6a8.295 8.295 0 0 1 0 16.589h-41.824c-14.69 0-27.765-.568-39.014-7.547a85.937 85.937 0 0 0 -45.339-12.921h-5.858zm-12 100.638h-39.386v-119.485h39.386z"/><path d="m239.667 266.646a7.589 7.589 0 0 1 7.582 7.581 6 6 0 0 0 12 0 19.609 19.609 0 0 0 -13.582-18.627v-2.412a6 6 0 0 0 -12 0v2.412a19.577 19.577 0 0 0 6 38.214 7.579 7.579 0 0 1 .1 15.158c-.033 0-.064 0-.1 0s-.063 0-.1 0a7.588 7.588 0 0 1 -7.485-7.577 6 6 0 0 0 -12 0 19.611 19.611 0 0 0 13.581 18.633v3.029a6 6 0 0 0 12 0v-3.029a19.577 19.577 0 0 0 -6-38.214 7.582 7.582 0 0 1 0-15.163z"/></g></svg>