<svg id="Layer_1" height="512" viewBox="0 0 128 128" width="512" xmlns="http://www.w3.org/2000/svg" data-name="Layer 1"><path d="m12 27.751h104v72.497h-104z" fill="#f0f0f0"/><path d="m12 27.751h104v24.166h-104z" fill="#6aa1d8"/><path d="m12 76.083h104v24.166h-104z" fill="#6aa1d8"/><circle cx="64" cy="64" fill="#fed953" r="4.519"/><path d="m71.083 62.25h-1.067a6.223 6.223 0 0 0 -.524-1.268l.754-.753a1.75 1.75 0 0 0 -2.475-2.475l-.754.754a6.215 6.215 0 0 0 -1.267-.524v-1.067a1.75 1.75 0 0 0 -3.5 0v1.067a6.215 6.215 0 0 0 -1.267.524l-.754-.754a1.75 1.75 0 0 0 -2.475 2.475l.754.753a6.223 6.223 0 0 0 -.524 1.268h-1.067a1.75 1.75 0 0 0 0 3.5h1.067a6.223 6.223 0 0 0 .524 1.268l-.754.753a1.75 1.75 0 1 0 2.475 2.475l.754-.754a6.215 6.215 0 0 0 1.267.524v1.067a1.75 1.75 0 0 0 3.5 0v-1.067a6.215 6.215 0 0 0 1.267-.524l.754.754a1.75 1.75 0 0 0 2.475-2.475l-.754-.753a6.223 6.223 0 0 0 .524-1.268h1.067a1.75 1.75 0 0 0 0-3.5zm-9.853 1.75a2.77 2.77 0 1 1 2.77 2.769 2.773 2.773 0 0 1 -2.77-2.769z" fill="#fe9933"/><path d="m105.5 29.5h1a1.75 1.75 0 0 0 0-3.5h-1a1.75 1.75 0 0 0 0 3.5z"/><path d="m40.5 98.5h-26.75v-44.833h94.917a1.75 1.75 0 0 0 0-3.5h-94.917v-20.667h83.917a1.75 1.75 0 0 0 0-3.5h-85.667a1.75 1.75 0 0 0 -1.75 1.75v72.5a1.75 1.75 0 0 0 1.75 1.75h28.5a1.75 1.75 0 0 0 0-3.5z"/><path d="m49.833 98.5h-1.666a1.75 1.75 0 0 0 0 3.5h1.666a1.75 1.75 0 0 0 0-3.5z"/><path d="m116 26a1.75 1.75 0 0 0 -1.75 1.75v46.583h-94.75a1.75 1.75 0 0 0 0 3.5h94.75v20.667h-57.333a1.75 1.75 0 0 0 0 3.5h59.083a1.75 1.75 0 0 0 1.75-1.75v-72.5a1.75 1.75 0 0 0 -1.75-1.75z"/><path d="m71.083 65.75a1.75 1.75 0 0 0 0-3.5h-1.067a6.223 6.223 0 0 0 -.524-1.268l.754-.753a1.75 1.75 0 0 0 -2.475-2.475l-.754.754a6.215 6.215 0 0 0 -1.267-.524v-1.067a1.75 1.75 0 0 0 -3.5 0v1.067a6.215 6.215 0 0 0 -1.267.524l-.754-.754a1.75 1.75 0 0 0 -2.475 2.475l.754.753a6.223 6.223 0 0 0 -.524 1.268h-1.067a1.75 1.75 0 0 0 0 3.5h1.067a6.223 6.223 0 0 0 .524 1.268l-.754.753a1.75 1.75 0 1 0 2.475 2.475l.754-.754a6.215 6.215 0 0 0 1.267.524v1.067a1.75 1.75 0 0 0 3.5 0v-1.067a6.215 6.215 0 0 0 1.267-.524l.754.754a1.75 1.75 0 0 0 2.475-2.475l-.754-.753a6.223 6.223 0 0 0 .524-1.268zm-9.853-1.75a2.77 2.77 0 1 1 2.77 2.769 2.773 2.773 0 0 1 -2.77-2.769z"/></svg>