<svg id="Layer_1" height="512" viewBox="0 0 128 128" width="512" xmlns="http://www.w3.org/2000/svg" data-name="Layer 1"><path d="m12 27.751h104v72.497h-104z" fill="#6fa44a"/><path d="m64 36.667-46.782 27.333 46.782 27.333 46.782-27.333z" fill="#fed953"/><circle cx="64" cy="64" fill="#0b55b1" r="15.349"/><path d="m64.507 56.451a30.779 30.779 0 0 0 -13.41-.745 15.243 15.243 0 0 0 -2.163 5.386 30.862 30.862 0 0 1 13.337.775c6.714 1.821 12.15 5.423 15.164 9.551a15.265 15.265 0 0 0 1.84-5.942c-3.084-3.906-8.341-7.282-14.768-9.025z" fill="#f0f0f0"/><path d="m116 98.5h-102.25v-69h6.75a1.75 1.75 0 0 0 0-3.5h-8.5a1.751 1.751 0 0 0 -1.75 1.75v72.5a1.751 1.751 0 0 0 1.75 1.75h104a1.75 1.75 0 0 0 0-3.5z"/><path d="m116 26h-81.333a1.75 1.75 0 0 0 0 3.5h79.583v62.994a1.75 1.75 0 0 0 3.5 0v-64.743a1.751 1.751 0 0 0 -1.75-1.751z"/><path d="m27.167 29.5h1.083a1.75 1.75 0 0 0 0-3.5h-1.083a1.75 1.75 0 0 0 0 3.5z"/><path d="m22.946 67.347a1.75 1.75 0 0 0 .628 2.394l39.543 23.1a1.757 1.757 0 0 0 1.766 0l46.782-27.334a1.75 1.75 0 0 0 0-3.022l-46.782-27.33a1.754 1.754 0 0 0 -1.766 0l-46.782 27.334a1.75 1.75 0 0 0 1.765 3.022l45.9-26.818 43.313 25.307-43.313 25.307-38.66-22.589a1.749 1.749 0 0 0 -2.394.629z"/><path d="m78.884 72.388c.03-.046.059-.092.085-.14a17.086 17.086 0 0 0 -29.289-17.562 1.422 1.422 0 0 0 -.088.144 17.082 17.082 0 1 0 29.292 17.558zm-1.638-11.42a32.888 32.888 0 0 0 -12.281-6.206 34.238 34.238 0 0 0 -9.651-1.215 13.579 13.579 0 0 1 21.932 7.421zm-26.846 3.032c0-.461.024-.916.069-1.365a26.75 26.75 0 0 1 4.75-.156 1.75 1.75 0 1 0 .189-3.495 30.891 30.891 0 0 0 -4.057.052 13.524 13.524 0 0 1 .82-1.722 29.245 29.245 0 0 1 11.877.826 27.124 27.124 0 0 1 13.382 7.885 13.428 13.428 0 0 1 -.484 2.122 28.172 28.172 0 0 0 -7.457-5.381 1.75 1.75 0 1 0 -1.586 3.12 23.649 23.649 0 0 1 7.4 5.657 13.594 13.594 0 0 1 -24.903-7.543z"/><path d="m64.71 62.58a1.749 1.749 0 0 0 -1.18-2.175q-.4-.118-.8-.227a1.75 1.75 0 1 0 -.916 3.378c.243.066.483.133.722.2a1.726 1.726 0 0 0 .5.073 1.75 1.75 0 0 0 1.674-1.249z"/></svg>