<svg id="Layer_1" height="512" viewBox="0 0 128 128" width="512" xmlns="http://www.w3.org/2000/svg" data-name="Layer 1"><path d="m12 27.751h104v72.497h-104z" fill="#f0f0f0"/><path d="m116 54.667h-58.667v-26.916h-18.666v26.916h-26.916v18.666h26.916v26.916h18.666v-26.916h58.667z" fill="#0b55b1"/><path d="m116 26h-104a1.751 1.751 0 0 0 -1.75 1.75v57.75a1.75 1.75 0 0 0 3.5 0v-10.417h23.167v23.417h-24.917a1.75 1.75 0 0 0 0 3.5h104a1.75 1.75 0 0 0 1.75-1.75v-72.5a1.75 1.75 0 0 0 -1.75-1.75zm-56.917 72.5v-23.417h40.542a1.75 1.75 0 0 0 0-3.5h-42.292a1.751 1.751 0 0 0 -1.75 1.75v25.167h-15.166v-25.167a1.751 1.751 0 0 0 -1.75-1.75h-24.917v-42.083h23.167v23.417h-17.084a1.75 1.75 0 0 0 0 3.5h18.834a1.751 1.751 0 0 0 1.75-1.75v-25.167h73.833v23.417h-55.167v-17.417a1.75 1.75 0 0 0 -3.5 0v19.167a1.751 1.751 0 0 0 1.75 1.75h56.917v42.083z"/><path d="m12 95a1.751 1.751 0 0 0 1.75-1.75v-1.25a1.75 1.75 0 0 0 -3.5 0v1.25a1.751 1.751 0 0 0 1.75 1.75z"/><path d="m108.167 71.583h-1.542a1.75 1.75 0 0 0 0 3.5h1.542a1.75 1.75 0 0 0 0-3.5z"/></svg>