<svg id="Layer_1" height="512" viewBox="0 0 128 128" width="512" xmlns="http://www.w3.org/2000/svg" data-name="Layer 1"><path d="m12 27.751h34.667v72.497h-34.667z" fill="#0b55b1"/><path d="m46.667 27.751h34.667v72.497h-34.667z" fill="#f0f0f0"/><path d="m81.333 27.751h34.667v72.497h-34.667z" fill="#b80016"/><path d="m38.875 29.5h.792a1.75 1.75 0 0 0 0-3.5h-.792a1.75 1.75 0 0 0 0 3.5z"/><path d="m81.333 75.5a1.75 1.75 0 0 0 -1.75 1.75v.917a1.75 1.75 0 0 0 3.5 0v-.917a1.75 1.75 0 0 0 -1.75-1.75z"/><path d="m116 26h-69.333a1.75 1.75 0 0 0 -1.75 1.75v70.75h-31.167v-69h18.438a1.75 1.75 0 0 0 0-3.5h-20.188a1.75 1.75 0 0 0 -1.75 1.75v72.5a1.75 1.75 0 0 0 1.75 1.75h69.333a1.75 1.75 0 0 0 1.75-1.75v-15.083a1.75 1.75 0 0 0 -3.5 0v13.333h-31.166v-69h31.166v41.417a1.75 1.75 0 0 0 3.5 0v-41.417h31.167v69h-25.25a1.75 1.75 0 0 0 0 3.5h27a1.75 1.75 0 0 0 1.75-1.75v-72.5a1.75 1.75 0 0 0 -1.75-1.75z"/></svg>