<svg id="Layer_1" height="512" viewBox="0 0 128 128" width="512" xmlns="http://www.w3.org/2000/svg" data-name="Layer 1"><path d="m12 27.751h104v24.166h-104z" fill="#191f1e"/><path d="m12 51.917h104v24.166h-104z" fill="#d60a2e"/><path d="m12 76.083h104v24.166h-104z" fill="#fed953"/><path d="m116 26h-104a1.751 1.751 0 0 0 -1.75 1.75v72.5a1.751 1.751 0 0 0 1.75 1.75h104a1.75 1.75 0 0 0 0-3.5h-102.25v-20.667h100.5v14.667a1.75 1.75 0 0 0 3.5 0v-64.749a1.751 1.751 0 0 0 -1.75-1.751zm-102.25 27.667h12.917a1.75 1.75 0 0 0 0-3.5h-12.917v-20.667h100.5v20.667h-74.125a1.75 1.75 0 0 0 0 3.5h74.125v20.666h-100.5z"/><path d="m33.75 50.167h-.5a1.75 1.75 0 0 0 0 3.5h.5a1.75 1.75 0 0 0 0-3.5z"/></svg>