<svg id="Layer_1" height="512" viewBox="0 0 128 128" width="512" xmlns="http://www.w3.org/2000/svg" data-name="Layer 1"><path d="m12 27.751h104v72.497h-104z" fill="#6fa44a"/><path d="m74.492 64 41.508-28.935v-7.314h-10.492l-41.508 28.935-41.508-28.935h-10.492v7.314l41.508 28.935-41.508 28.935v7.314h10.492l41.508-28.935 41.508 28.935h10.492v-7.314z" fill="#fed953"/><path d="m12 35.065 41.508 28.935-41.508 28.935z" fill="#191f1e"/><path d="m116 35.065-41.508 28.935 41.508 28.935z" fill="#191f1e"/><path d="m116 35.064-41.508 28.936 41.508 28.935z"/><path d="m116 26h-59.437a1.75 1.75 0 0 0 0 3.5h43.374l-30.287 21.114a1.75 1.75 0 1 0 2 2.871l34.408-23.985h8.192v60.082l-36.698-25.582 33.03-23.025a1.75 1.75 0 1 0 -2-2.871l-35.091 24.46a1.751 1.751 0 0 0 0 2.872l40.759 28.413v4.651h-8.192l-17.1-11.918a1.75 1.75 0 0 0 -2 2.871l12.979 9.047h-86.187v-4.65l40.759-28.414a1.751 1.751 0 0 0 0-2.872l-40.759-28.413v-4.651h8.192l41.058 28.622a1.75 1.75 0 1 0 2-2.871l-36.937-25.751h14.1a1.75 1.75 0 0 0 0-3.5h-30.163a1.75 1.75 0 0 0 -1.75 1.75v72.5a1.75 1.75 0 0 0 1.75 1.75h104a1.75 1.75 0 0 0 1.75-1.75v-72.5a1.75 1.75 0 0 0 -1.75-1.75zm-65.552 38-36.698 25.582v-51.164z"/><path d="m49.5 29.5h.688a1.75 1.75 0 0 0 0-3.5h-.688a1.75 1.75 0 0 0 0 3.5z"/><path d="m82.314 86.214a1.75 1.75 0 0 0 2-2.871l-.653-.455a1.75 1.75 0 0 0 -2 2.871z"/><path d="m63 69.878-32.627 22.744a1.75 1.75 0 1 0 2 2.871l31.627-22.047 11.94 8.325a1.75 1.75 0 1 0 2-2.872l-12.94-9.021a1.748 1.748 0 0 0 -2 0z"/></svg>