<svg id="Layer_1" height="512" viewBox="0 0 128 128" width="512" xmlns="http://www.w3.org/2000/svg" data-name="Layer 1"><path d="m12 27.751h104v72.497h-104z" fill="#f0f0f0"/><circle cx="64" cy="64" fill="#d60a2e" r="21.333"/><path d="m116 26h-104a1.75 1.75 0 0 0 0 3.5h102.25v69h-7.25a1.75 1.75 0 0 0 0 3.5h9a1.75 1.75 0 0 0 1.75-1.75v-72.5a1.75 1.75 0 0 0 -1.75-1.75z"/><path d="m91.875 98.5h-78.125v-62.25a1.75 1.75 0 0 0 -3.5 0v64a1.75 1.75 0 0 0 1.75 1.75h79.875a1.75 1.75 0 0 0 0-3.5z"/><path d="m100 98.5h-1.25a1.75 1.75 0 0 0 0 3.5h1.25a1.75 1.75 0 0 0 0-3.5z"/><path d="m46.656 51.454a1.751 1.751 0 0 0 -2.4.588 23.044 23.044 0 1 0 11.959-9.778 1.75 1.75 0 1 0 1.182 3.295 19.583 19.583 0 1 1 -10.149 8.3 1.751 1.751 0 0 0 -.592-2.405z"/><path d="m51.479 48.941q.318-.264.648-.516a1.75 1.75 0 1 0 -2.121-2.783q-.392.3-.767.611a1.749 1.749 0 1 0 2.24 2.688z"/></svg>