<svg id="Layer_1" height="512" viewBox="0 0 128 128" width="512" xmlns="http://www.w3.org/2000/svg" data-name="Layer 1"><path d="m12 27.751h104v72.497h-104z" fill="#f0f0f0"/><path d="m12 64h104v36.249h-104z" fill="#d60a2e"/><path d="m104.833 29.5h1.917a1.75 1.75 0 0 0 0-3.5h-1.917a1.75 1.75 0 0 0 0 3.5z"/><path d="m12 86.5a1.751 1.751 0 0 0 1.75-1.75v-55.25h82.417a1.75 1.75 0 0 0 0-3.5h-84.167a1.751 1.751 0 0 0 -1.75 1.75v57a1.751 1.751 0 0 0 1.75 1.75z"/><path d="m116 26a1.751 1.751 0 0 0 -1.75 1.75v34.5h-94.25a1.75 1.75 0 0 0 0 3.5h94.25v32.75h-102.25a1.75 1.75 0 0 0 0 3.5h104a1.751 1.751 0 0 0 1.75-1.75v-72.5a1.751 1.751 0 0 0 -1.75-1.75z"/></svg>