<svg xmlns="http://www.w3.org/2000/svg" viewBox="0 0 70.79 45.17">
  <defs>
    <style>.cls-1{fill:#4780bc;}.cls-2{fill:#4780bc;}</style>
  </defs>
  <g id="Layer_2" data-name="Layer 2">
    <g id="OBJECTS">
      <path class="cls-1" d="M56.12,0H39.76L54.43,22.59,39.76,45.17H56.12L70.79,22.59ZM16.36,0H0L14.67,22.59,0,45.17H16.36L31,22.59ZM36.24,0H19.88L34.55,22.59,19.88,45.17H36.24L50.92,22.59Z"/>
      <polygon class="cls-2" points="39.76 45.17 56.12 45.17 70.8 22.59 54.43 22.59 39.76 45.17"/>
      <polygon class="cls-2" points="14.67 22.59 0 45.17 16.36 45.17 31.04 22.59 14.67 22.59"/>
      <polygon class="cls-2" points="34.55 22.59 19.88 45.17 36.24 45.17 50.92 22.59 34.55 22.59"/>
    </g>
  </g>
</svg>