
<?xml version="1.0"?>
<svg xmlns="http://www.w3.org/2000/svg" id="Layer_1" data-name="Layer 1" viewBox="0 0 512 512" ><title>Cargo container</title><g id="_Group_2" data-name=" Group 2"><path d="M495.99,374.37v63.42H463.7v-.93c0-.97-.03-1.94-.1-2.89a39.323,39.323,0,0,0-78.54,2.89c0,.3,0,.62.01.92v.01H356.62v-71.3h70.01V334.37h29.36a39.953,39.953,0,0,1,40,40Z" style="fill:#e48e66"/><path d="M471,322.77v12.37l-2.18,1.33a40.034,40.034,0,0,0-12.83-2.1H426.26a20,20,0,0,1-20-20V254.61h47.86l16.28,64.75A9.958,9.958,0,0,1,471,322.77Z" style="fill:#6fe3ff"/><path d="M463.7,436.86v.93a39.326,39.326,0,0,1-78.63,0v-.01c-.01-.3-.01-.62-.01-.92a39.323,39.323,0,0,1,78.54-2.89C463.67,434.92,463.7,435.89,463.7,436.86Z" style="fill:#f8ec7d"/><path d="M426.63,334.37v32.12H356.62V254.61h49.64v59.76a20,20,0,0,0,20,20Z" style="fill:#af593c"/><path d="M356.62,402.3v35.48H207.39v-.92c0-.97-.03-1.94-.1-2.89a39.313,39.313,0,0,0-20.47-31.67Z" style="fill:#af593c"/><rect x="26" y="231.56" width="300" height="142.95" style="fill:#f8ec7d"/><path d="M207.39,436.86v.92a39.326,39.326,0,0,1-78.63,0c-.01-.3-.01-.61-.01-.92a39.323,39.323,0,0,1,78.54-2.89C207.36,434.92,207.39,435.89,207.39,436.86Z" style="fill:#f8ec7d"/><polygon points="196.13 35.81 186.07 76.08 165.93 76.08 155.87 35.81 196.13 35.81" style="fill:#6fe3ff"/><path d="M122.79,436.86c0,.31,0,.62-.01.92a39.331,39.331,0,0,1-78.64,0c-.01-.3-.01-.61-.01-.92a39.2,39.2,0,0,1,10.59-26.83l.22-.23a38.83,38.83,0,0,1,9-7.07c.25-.15.5-.29.75-.43a39.316,39.316,0,0,1,47.29,7.5l.22.23A39.152,39.152,0,0,1,122.79,436.86Z" style="fill:#f8ec7d"/><path d="M63.69,402.3l.25.43a38.83,38.83,0,0,0-9,7.07l-.22.23a39.2,39.2,0,0,0-10.59,26.83c0,.31,0,.62.01.92H20.01a4,4,0,0,1-4-4V406.3a4,4,0,0,1,4-4Z" style="fill:#af593c"/><path d="M478,332.828V322.77a15.763,15.763,0,0,0-.887-5.223L463.1,262H478a7,7,0,0,0,0-14H356.62a6.361,6.361,0,0,0-6.62,6.61V395H188.477a46.146,46.146,0,0,0-40.824,0H103.866a47.917,47.917,0,0,0-20.406-4.76A48.221,48.221,0,0,0,63.044,395H20.01A11.281,11.281,0,0,0,9,406.3v27.48A11.211,11.211,0,0,0,20.01,445h17.8a47.636,47.636,0,0,0,13.255,25.081A46.341,46.341,0,0,0,115.854,470a46.471,46.471,0,0,0,9.917-14.229,46.435,46.435,0,0,0,74.7,14.313A47.621,47.621,0,0,0,213.725,445H378.737a47.641,47.641,0,0,0,13.25,25.081,46.484,46.484,0,0,0,64.79.027A47.721,47.721,0,0,0,470.033,445H495.99a7.191,7.191,0,0,0,7.01-7.21V374.37A47,47,0,0,0,478,332.828Zm-14.389-11.566a5.645,5.645,0,0,0,.209.584,2.464,2.464,0,0,1,.18.924v5.287A47.676,47.676,0,0,0,455.99,327H426.26c-7.168,0-13.26-5.461-13.26-12.63V262h35.66ZM399,262v52.37c0,12.6,9,23.211,21,26.174V359H364V262ZM350,431H213.991c-1.035-8-4.044-15-8.655-22H350ZM130.863,409a57.8,57.8,0,0,0-5.088,8.7,56.907,56.907,0,0,0-5.105-8.7ZM23,409H46.246c-4.695,7-7.684,14-8.709,22H23Zm92.782,28.615a32.331,32.331,0,0,1-64.646-.063c-.007-.226-.006-.459-.006-.692a32.179,32.179,0,0,1,8.641-21.984l.254-.266a31.8,31.8,0,0,1,7.375-5.8c.047-.027.094-.054.14-.082.191-.114.382-.22.491-.282A32.434,32.434,0,0,1,83.46,404.54a31.883,31.883,0,0,1,15.4,3.9l.028.015a32.185,32.185,0,0,1,8.035,6.175l.167.174a32.193,32.193,0,0,1,8.7,22.051C115.79,437.093,115.791,437.326,115.782,437.615Zm52.093,31.575a32.452,32.452,0,0,1-32.217-31.638c-.006-.226.043-.459.043-.692a32.321,32.321,0,0,1,16.911-28.4c.009,0,.03-.01.039-.015a32.344,32.344,0,0,1,30.813,0l.03.015a31.962,31.962,0,0,1,16.62,26.027c.053.721-.114,1.52-.114,2.373v.836C200,455.069,185.272,469.19,167.875,469.19ZM457,437.7c-1,17.368-15.083,31.486-32.47,31.486a32.586,32.586,0,0,1-32.386-31.521c0-.046-.039-.093-.041-.14-.008-.218-.025-.451-.025-.669a32.394,32.394,0,0,1,64.7-2.373c.053.73.226,1.529.226,2.373Zm32-6.7H470.3a46.314,46.314,0,0,0-91.83,0H364V373h62.63c3.866,0,7.37-2.644,7.37-6.51V341h21.99A33.625,33.625,0,0,1,489,374.37Z" style="fill:#63316d"/><path d="M69,350.3a7,7,0,0,0,7-7V262.77a7,7,0,0,0-14,0V343.3A7,7,0,0,0,69,350.3Z" style="fill:#63316d"/><path d="M123,350.3a7,7,0,0,0,7-7V262.77a7,7,0,0,0-14,0V343.3A7,7,0,0,0,123,350.3Z" style="fill:#63316d"/><path d="M176,350.3a7,7,0,0,0,7-7V262.77a7,7,0,0,0-14,0V343.3A7,7,0,0,0,176,350.3Z" style="fill:#63316d"/><path d="M229,350.3a7,7,0,0,0,7-7V262.77a7,7,0,0,0-14,0V343.3A7,7,0,0,0,229,350.3Z" style="fill:#63316d"/><path d="M283,350.3a7,7,0,0,0,7-7V262.77a7,7,0,0,0-14,0V343.3A7,7,0,0,0,283,350.3Z" style="fill:#63316d"/><path d="M19.15,230.116c-.019.1-.032.2-.047.295-.023.134-.047.267-.062.4-.007.065-.008.132-.014.2-.013.17-.024.341-.025.513,0,.012,0,.023,0,.035V374.51c0,3.866,3.134,7.49,7,7.49H326c3.866,0,7-3.624,7-7.49V231.551c0-.229,0-.458,0-.685v-.023a3.245,3.245,0,0,0-.111-.606,7.045,7.045,0,0,0-.41-1.349.2.2,0,0,1-.012-.019c-.067-.161-.147-.317-.225-.472-.025-.047-.047-.1-.071-.144-.062-.115-.133-.224-.2-.335-.051-.085-.1-.171-.154-.253s-.1-.137-.151-.2c-.084-.117-.167-.234-.259-.346-.024-.03-.051-.057-.076-.086a6.918,6.918,0,0,0-1.533-1.343c-.155-.1-.314-.2-.479-.289-.012-.007-.027-.012-.04-.019q-.293-.156-.6-.284l.131,0L185,165.754v-8.01c10-3.64,18.27-13.775,18.27-25.684A27.3,27.3,0,0,0,183,105.846V83h3.07a6.962,6.962,0,0,0,6.791-5.264l10.06-40.25a6.778,6.778,0,0,0-1.275-5.9A6.9,6.9,0,0,0,196.13,29H155.87a6.863,6.863,0,0,0-6.791,8.554l10.06,40.206A6.942,6.942,0,0,0,165.93,83H169v28.93a7,7,0,0,0,7,7,13.13,13.13,0,1,1-13.13,13.13,7,7,0,0,0-7-7,6.882,6.882,0,0,0-6.86,7A26.757,26.757,0,0,0,171,158.67v7.043L23.525,225.067c-.011,0-.092.01-.1.015-.163.066-.354.141-.509.219-.056.028-.132.052-.187.082-.127.068-.258.145-.381.22-.077.048-.163.091-.237.141s-.15.11-.224.164c-.113.082-.229.162-.335.25-.01.007-.018.016-.028.024A6.909,6.909,0,0,0,19.2,229.9C19.189,229.974,19.166,230.044,19.15,230.116ZM164.834,43h22.332L180.6,69H171.4Zm12.855,135.439L290.649,225H62.109ZM319,368H33V239H319Z" style="fill:#63316d"/></g></svg>

