<?xml version="1.0" encoding="iso-8859-1"?>
<!-- Generator: Adobe Illustrator 19.0.0, SVG Export Plug-In . SVG Version: 6.00 Build 0)  -->
<svg version="1.1" id="Capa_1" xmlns="http://www.w3.org/2000/svg" xmlns:xlink="http://www.w3.org/1999/xlink" x="0px" y="0px"
	 viewBox="0 0 512 512" style="enable-background:new 0 0 512 512;" xml:space="preserve">
<g>
	<path style="fill:#EB7665;" d="M416.12,232.208c5.088-2.88,11.112-2.808,16.12,0.2l20.112,12.072
		c7.184,4.312,11.648,12.192,11.648,20.576V304h-16l-40-24v-33.872C408,240.288,411.032,235.08,416.12,232.208z"/>
	<path style="fill:#EB7665;" d="M344.12,184.208c5.088-2.88,11.112-2.8,16.12,0.2l20.112,12.072
		c7.184,4.312,11.648,12.192,11.648,20.576V256h-16l-40-24v-33.872C336,192.288,339.032,187.08,344.12,184.208z"/>
</g>
<path style="fill:#F2F2F2;" d="M308.496,193.384l200,136c2.192,1.488,3.504,3.968,3.504,6.616v40c0,2.568-1.232,4.984-3.328,6.488
	c-1.376,1-3.016,1.512-4.672,1.512c-0.848,0-1.704-0.136-2.528-0.408l-216-72L308.496,193.384z"/>
<polygon style="fill:#E6E6E6;" points="312,320 285.472,311.592 308.496,193.384 324.008,203.928 "/>
<path style="fill:#EB7665;" d="M508.776,329.36c2.032,1.512,3.224,3.888,3.224,6.416V376c0,2.584-1.248,5.016-3.36,6.512
	c-1.376,0.984-3,1.488-4.64,1.488c-0.88,0-1.768-0.144-2.616-0.44L464,370.616V296L508.776,329.36z"/>
<path style="fill:#B0594C;" d="M508.776,329.36c2.032,1.512,3.224,3.888,3.224,6.416V376c0,2.584-1.248,5.016-3.36,6.512
	c-1.376,0.984-3,1.488-4.64,1.488c-0.88,0-1.768-0.144-2.616-0.44L496,381.696V319.84L508.776,329.36z"/>
<g>
	<polygon style="fill:#E6E6E6;" points="416,328 416,354.664 400,349.336 400,328 	"/>
	<polygon style="fill:#E6E6E6;" points="352,312 368,312 368,338.664 352,333.336 	"/>
</g>
<g>
	<path style="fill:#B0594C;" d="M416.12,232.208c5.088-2.88,11.112-2.808,16.12,0.2l20.112,12.072
		c7.184,4.312,11.648,12.192,11.648,20.576V267l-51.384-32.112C413.64,233.864,414.8,232.952,416.12,232.208z"/>
	<path style="fill:#B0594C;" d="M344.12,184.208c5.088-2.88,11.112-2.808,16.12,0.2l20.112,12.072
		c7.184,4.312,11.648,12.192,11.648,20.576V219l-51.384-32.112C341.64,185.864,342.8,184.952,344.12,184.208z"/>
</g>
<g>
	<path style="fill:#EB7665;" d="M229.344,400.456l-104,36.568c-3.2,1.128-5.344,4.152-5.344,7.544V472c0,4.416,3.584,8,8,8h112
		L229.344,400.456z"/>
	<path style="fill:#EB7665;" d="M386.656,437.024l-104-36.568L272,480h112c4.416,0,8-3.584,8-8v-27.432
		C392,441.176,389.856,438.152,386.656,437.024z"/>
	<path style="fill:#EB7665;" d="M95.88,232.208c-5.088-2.88-11.112-2.808-16.12,0.2L59.656,244.48
		C52.464,248.792,48,256.672,48,265.056V304h16l40-24v-33.872C104,240.288,100.968,235.08,95.88,232.208z"/>
	<path style="fill:#EB7665;" d="M167.88,184.208c-5.088-2.88-11.112-2.8-16.12,0.2l-20.112,12.072
		C124.464,200.792,120,208.672,120,217.056V256h16l40-24v-33.872C176,192.288,172.968,187.08,167.88,184.208z"/>
</g>
<path style="fill:#F2F2F2;" d="M203.504,193.384l-200,136C1.312,330.872,0,333.352,0,336v40c0,2.568,1.232,4.984,3.328,6.488
	C4.704,383.488,6.344,384,8,384c0.848,0,1.704-0.136,2.528-0.408l216-72L203.504,193.384z"/>
<polygon style="fill:#E6E6E6;" points="200,320 226.528,311.592 203.504,193.384 187.992,203.928 "/>
<path style="fill:#EB7665;" d="M3.224,329.36C1.192,330.872,0,333.248,0,335.776V376c0,2.584,1.248,5.016,3.36,6.512
	C4.736,383.496,6.36,384,8,384c0.88,0,1.768-0.144,2.616-0.44L48,370.616V296L3.224,329.36z"/>
<path style="fill:#B0594C;" d="M3.224,329.36C1.192,330.872,0,333.248,0,335.776V376c0,2.584,1.248,5.016,3.36,6.512
	C4.736,383.496,6.36,384,8,384c0.88,0,1.768-0.144,2.616-0.44L16,381.696V319.84L3.224,329.36z"/>
<path style="fill:#F2F2F2;" d="M256,0c-37.088,0-64,30.28-64,72c0,0.248,0.008,0.496,0.032,0.736l38.656,417.48
	C231.84,502.632,242.112,512,254.584,512h2.832c12.472,0,22.744-9.368,23.896-21.784L320,72C320,30.28,293.088,0,256,0z"/>
<g>
	<path style="fill:#E6E6E6;" d="M282.344,85.656L256,59.312l-26.344,26.344l-11.312-11.312l32-32c3.128-3.128,8.184-3.128,11.312,0
		l32,32L282.344,85.656z"/>
	<rect x="280" y="160" style="fill:#E6E6E6;" width="24" height="16"/>
	<rect x="280" y="192" style="fill:#E6E6E6;" width="16" height="16"/>
	<rect x="280" y="224" style="fill:#E6E6E6;" width="16" height="16"/>
	<polygon style="fill:#E6E6E6;" points="288,128 288,144 313.336,144 314.816,128 	"/>
	<polygon style="fill:#E6E6E6;" points="224,128 197.152,128 198.632,144 224,144 	"/>
	<rect x="208" y="160" style="fill:#E6E6E6;" width="24" height="16"/>
	<rect x="216" y="192" style="fill:#E6E6E6;" width="16" height="16"/>
	<rect x="216" y="224" style="fill:#E6E6E6;" width="16" height="16"/>
</g>
<g>
	<rect x="168" y="464" style="fill:#B0594C;" width="16" height="16"/>
	<rect x="200" y="464" style="fill:#B0594C;" width="16" height="16"/>
	<rect x="296" y="464" style="fill:#B0594C;" width="16" height="16"/>
	<rect x="328" y="464" style="fill:#B0594C;" width="16" height="16"/>
</g>
<g>
	<polygon style="fill:#E6E6E6;" points="96,328 96,354.664 112,349.336 112,328 	"/>
	<polygon style="fill:#E6E6E6;" points="160,312 144,312 144,338.664 160,333.336 	"/>
	<path style="fill:#E6E6E6;" d="M256,440c-4.416,0-8,3.584-8,8v56c0,4.416,3.584,8,8,8c4.416,0,8-3.584,8-8v-56
		C264,443.584,260.416,440,256,440z"/>
</g>
<g>
	<path style="fill:#B0594C;" d="M95.88,232.208c-5.088-2.88-11.112-2.808-16.12,0.2L59.656,244.48
		C52.464,248.792,48,256.672,48,265.056V267l51.384-32.112C98.36,233.864,97.2,232.952,95.88,232.208z"/>
	<path style="fill:#B0594C;" d="M167.88,184.208c-5.088-2.88-11.112-2.808-16.12,0.2l-20.112,12.072
		C124.464,200.792,120,208.672,120,217.056V219l51.384-32.112C170.36,185.864,169.2,184.952,167.88,184.208z"/>
</g>
<g>
</g>
<g>
</g>
<g>
</g>
<g>
</g>
<g>
</g>
<g>
</g>
<g>
</g>
<g>
</g>
<g>
</g>
<g>
</g>
<g>
</g>
<g>
</g>
<g>
</g>
<g>
</g>
<g>
</g>
</svg>
