<svg id="Layer_1" height="512" viewBox="0 0 128 128" width="512" xmlns="http://www.w3.org/2000/svg" data-name="Layer 1"><path d="m12 27.751h104v72.497h-104z" fill="#0b55b1"/><path d="m64 27.751h-7.432l-18.568 12.944-18.568-12.944h-7.432v5.181l18.568 12.944-18.568 12.943v5.181h7.432l18.568-12.944 18.568 12.944h7.432v-5.181l-18.568-12.943 18.568-12.944z" fill="#f0f0f0"/><path d="m64 27.751h-.214l-25.786 17.975-25.786-17.975h-.214v2.353l24.205 16.873-24.205 16.874v.149h3.375l22.625-15.771 22.625 15.771h3.375v-.149l-24.205-16.874 24.205-16.873z" fill="#d60a2e"/><path d="m64 41.209h-21.333v-13.458h-9.334v13.458h-21.333v9.333h21.333v13.458h9.334v-13.458h21.333z" fill="#f0f0f0"/><path d="m36.833 60.5v-13.458h-21.333v-2.333h21.333v-13.458h2.334v13.458h21.333v2.333h-21.333v13.458z" fill="#d60a2e"/><g fill="#f0f0f0"><path d="m50.432 85.092-6.01-3.605 4.049-5.884-6.58 2.404-1.992-6.357-1.993 6.357-6.579-2.404 4.049 5.884-6.01 3.605 6.769.317-.949 7.085 4.713-5.187 4.713 5.187-.949-7.085z"/><path d="m79.647 61.908-2.234-1.341 1.505-2.187-2.446.893-.74-2.363-.741 2.363-2.446-.893 1.505 2.187-2.234 1.341 2.516.117-.353 2.634 1.753-1.928 1.752 1.928-.353-2.634z"/><path d="m95.223 46.504-2.234-1.341 1.505-2.187-2.446.894-.74-2.364-.741 2.364-2.446-.894 1.505 2.187-2.234 1.341 2.516.117-.353 2.635 1.753-1.929 1.752 1.929-.353-2.635z"/><path d="m108.366 58.033-2.234-1.341 1.505-2.187-2.446.894-.741-2.364-.741 2.364-2.446-.894 1.505 2.187-2.234 1.341 2.517.117-.353 2.635 1.752-1.929 1.752 1.929-.353-2.635z"/><path d="m101.149 67.611-1.614-.968 1.088-1.581-1.768.646-.535-1.708-.535 1.708-1.768-.646 1.088 1.581-1.615.968 1.819.085-.255 1.903 1.266-1.393 1.266 1.393-.255-1.903z"/><path d="m94.891 86.437-2.234-1.341 1.505-2.187-2.446.894-.741-2.364-.74 2.364-2.446-.894 1.505 2.187-2.234 1.341 2.516.117-.353 2.635 1.752-1.929 1.753 1.929-.353-2.635z"/></g><path d="m116 89.25a1.75 1.75 0 0 0 -1.75 1.75v1.494a1.75 1.75 0 0 0 3.5 0v-1.494a1.75 1.75 0 0 0 -1.75-1.75z"/><path d="m116 26h-30.083a1.75 1.75 0 0 0 0 3.5h28.333v53.667a1.75 1.75 0 0 0 3.5 0v-55.416a1.751 1.751 0 0 0 -1.75-1.751z"/><path d="m78.667 29.5h.979a1.75 1.75 0 0 0 0-3.5h-.979a1.75 1.75 0 0 0 0 3.5z"/><path d="m116 98.5h-102.25v-69h58.066a1.75 1.75 0 0 0 0-3.5h-59.816a1.751 1.751 0 0 0 -1.75 1.75v72.5a1.751 1.751 0 0 0 1.75 1.75h104a1.75 1.75 0 0 0 0-3.5z"/></svg>