<svg id="Layer_1" height="512" viewBox="0 0 128 128" width="512" xmlns="http://www.w3.org/2000/svg" data-name="Layer 1"><path d="m12 27.751h104v72.497h-104z" fill="#f0f0f0"/><path d="m12 64h104v36.249h-104z" fill="#d60a2e"/><path d="m12 27.751h34.667v36.249h-34.667z" fill="#0b55b1"/><path d="m41.162 43.22-9.174.211-2.655-8.805-2.654 8.805-9.174-.211 7.498 5.38-2.98 8.525 7.31-5.102 7.311 5.102-2.98-8.525z" fill="#f0f0f0"/><path d="m106.5 98.5h-1a1.75 1.75 0 0 0 0 3.5h1a1.75 1.75 0 0 0 0-3.5z"/><path d="m116 26h-44.188a1.75 1.75 0 0 0 0 3.5h42.438v70.748a1.75 1.75 0 0 0 3.5 0v-72.5a1.75 1.75 0 0 0 -1.75-1.748z"/><path d="m64.667 29.5h.646a1.75 1.75 0 0 0 0-3.5h-.646a1.75 1.75 0 0 0 0 3.5z"/><path d="m107.5 62.25h-93.75v-32.75h31.167v27.417a1.75 1.75 0 0 0 3.5 0v-27.417h9.25a1.75 1.75 0 0 0 0-3.5h-45.667a1.75 1.75 0 0 0 -1.75 1.75v72.5a1.75 1.75 0 0 0 1.75 1.75h86.833a1.75 1.75 0 0 0 0-3.5h-85.083v-32.75h93.75a1.75 1.75 0 0 0 0-3.5z"/></svg>