<svg id="Layer_3" enable-background="new 0 0 64 64" height="512" viewBox="0 0 64 64" width="512" xmlns="http://www.w3.org/2000/svg"><g><path d="m46 62h-44v-60h36v8h8z" fill="#3c98f4"/><path d="m55 46h-3l-5 6-5-6h-3c-3.866 0-7 3.134-7 7v9h30v-9c0-3.866-3.134-7-7-7z" fill="#c7e2fb"/><path d="m52 46-5 6-5-6h-3c-3.866 0-7 3.134-7 7v4.747c1.307.164 2.641.253 4 .253 9.595 0 18.059-4.225 23.104-10.662-1.154-.838-2.569-1.338-4.104-1.338z" fill="#ebf7fe"/><path d="m38.025 46.076 2.975 8.924 6-3-5-6h-3.001c-.331 0-.655.031-.974.076z" fill="#4472b0"/><g><path d="m47 52-2.8 1.4 1.8 3.6h2l1.8-3.6z" fill="#2d4d81"/></g><path d="m55.975 46.076c-.319-.045-.643-.076-.974-.076h-3.001l-5 6 6 3z" fill="#4472b0"/><path d="m47 44c-1.851 0-3.57-.56-5-1.518v3.518l5 6 5-6v-3.518c-1.43.958-3.149 1.518-5 1.518z" fill="#efbe9c"/><path d="m50 62-2-5h-2l-2 5z" fill="#4472b0"/><path d="m56 33v2c0 4.971-4.029 9-9 9-4.971 0-9-4.029-9-9v-2h6c1.889 0 3.667-.889 4.8-2.4l1.2-1.6 1.2 1.6c1.133 1.511 2.911 2.4 4.8 2.4z" fill="#efbe9c"/><path d="m38 35v-2h-1.5c-1.381 0-2.5 1.119-2.5 2.5s1.119 2.5 2.5 2.5h2.023c-.333-.94-.523-1.946-.523-3z" fill="#efbe9c"/><g><path d="m47 20c-5.523 0-10 4.477-10 10v3h1 6c1.889 0 3.667-.889 4.8-2.4l1.2-1.6 1.2 1.6c1.133 1.511 2.911 2.4 4.8 2.4h1v-3c0-5.523-4.477-10-10-10z" fill="#976949"/></g><path d="m57.5 33h-1.5v2c0 1.054-.19 2.06-.523 3h2.023c1.381 0 2.5-1.119 2.5-2.5s-1.119-2.5-2.5-2.5z" fill="#efbe9c"/><g fill="#8ac1f8"><path d="m46 10-8-8v8z"/><path d="m6 10h8v8h-8z"/><path d="m6 22h8v8h-8z"/><path d="m6 34h8v8h-8z"/><path d="m6 46h8v8h-8z"/></g><g><path d="m62 63c.553 0 1-.448 1-1v-9c0-4.411-3.589-8-8-8h-2v-2.019c1.367-1.03 2.464-2.395 3.159-3.981h1.341c1.93 0 3.5-1.57 3.5-3.5 0-1.758-1.308-3.204-3-3.449v-2.051c0-6.065-4.935-11-11-11v-9c0-.277-.112-.527-.294-.708l-7.998-7.998c-.181-.182-.431-.294-.708-.294h-36c-.553 0-1 .448-1 1v60c0 .552.447 1 1 1zm-20.469-16 3.892 4.67-3.839 1.92-2.197-6.59zm5.146 11h.645l1.2 3h-3.045zm.705-2h-.764l-1.076-2.153 1.458-.729 1.458.729zm1.195-4.33 3.892-4.67h2.144l-2.197 6.59zm2.423-6.032-4 4.8-4-4.8v-1.479c1.226.538 2.578.841 4 .841s2.774-.303 4-.841zm4-10.638c0 4.411-3.589 8-8 8s-8-3.589-8-8v-1h5c2.191 0 4.285-1.047 5.6-2.8l.4-.534.4.534c1.112 1.484 2.783 2.462 4.6 2.727zm4 .5c0 .827-.673 1.5-1.5 1.5h-.702c.132-.646.202-1.315.202-2v-1h.5c.827 0 1.5.673 1.5 1.5zm-3-5.5v2c-1.565 0-3.061-.748-4-2l-1.2-1.6c-.377-.504-1.223-.504-1.6 0l-1.2 1.6c-.939 1.252-2.435 2-4 2h-6v-2c0-4.962 4.037-9 9-9s9 4.038 9 9zm-18.798 7h-.702c-.827 0-1.5-.673-1.5-1.5s.673-1.5 1.5-1.5h.5v1c0 .685.07 1.354.202 2zm1.798-32.586 4.586 4.586h-4.586zm-36-1.414h34v7c0 .552.447 1 1 1h7v8.191c-5.112.944-9 5.427-9 10.809v2.051c-1.527.221-2.728 1.423-2.949 2.949h-14.051v2h14.351c.564 1.178 1.758 2 3.149 2h1.341c.695 1.586 1.793 2.951 3.159 3.981v2.019h-2c-2.021 0-3.864.759-5.274 2h-14.726v2h13.082c-.36.619-.635 1.29-.819 2h-12.263v2h12v8h-28zm30 50c0-2.739 1.846-5.049 4.358-5.766l2.694 8.082c.091.275.298.497.565.607.123.052.253.077.383.077.153 0 .307-.035.447-.105l2.305-1.153 1.152 2.304-1.581 3.954h-10.323zm28 8h-10.323l-1.582-3.955 1.152-2.304 2.305 1.153c.141.071.295.106.448.106.13 0 .26-.025.383-.076.268-.111.475-.333.565-.607l2.694-8.082c2.512.716 4.358 3.026 4.358 5.765z"/><path d="m13.586 9h-7.586c-.553 0-1 .448-1 1v8c0 .552.447 1 1 1h8c.553 0 1-.448 1-1v-7.586l2.707-2.707-1.414-1.414zm-.586 8h-6v-6h4.586l-3.293 3.293 1.414 1.414 3.293-3.293z"/><path d="m13.586 21h-7.586c-.553 0-1 .448-1 1v8c0 .552.447 1 1 1h8c.553 0 1-.448 1-1v-7.586l2.707-2.707-1.414-1.414zm-.586 8h-6v-6h4.586l-3.293 3.293 1.414 1.414 3.293-3.293z"/><path d="m13.586 33h-7.586c-.553 0-1 .448-1 1v8c0 .552.447 1 1 1h8c.553 0 1-.448 1-1v-7.586l2.707-2.707-1.414-1.414zm-.586 8h-6v-6h4.586l-3.293 3.293 1.414 1.414 3.293-3.293z"/><path d="m16.293 42.293-2.707 2.707h-7.586c-.553 0-1 .448-1 1v8c0 .552.447 1 1 1h8c.553 0 1-.448 1-1v-7.586l2.707-2.707zm-3.293 10.707h-6v-6h4.586l-3.293 3.293 1.414 1.414 3.293-3.293z"/><path d="m19 11h16v2h-16z"/><path d="m19 15h16v2h-16z"/><path d="m19 23h16v2h-16z"/><path d="m19 27h16v2h-16z"/><path d="m19 39h16v2h-16z"/></g></g></svg>