<svg height="512pt" viewBox="-31 0 511 512" width="512pt" xmlns="http://www.w3.org/2000/svg"><path d="m286.933594 368.667969-14.542969-70.539063v-67.125h-95.507813v67.125l-14.542968 70.539063zm0 0" fill="#bb5d4c"/><path d="m242.382812 231.003906v137.664063h44.550782l-14.542969-70.539063v-67.125zm0 0" fill="#a44f3e"/><path d="m73.710938 318.191406c-38.960938 11.46875-65.707032 31.820313-65.707032 72.433594v87.441406c0 14.597656 11.832032 26.433594 26.429688 26.433594h380.40625c14.597656 0 26.429687-11.835938 26.429687-26.433594v-87.441406c0-40.613281-26.746093-60.964844-65.707031-72.433594l-103.171875-20.0625c0 26.375-47.753906 47.753906-47.753906 47.753906s-47.753907-21.378906-47.753907-47.753906zm0 0" fill="#deecf1"/><path d="m375.5625 318.191406-10.753906-2.089844c28.242187 12.3125 46.453125 32.019532 46.453125 65.519532v122.878906h3.574219c14.601562 0 26.433593-11.835938 26.433593-26.433594v-87.441406c0-40.613281-26.746093-60.964844-65.707031-72.433594zm0 0" fill="#a8d3d8"/><path d="m176.882812 298.128906-38.664062 7.515625c2.300781 21.425781 21.3125 40.800781 40.921875 55.371094 5.492187 4.078125 12.917969 4.398437 18.789063.878906l26.707031-16.011719s-47.753907-21.378906-47.753907-47.753906zm0 0" fill="#8ebac5"/><path d="m272.390625 298.128906c0 26.375-47.753906 47.753906-47.753906 47.753906l26.707031 16.011719c5.867188 3.519531 13.296875 3.199219 18.789062-.878906 19.605469-14.570313 38.621094-33.945313 40.917969-55.371094zm0 0" fill="#8ebac5"/><path d="m224.636719 504.5s0-24.199219 0-45.101562c0-18.960938-5.832031-37.449219-16.710938-52.980469-25.121093-35.859375-69.707031-100.769531-69.707031-100.773438l-38.757812 7.539063v44.011718c0 13.4375-3.476563 26.648438-10.09375 38.34375-6.863282 12.140626-10.324219 25.898438-10.066407 39.839844l.058594 69.121094zm0 0" fill="#ff9838"/><path d="m224.636719 504.5s0-24.199219 0-45.101562c0-18.960938 5.832031-37.449219 16.710937-52.980469 25.121094-35.859375 69.703125-100.769531 69.707032-100.773438l38.757812 7.539063v44.011718c0 13.4375 3.476562 26.648438 10.089844 38.34375 6.863281 12.140626 10.328125 25.898438 10.070312 39.839844l-.0625 69.121094zm0 0" fill="#ff8709"/><path d="m319.605469 144.125h-6.058594v-24.132812c0-24.023438-9.863281-47.304688-28.070313-62.980469-14.273437-12.289063-34.335937-23.015625-60.839843-23.3125-26.503907.296875-46.566407 11.023437-60.839844 23.3125-18.207031 15.675781-28.070313 38.957031-28.070313 62.980469v24.132812h-6.0625c-8.886718 0-16.089843 7.203125-16.089843 16.09375v17.832031c0 8.886719 7.203125 16.089844 16.089843 16.089844h6.085938c.503906 23.351563 10.316406 45.832031 28.046875 61.097656 14.273437 12.289063 34.335937 23.015625 60.839844 23.3125 26.503906-.296875 46.566406-11.023437 60.839843-23.3125 17.726563-15.265625 27.542969-37.746093 28.042969-61.097656h6.085938c8.886719 0 16.089843-7.203125 16.089843-16.089844v-17.832031c.003907-8.890625-7.203124-16.09375-16.089843-16.09375zm0 0" fill="#bb5d4c"/><path d="m319.605469 144.125h-6.058594v-24.132812c0-24.023438-9.863281-47.304688-28.070313-62.980469-.472656-.40625-.957031-.8125-1.445312-1.21875l-.019531 147.101562c-.5 23.351563-10.3125 45.832031-28.042969 61.097657-5.933594 5.109374-12.867188 9.941406-20.847656 13.875 21.382812-2.570313 38.027344-12.015626 50.355468-22.628907 17.726563-15.265625 27.542969-37.742187 28.042969-61.09375h6.085938c8.886719 0 16.089843-7.207031 16.089843-16.09375v-17.832031c.003907-8.890625-7.203124-16.09375-16.089843-16.09375zm0 0" fill="#a44f3e"/><path d="m229.242188 7.5h-9.214844c-56 0-101.394532 45.394531-101.394532 101.394531v29.195313h212.007813v-29.195313c0-56-45.398437-101.394531-101.398437-101.394531zm0 0" fill="#ff9838"/><path d="m229.242188 7.5h-9.214844c-3.558594 0-7.070313.191406-10.535156.550781 51.023437 5.292969 90.808593 48.421875 90.808593 100.84375v29.195313h30.339844v-29.195313c0-56-45.398437-101.394531-101.398437-101.394531zm0 0" fill="#ff8709"/><path d="m334.988281 153.714844h-220.707031c-8.183594 0-14.820312-6.636719-14.820312-14.824219s6.636718-14.824219 14.820312-14.824219h220.707031c8.1875 0 14.824219 6.636719 14.824219 14.824219s-6.636719 14.824219-14.824219 14.824219zm0 0" fill="#ff8709"/><path d="m237.597656 71.0625v-63.21875c-2.753906-.222656-5.539062-.34375-8.351562-.34375h-9.21875c-2.8125 0-5.597656.121094-8.351563.34375v63.21875c0 7.160156 25.921875 7.160156 25.921875 0zm0 0" fill="#ffaa5c"/><path d="m292.035156 48.054688v-18.773438c-7.796875-6.15625-16.515625-11.191406-25.921875-14.867188v33.640626c0 7.160156 25.921875 7.160156 25.921875 0zm0 0" fill="#ffaa5c"/><path d="m283.589844 53.121094c4.667968-.648438 8.445312-2.332032 8.445312-5.066406v-18.773438c-.914062-.722656-1.847656-1.429688-2.785156-2.121094-.132812-.097656-.269531-.195312-.402344-.292968-1.871094-1.363282-3.792968-2.664063-5.761718-3.898438-.136719-.085938-.273438-.171875-.40625-.253906-1.984376-1.234375-4.007813-2.398438-6.078126-3.492188-.132812-.070312-.261718-.136718-.394531-.207031-2.089843-1.09375-4.222656-2.117187-6.390625-3.066406-.125-.050781-.246094-.105469-.367187-.160157-1.101563-.476562-2.214844-.9375-3.335938-1.375v18.5625c6.667969 5.910157 12.550781 12.683594 17.476563 20.144532zm0 0" fill="#ff9838"/><path d="m183.160156 48.054688v-33.640626c-9.40625 3.675782-18.128906 8.707032-25.925781 14.867188v18.773438c0 7.160156 25.925781 7.160156 25.925781 0zm0 0" fill="#ffaa5c"/><path d="m288.535156 474.554688h81.414063l.011719-34.507813h-81.425782c-2.34375 0-4.246094 1.898437-4.246094 4.242187v26.015626c0 2.347656 1.902344 4.25 4.246094 4.25zm0 0" fill="#fff156"/><path d="m79.289062 474.554688h81.414063c2.34375 0 4.246094-1.902344 4.246094-4.246094l.007812-26.015625c0-2.34375-1.902343-4.246094-4.246093-4.246094h-81.421876c0-.003906 0 25.710937 0 34.507813zm0 0" fill="#fff156"/><path d="m448.769531 418.109375v-27.484375c0-33.820312-17.046875-57.777344-51.976562-72.808594-21.53125-9.265625-33.332031-8.878906-116.902344-25.871094v-23.003906c25.0625-16.898437 38.082031-40.941406 40.6875-67.320312 12.5625-.511719 22.621094-10.890625 22.621094-23.570313v-17.832031c0-.1875-.003907-.375-.007813-.5625 8.261719-3.277344 14.121094-11.347656 14.121094-20.765625 0-11.238281-8.351562-20.566406-19.171875-22.101563v-7.894531c0-60.140625-48.753906-108.894531-108.898437-108.894531h-9.214844c-60.140625 0-108.894532 48.753906-108.894532 108.894531v7.894531c-10.824218 1.535157-19.171874 10.863282-19.171874 22.101563 0 9.417969 5.855468 17.488281 14.117187 20.765625-.003906.1875-.003906.375-.003906.5625v17.832031c0 12.679688 10.058593 23.058594 22.617187 23.570313 2.601563 26.324218 15.496094 50.332031 40.6875 67.316406v23.007812c-83.683594 17.015626-95.347656 16.597657-116.898437 25.871094-34.933594 15.03125-51.980469 38.988282-51.980469 72.804688v87.441406c0 18.746094 15.195312 33.9375 33.9375 33.9375h380.398438c18.742187 0 33.9375-15.191406 33.9375-33.933594v-29.949218c0-9.917969-15.003907-9.933594-15.003907 0v29.949218c0 10.453125-8.476562 18.929688-18.933593 18.929688h-37.417969c-2.027344-53.363282 5.863281-75.355469-10.984375-105.148438-13.542969-23.953125-7.722656-43.441406-9.121094-69.5625 3.007812 1.398438 76.457031 6.59375 76.457031 68.335938v27.488281c0 9.917969 15 9.933594 15 0zm-150.378906-107.285156c-27.757813 40.351562-27.117187 40.171875-31.835937 43.515625-3.445313 2.4375-6.898438 3.792968-11.355469 1.121094l-15.164063-9.09375c13.429688-7.707032 33.277344-21.707032 38.539063-39.394532zm-211.578125 136.722656h70.640625l-.003906 19.503906h-70.621094zm.03125 34.507813h73.859375c6.476563 0 11.746094-5.269532 11.746094-11.746094-.855469-22.699219 2.253906-28.636719-3.429688-34.324219-6.039062-6.039063-7.195312-2.296875-82.214843-3.441406.230468-11.691407 3.351562-23.152344 9.097656-33.3125 16.214844-28.679688 9.480468-52.125 11.0625-79.863281l27.867187-5.421876c5.78125 8.488282 46.925781 68.195313 66.949219 96.777344 10.042969 14.335938 15.351562 31.167969 15.355469 48.675782v37.597656h-130.28125zm122.390625-135.683594-15.164063 9.089844c-6.460937 3.878906-13.382812-1.398438-17.636718-7.5625-10.28125-14.886719-19.640625-28.480469-25.550782-37.074219l19.816407-3.851563c5.257812 17.6875 25.109375 31.6875 38.535156 39.398438zm15.402344 75.007812c-2.78125-6.738281-6.3125-13.191406-10.570313-19.265625-6.246094-8.921875-13.652344-19.566406-21.261718-30.546875 7.917968-1.199218 10.722656-4.835937 31.832031-16.9375 20.996093 12.039063 23.9375 15.742188 31.832031 16.9375-7.609375 10.980469-15.015625 21.625-21.265625 30.546875-4.253906 6.074219-7.789063 12.527344-10.566406 19.265625zm48.976562-395.214844c3.804688 2.050782 7.453125 4.351563 10.921875 6.886719v12.308594c-2.859375.761719-8.0625.761719-10.921875 0zm-43.515625-11.15625v53.359376c-2.863281.761718-8.0625.761718-10.921875 0v-53.359376c.71875-.007812 10.183594-.007812 10.921875 0zm-65.359375 18.042969c3.46875-2.535156 7.113281-4.835937 10.917969-6.886719v19.195313c-2.859375.761719-8.058594.761719-10.917969 0zm-15.003906 13.664063v1.34375c0 17.328125 40.925781 17.363281 40.925781 0v-28.351563c4.375-1.445312 8.886719-2.574219 13.511719-3.363281v54.722656c0 17.210938 40.929687 17.421875 40.929687 0v-54.722656c4.625.789062 9.136719 1.917969 13.507813 3.363281v28.351563c0 17.328125 40.929687 17.363281 40.929687 0v-1.34375c27.878907 31.480468 23.046876 66.550781 23.597657 69.851562h-197c.558593-3.339844-4.398438-38.242187 23.597656-69.851562zm-6.480469 147.265625c-.207031-9.675781-12.191406-7.003907-13.589844-7.339844-4.734374 0-8.585937-3.855469-8.585937-8.589844v-16.832031h31.953125c9.917969 0 9.929688-15.003906 0-15.003906h-38.746094c-4.039062 0-7.320312-3.285156-7.320312-7.324219 0-4.035156 3.28125-7.320313 7.320312-7.320313h220.703125c4.039063 0 7.320313 3.285157 7.320313 7.320313 0 4.039063-3.28125 7.324219-7.320313 7.324219h-151.953125c-9.917968 0-9.929687 15.003906 0 15.003906h145.160156v16.832031c0 4.734375-3.851562 8.589844-8.589843 8.589844-1.546875.371094-13.378907-2.304687-13.585938 7.339844-.988281 46.074219-39.863281 76.570312-81.382812 77.070312-41.398438-.5-80.394531-30.882812-81.382813-77.070312zm81.296875 92.074219h.167969c14.25-.160157 27.679688-3.085938 40.167969-8.726563v20.800781c0 8.117188-7.308594 17.902344-20.585938 27.554688-7.6875 5.585937-15.5 9.78125-19.664062 11.871094-4.167969-2.089844-11.980469-6.285157-19.667969-11.871094-13.273438-9.652344-20.585938-19.4375-20.585938-27.554688v-20.800781c12.488282 5.640625 25.921876 8.566406 40.167969 8.726563zm-209.046875 192.011718v-87.441406c0-32.746094 18.503906-52.84375 59.988282-65.136719l16.46875-3.203125c-1.398438 26.167969 4.417968 45.621094-9.121094 69.5625-16.878906 29.851563-8.960938 51.90625-10.988282 105.148438h-37.414062c-10.441406 0-18.933594-8.492188-18.933594-18.929688zm346.9375-11.015625h-70.652344v-19.503906h70.667969zm-9.070312-67.820312c5.746094 10.160156 8.867187 21.621093 9.097656 33.3125h-73.933594c-6.476562 0-11.746094 5.269531-11.746094 11.746093v26.015626c0 6.476562 5.269532 11.75 11.746094 11.75h73.894532l-.015626 14.941406h-130.277343v-37.597656c0-17.503907 5.3125-34.339844 15.355469-48.675782 19.777343-28.234375 61.4375-88.6875 66.949218-96.773437l27.867188 5.417969c1.59375 27.898437-5.15625 51.183593 11.0625 79.863281zm0 0"/></svg>