<svg id="Capa_1" enable-background="new 0 0 512 512" height="512" viewBox="0 0 512 512" width="512" xmlns="http://www.w3.org/2000/svg"><g><g><g><g><path d="m350.056 206.007c0 24.753-20.067 44.819-44.82 44.819l-49.236-.564-47.367.564c-24.754 0-44.82-20.066-44.82-44.819v-105.388c0-51.428 41.692-93.119 93.121-93.119 51.43 0 93.121 41.691 93.121 93.119v105.388z" fill="#6e4848"/></g><g><g><path d="m256.935 7.5c-4.352 0-8.632.305-12.825.883 45.36 6.249 80.297 45.159 80.297 92.236v105.388c0 23.181-17.6 42.25-40.165 44.579l20.995.241c24.753 0 44.82-20.066 44.82-44.819v-105.389c-.001-51.428-41.693-93.119-93.122-93.119z" fill="#633c3e"/></g></g><g><path d="m164.639 435.241c-35.76.007-64.752-28.98-64.752-64.738v-32.76c0-22.607 13.551-43.012 34.388-51.781l121.725-52.923 122.691 52.586c20.319 9.004 33.421 29.139 33.421 51.364v33.481c0 35.749-28.978 64.732-64.728 64.738z" fill="#fee07d"/></g><g><path d="m256 233.039-72.86 31.677v.002l69.452 60.672c2.469 2.157 6.152 2.157 8.621.002l69.239-60.438v-.004z" fill="#ffc269"/></g><g><path d="m299.068 251.798-43.082 37.607-43.054-37.607v-40.678h86.136z" fill="#f7d4ad"/></g><g><path d="m337.836 157.137h-13.413v-41.17h13.413c5.717 0 10.351 4.634 10.351 10.351v20.467c0 5.718-4.634 10.352-10.351 10.352z" fill="#ecbd83"/></g><g><path d="m174.164 157.137h13.413v-41.17h-13.413c-5.717 0-10.351 4.634-10.351 10.351v20.467c0 5.718 4.634 10.352 10.351 10.352z" fill="#ecbd83"/></g><g><path d="m212.932 226.735c11.759 9.535 26.737 15.256 43.058 15.256 16.33 0 31.316-5.73 43.077-15.278v-15.593h-86.135z" fill="#ecbd83"/></g><g><path d="m324.407 115.967v43.016c0 37.609-29.925 68.953-67.531 69.428-38.203.483-69.311-30.337-69.311-68.418v-44.025c2.413-.391 9.236-1.824 14.942-7.746 1.881-1.952 3.241-3.978 4.227-5.829l13.223-26.24c1.881-7.764 4.198-12.602 11.011-8.429l68.1 41.709" fill="#f7d4ad"/></g><g><path d="m324.407 115.967c-7.742 2.255-15.934 3.467-24.409 3.467-38.69 0-71.489-25.244-82.819-60.156 10.061-1.65 31.969-3.748 55.565 6.703 20.146 8.924 32.158 22.848 37.811 29.544 6.563 7.776 10.995 15.093 13.852 20.442z" fill="#6e4848"/></g></g><g><circle cx="256.12" cy="435.224" fill="#b2e59f" r="69.277"/></g><g><path d="m256.12 365.948c-3.925 0-7.768.343-11.515.97 32.778 5.486 57.763 33.97 57.763 68.305s-24.985 62.819-57.763 68.305c3.747.627 7.59.97 11.515.97 38.261 0 69.277-31.016 69.277-69.276 0-38.258-31.017-69.274-69.277-69.274z" fill="#95d5a4"/></g></g><g><path d="m381.647 278.73-56.661-24.286c19.086-7.811 32.571-26.575 32.571-48.439v-105.39c0-26.874-10.466-52.141-29.472-71.147-19.015-19.003-44.284-29.468-71.154-29.468-55.48 0-100.617 45.136-100.617 100.615v105.391c0 21.673 13.247 40.308 32.106 48.24l-57.048 24.805c-23.68 9.958-38.98 32.995-38.98 58.688v32.766c0 38.639 29.952 70.099 68.399 72.11.434.078.879.126 1.336.126.259 0 .515-.013.767-.039.583.015 1.167.034 1.75.034h15.07c3.788 38.822 36.605 69.264 76.405 69.264 20.929 0 40.487-8.268 55.072-23.281 2.887-2.971 2.818-7.719-.152-10.605-2.973-2.887-7.721-2.817-10.605.153-11.737 12.08-27.475 18.733-44.315 18.733-34.049 0-61.75-27.687-61.776-61.729 0-.012.002-.023.002-.035 0-.014-.002-.028-.002-.043.017-34.049 27.722-61.745 61.776-61.745 34.056 0 61.763 27.699 61.777 61.751v.007c0 .006.001.012.001.019 0 6.27-.934 12.451-2.775 18.372-1.23 3.955.979 8.159 4.934 9.389 3.954 1.23 8.159-.98 9.389-4.934 1.553-4.992 2.574-10.13 3.079-15.346h14.864c.588 0 1.178-.01 1.763-.026.297.036.599.06.906.06.568 0 1.119-.069 1.65-.188 38.183-2.247 67.903-33.644 67.903-72.087v-33.476c-.001-25.172-14.869-48.026-37.963-58.259zm-161.219-30.34v-21.344c10.616 5.653 22.719 8.87 35.563 8.87 12.852 0 24.961-3.221 35.582-8.882v21.355l-35.581 31.061zm86.144-5.094v-26.749c14.455-12.945 23.93-31.332 25.178-51.91h6.085c1.637 0 3.215-.24 4.722-.654v42.023c.001 20.158-16.067 36.624-35.985 37.29zm25.351-93.659v-26.17h5.913c1.572 0 2.852 1.279 2.852 2.852v20.467c0 1.572-1.279 2.852-2.852 2.852h-5.913zm-74.992-134.637c22.865 0 44.369 8.906 60.55 25.076 16.171 16.171 25.077 37.671 25.077 60.539v8.507c-1.507-.414-3.085-.654-4.722-.654h-13.281c-.75-.017-1.527.09-2.246.299-7.216 2.102-14.722 3.167-22.311 3.167-34.6 0-65.015-22.091-75.686-54.971-1.278-3.94-5.507-6.095-9.449-4.819-3.939 1.279-6.097 5.509-4.818 9.449 12.684 39.083 48.833 65.341 89.953 65.341 5.693 0 11.35-.509 16.908-1.512v34.571c0 33.594-27.327 60.924-60.916 60.924-33.595 0-60.926-27.33-60.926-60.924l.013-38.278c3.968-1.444 8.648-3.949 12.832-8.291 2.149-2.231 3.98-4.757 5.444-7.507 1.946-3.656.561-8.198-3.096-10.145-3.659-1.948-8.198-.559-10.145 3.097-.812 1.523-1.823 2.92-3.008 4.149-3.515 3.649-7.709 4.971-10.201 5.45h-12.741c-.973 0-1.92.099-2.851.25v-8.102c.002-47.209 38.411-85.616 85.62-85.616zm-85.618 111.309c.005-1.568 1.282-2.842 2.851-2.842h5.9v26.17h-5.9c-1.569 0-2.845-1.274-2.851-2.842zm0 79.697v-41.618c.931.15 1.878.25 2.851.25h6.056c1.25 20.59 10.736 38.986 25.208 51.932v26.611c-19.082-1.634-34.115-17.678-34.115-37.175zm233.296 164.459c0 28.15-20.106 51.533-47.054 56.327v-80.561c0-4.142-3.357-7.5-7.5-7.5s-7.5 3.358-7.5 7.5v81.475h-10.032c-3.791-38.818-36.607-69.258-76.405-69.258-39.808 0-72.63 30.455-76.407 69.288h-10.086v-81.505c0-4.142-3.357-7.5-7.5-7.5s-7.5 3.358-7.5 7.5v80.629c-27.035-4.704-47.235-28.109-47.235-56.355v-32.766c0-19.641 11.695-37.25 29.879-44.897l44.511-19.353 13.946 12.183c1.423 1.242 3.181 1.852 4.932 1.852 2.09 0 4.168-.868 5.651-2.566 2.725-3.119 2.405-7.857-.714-10.583l-8.591-7.505 14.541-6.322 39.512 34.507c1.413 1.234 3.173 1.851 4.934 1.851 1.76 0 3.52-.617 4.933-1.85l39.76-34.708 15.856 6.796-59.635 52.054-28.965-25.304c-3.12-2.724-7.856-2.405-10.583.714-2.725 3.119-2.405 7.857.714 10.583l29.588 25.847c2.636 2.303 5.94 3.454 9.246 3.454 3.304 0 6.607-1.15 9.241-3.449l65.692-57.342 43.817 18.78c17.59 7.794 28.955 25.265 28.955 44.508v33.476z"/><path d="m278.184 409.836-37.801 37.8-10.046-10.046c-2.93-2.929-7.678-2.929-10.607 0s-2.929 7.678 0 10.606l15.35 15.35c1.465 1.465 3.384 2.197 5.304 2.197 1.919 0 3.839-.732 5.303-2.197l43.104-43.103c2.93-2.929 2.93-7.677.001-10.606-2.931-2.929-7.679-2.93-10.608-.001z"/></g></g></svg>