<svg id="Layer_1" height="512" viewBox="0 0 128 128" width="512" xmlns="http://www.w3.org/2000/svg" data-name="Layer 1"><path d="m12 27.751h104v72.497h-104z" fill="#f0f0f0"/><path d="m12 27.751h34.667v72.497h-34.667z" fill="#6fa44a"/><path d="m81.333 27.751h34.667v72.497h-34.667z" fill="#b80016"/><path d="m116 26h-81.125a1.75 1.75 0 0 0 0 3.5h10.042v69h-31.167v-69h5a1.75 1.75 0 0 0 0-3.5h-6.75a1.751 1.751 0 0 0 -1.75 1.75v72.5a1.751 1.751 0 0 0 1.75 1.75h95.5a1.75 1.75 0 0 0 0-3.5h-24.417v-7.375a1.75 1.75 0 0 0 -3.5 0v7.375h-31.166v-69h65.833v70.748a1.75 1.75 0 0 0 3.5 0v-72.5a1.75 1.75 0 0 0 -1.75-1.748z"/><path d="m26 29.5h1.125a1.75 1.75 0 0 0 0-3.5h-1.125a1.75 1.75 0 0 0 0 3.5z"/><path d="m83.083 36.333a1.75 1.75 0 0 0 -3.5 0v39.542a1.75 1.75 0 0 0 3.5 0z"/><path d="m81.333 81.25a1.75 1.75 0 0 0 -1.75 1.75v1.5a1.75 1.75 0 0 0 3.5 0v-1.5a1.75 1.75 0 0 0 -1.75-1.75z"/></svg>