<svg id="Layer_1" height="512" viewBox="0 0 512 512" width="512" xmlns="http://www.w3.org/2000/svg" data-name="Layer 1"><path d="m419.33 93.67 2.33 25.61-12.91 6.12a79.059 79.059 0 0 1 -7.12 23.35l7.25 12.18-16.37 19.82-13.44-4.93a70.871 70.871 0 0 1 -21.56 11.44l-3.52 13.9-25.62 2.33-6.11-12.91a78.879 78.879 0 0 1 -23.35-7.12l-12.18 7.25-19.82-16.37 4.93-13.44a70.5 70.5 0 0 1 -11.44-21.55l-13.91-3.53-2.32-25.61 12.9-6.12a78.988 78.988 0 0 1 7.13-23.35l-7.25-12.18 16.37-19.82 13.43 4.93a70.987 70.987 0 0 1 21.56-11.44l3.53-13.91 25.61-2.32 6.12 12.91a79.059 79.059 0 0 1 23.35 7.12l12.18-7.25 19.82 16.37-4.93 13.44a70.936 70.936 0 0 1 11.44 21.55zm-38.9 36.92a50.092 50.092 0 1 0 -63.37 31.67 50.09 50.09 0 0 0 63.37-31.67z" fill="#6fe3ff"/><path d="m332.87 226.92a120.915 120.915 0 0 1 -38.58 91.95 87.073 87.073 0 0 0 -28.08 63.61v.09h-109.16a85.6 85.6 0 0 0 -27.44-63.1 121.3 121.3 0 0 1 96.69-209.75l3.65 40.21 17.26 4.38a88.3 88.3 0 0 0 4.81 9.07l-6.1 16.65 39.15 32.33 15.22-9.07a98.019 98.019 0 0 0 9.76 2.98l7.59 16.01 14.93-1.35q.23 2.97.3 5.99z" fill="#f8ec7d"/><g fill="#e48e66"><path d="m270.93 296.73a17.73 17.73 0 1 1 12.54-5.19 17.713 17.713 0 0 1 -12.54 5.19z"/><path d="m266.21 435.1v8.02a18.667 18.667 0 0 1 -18.66 18.66h-71.84a18.661 18.661 0 0 1 -18.66-18.66v-60.55h109.16z"/><path d="m212.04 240.03a17.74 17.74 0 1 1 12.54-5.2 17.648 17.648 0 0 1 -12.54 5.2z"/><path d="m153.14 296.73a17.73 17.73 0 1 1 12.54-5.19 17.679 17.679 0 0 1 -12.54 5.19z"/></g><path d="m211.63 492a6 6 0 0 0 6-6v-18.22h29.92a24.688 24.688 0 0 0 24.66-24.66v-60.64a81.453 81.453 0 0 1 26.169-59.219 127.418 127.418 0 0 0 40.489-96.491c-.053-2.116-.159-4.234-.315-6.294a6 6 0 0 0 -6.524-5.522l-10.76.974-5.8-12.229a6 6 0 0 0 -3.975-3.253 92.009 92.009 0 0 1 -9.161-2.8 6.008 6.008 0 0 0 -5.117.487l-11.588 6.906-32.616-26.935 4.64-12.663a6 6 0 0 0 -.506-5.179 82.732 82.732 0 0 1 -4.484-8.455 6 6 0 0 0 -3.978-3.316l-13.144-3.336-3.267-35.98a6 6 0 0 0 -5.251-5.414 127.4 127.4 0 0 0 -14.21-.924c-.4 0-.788-.005-1.185-.005a127.284 127.284 0 0 0 -86.077 221.054 79.737 79.737 0 0 1 25.5 58.681v60.55a24.687 24.687 0 0 0 24.66 24.66h29.92v18.223a6 6 0 0 0 6 6zm-77.962-176.949a115.285 115.285 0 0 1 77.966-200.216c.357 0 .716 0 1.074.005 2.68.023 5.378.142 8.064.354l3.2 35.278a6 6 0 0 0 4.5 5.273l14.532 3.689q1.143 2.3 2.406 4.538l-5.127 13.994a6 6 0 0 0 1.814 6.69l39.15 32.33a6 6 0 0 0 6.892.529l12.82-7.641c1.616.537 3.24 1.033 4.861 1.485l6.4 13.492a6 6 0 0 0 5.962 3.405l8.7-.787a115.417 115.417 0 0 1 -36.682 87.012 93.806 93.806 0 0 0 -29.785 62.089h-19.6v-35.35a12.074 12.074 0 0 1 12.06-12.06 24.062 24.062 0 0 0 24.06-24.06v-3.134a23.736 23.736 0 1 0 -22.785-6.187l.008.01a23.643 23.643 0 0 0 10.777 6.176v3.135a12.059 12.059 0 0 1 -12.06 12.06 24.088 24.088 0 0 0 -24.06 24.06v35.35h-10.775v-131.3a23.529 23.529 0 0 0 10.783-6.194 23.7 23.7 0 1 0 -22.783 6.194v131.3h-10.78v-35.35a24.087 24.087 0 0 0 -24.06-24.06 12.061 12.061 0 0 1 -12.06-12.06v-3.134a23.726 23.726 0 1 0 -12 0v3.134a24.062 24.062 0 0 0 24.06 24.06 12.074 12.074 0 0 1 12.06 12.06v35.35h-20.412a91.6 91.6 0 0 0 -29.18-61.519zm137.262-24.321a11.731 11.731 0 1 1 8.3-3.433 11.687 11.687 0 0 1 -8.3 3.433zm-58.89-56.7a11.626 11.626 0 0 1 -8.291-3.436l-.01-.01a11.734 11.734 0 0 1 16.6-16.595 11.759 11.759 0 0 1 0 16.6 11.63 11.63 0 0 1 -8.299 3.441zm-58.9 56.7a11.73 11.73 0 1 1 8.3-3.432 11.65 11.65 0 0 1 -8.3 3.432zm9.91 152.39v-2.02h63.96a6 6 0 0 0 0-12h-63.96v-14.69h15.45a6 6 0 1 0 0-12h-15.45v-13.84h97.16v13.84h-62.4a6 6 0 0 0 0 12h62.4v14.69h-13.89a6 6 0 0 0 0 12h13.89v2.02a12.674 12.674 0 0 1 -12.66 12.66h-71.84a12.674 12.674 0 0 1 -12.66-12.66z" fill="#63316d"/><path d="m350.658 61.539a56.089 56.089 0 1 0 32.425 28.13 55.694 55.694 0 0 0 -32.425-28.13zm24.08 67.153a44.162 44.162 0 1 1 -27.878-55.77 44.137 44.137 0 0 1 27.878 55.77z" fill="#63316d"/><path d="m424.23 124.7a6 6 0 0 0 3.4-5.966l-2.33-25.61a6 6 0 0 0 -4.5-5.272l-10.78-2.738a76.642 76.642 0 0 0 -9.288-17.5l3.814-10.4a6 6 0 0 0 -1.812-6.693l-19.82-16.37a6 6 0 0 0 -6.89-.53l-9.468 5.636a84.863 84.863 0 0 0 -18.922-5.769l-4.762-10.058a6 6 0 0 0 -5.963-3.406l-25.609 2.321a6 6 0 0 0 -5.274 4.5l-2.737 10.788a76.622 76.622 0 0 0 -17.512 9.288l-10.388-3.814a6 6 0 0 0 -6.693 1.812l-16.37 19.819a6 6 0 0 0 -.53 6.89l5.634 9.472a84.861 84.861 0 0 0 -5.779 18.923l-10.051 4.766a6 6 0 0 0 -3.4 5.962l2.321 25.61a6 6 0 0 0 4.5 5.275l10.785 2.736a76.175 76.175 0 0 0 9.29 17.507l-3.813 10.394a6 6 0 0 0 1.812 6.693l19.82 16.37a6 6 0 0 0 6.89.53l9.467-5.636a84.669 84.669 0 0 0 18.915 5.77l4.76 10.058a6 6 0 0 0 5.421 3.433q.272 0 .546-.024l25.62-2.33a6 6 0 0 0 5.273-4.5l2.728-10.776a76.6 76.6 0 0 0 17.51-9.288l10.4 3.814a6 6 0 0 0 6.693-1.812l16.37-19.82a6 6 0 0 0 .53-6.891l-5.636-9.467a84.839 84.839 0 0 0 5.769-18.921zm-18.05-4.723a6 6 0 0 0 -3.37 4.578 72.966 72.966 0 0 1 -6.58 21.577 6 6 0 0 0 .244 5.685l5.088 8.548-10.974 13.287-9.452-3.466a6.007 6.007 0 0 0 -5.749.9 64.711 64.711 0 0 1 -19.735 10.472 6 6 0 0 0 -3.959 4.232l-2.477 9.782-17.216 1.564-4.317-9.122a6 6 0 0 0 -4.58-3.374 72.817 72.817 0 0 1 -21.574-6.578 6 6 0 0 0 -5.688.242l-8.549 5.089-13.286-10.974 3.467-9.452a6 6 0 0 0 -.9-5.753 64.365 64.365 0 0 1 -10.467-19.714 6 6 0 0 0 -4.231-3.962l-9.792-2.485-1.56-17.212 9.119-4.326a6 6 0 0 0 3.368-4.578 72.939 72.939 0 0 1 6.59-21.577 6 6 0 0 0 -.244-5.684l-5.088-8.55 10.973-13.285 9.442 3.466a6.007 6.007 0 0 0 5.75-.9 64.737 64.737 0 0 1 19.736-10.471 6 6 0 0 0 3.957-4.23l2.485-9.793 17.211-1.559 4.326 9.126a6 6 0 0 0 4.579 3.371 72.9 72.9 0 0 1 21.573 6.579 6 6 0 0 0 5.685-.243l8.549-5.089 13.286 10.973-3.467 9.452a6 6 0 0 0 .9 5.749 64.766 64.766 0 0 1 10.473 19.728 6 6 0 0 0 4.227 3.955l9.786 2.485 1.566 17.212z" fill="#63316d"/></svg>