<svg id="Capa_1" enable-background="new 0 0 511.922 511.922" viewBox="0 0 511.922 511.922" xmlns="http://www.w3.org/2000/svg">

<g><g><path d="m37.73 195.365c123.678-7.672 247.357-7.672 371.036 0 11.215.696 20.453 9.122 22.125 20.233 10.853 72.117 10.853 144.234 0 216.352-1.672 11.111-10.911 19.538-22.125 20.233-123.678 7.672-247.357 7.672-371.036 0-11.215-.696-20.453-9.122-22.125-20.233-10.853-72.117-10.853-144.234 0-216.351 1.672-11.112 10.911-19.538 22.125-20.234z" fill="#78c2a4"/><path d="m82.197 425.673c0-22.385-18.146-40.531-40.531-40.531-1.602 0-3.178.103-4.731.284-3.632-41.035-3.632-82.271 0-123.305 1.553.181 3.13.284 4.731.284 22.385 0 40.531-18.146 40.531-40.531 0-.733-.022-1.461-.06-2.185 47.027-2.234 94.32-3.377 141.111-3.377 45.19 0 90.849 1.053 136.283 3.137-.047.803-.079 1.61-.079 2.425 0 22.385 18.146 40.531 40.531 40.531 3.275 0 6.455-.399 9.505-1.132 3.732 41.597 3.732 83.404 0 125.002-3.05-.733-6.23-1.132-9.505-1.132-22.385 0-40.531 18.146-40.531 40.531 0 .815.031 1.622.079 2.425-45.434 2.084-91.093 3.137-136.283 3.137-46.792 0-94.084-1.143-141.111-3.377.038-.724.06-1.452.06-2.186z" fill="#b3e59f"/><ellipse cx="223.249" cy="323.774" fill="#78c2a4" rx="62.278" ry="84.873"/><g fill="#78c2a4"><circle cx="93.096" cy="323.774" r="20.95"/><circle cx="353.403" cy="323.774" r="20.95"/></g><g><path d="m103.161 59.757c123.679-7.672 247.357-7.672 371.036 0 11.215.696 20.453 9.122 22.125 20.233 10.853 72.117 10.853 144.234 0 216.352-1.672 11.111-10.911 19.538-22.125 20.233-123.678 7.672-247.357 7.672-371.036 0-11.215-.696-20.453-9.122-22.125-20.233-10.853-72.117-10.853-144.234 0-216.351 1.672-11.112 10.91-19.538 22.125-20.234z" fill="#78c2a4"/><path d="m147.628 290.066c0-22.385-18.146-40.531-40.531-40.531-1.602 0-3.178.103-4.731.284-3.632-41.035-3.632-82.271 0-123.305 1.553.181 3.13.284 4.731.284 22.385 0 40.531-18.146 40.531-40.531 0-.733-.022-1.461-.06-2.185 47.027-2.234 94.32-3.377 141.111-3.377 45.19 0 90.849 1.053 136.283 3.137-.047.803-.079 1.61-.079 2.425 0 22.385 18.146 40.531 40.531 40.531 3.275 0 6.455-.399 9.505-1.132 3.732 41.597 3.732 83.404 0 125.002-3.05-.733-6.23-1.132-9.505-1.132-22.385 0-40.531 18.146-40.531 40.531 0 .815.031 1.622.079 2.425-45.434 2.084-91.093 3.137-136.283 3.137-46.792 0-94.084-1.143-141.111-3.377.038-.725.06-1.453.06-2.186z" fill="#b3e59f"/><g fill="#78c2a4"><ellipse cx="288.68" cy="188.166" rx="62.278" ry="84.873"/><g><circle cx="158.527" cy="188.166" r="20.95"/><circle cx="418.834" cy="188.166" r="20.95"/></g></g></g></g><g><path d="m503.74 78.876c-2.182-14.511-14.414-25.699-29.082-26.601-89.139-5.532-179.464-7.094-268.472-4.642-4.141.114-7.405 3.563-7.291 7.704.115 4.141 3.557 7.41 7.704 7.291 88.562-2.439 178.436-.886 267.134 4.619 7.655.471 14.037 6.299 15.173 13.86 10.688 71.04 10.688 143.079 0 214.12-1.136 7.56-7.518 13.388-15.178 13.859-122.785 7.624-247.306 7.625-370.105 0-7.649-.47-14.031-6.302-15.174-13.86-10.687-71.04-10.687-143.079-.001-214.113 1.144-7.564 7.526-13.396 15.18-13.866 24.457-1.519 49.1-2.743 73.243-3.641 4.14-.154 7.37-3.634 7.216-7.773-.153-4.14-3.64-7.386-7.773-7.216-24.268.901-49.036 2.133-73.612 3.659-14.659.901-26.892 12.086-29.086 26.6-5.36 35.631-8.08 71.508-8.173 107.39-9.757.514-19.04 1.045-28.175 1.615-14.666.905-26.893 12.093-29.075 26.601-10.924 72.521-10.924 146.063 0 218.582 2.182 14.51 14.41 25.698 29.072 26.603 61.711 3.832 123.836 5.748 185.982 5.748 62.131 0 124.282-1.916 185.978-5.747 14.672-.905 26.903-12.093 29.085-26.603 5.356-35.62 8.117-71.717 8.223-107.409 9.382-.493 18.758-1.015 28.121-1.597 14.673-.902 26.905-12.09 29.087-26.6 10.908-72.522 10.908-146.064-.001-218.583zm-137.867 249.922c-1.996 4.931-6.829 8.423-12.47 8.423-5.436 0-10.117-3.244-12.238-7.891 8.239-.142 16.475-.321 24.708-.532zm-125.941 12.42c-.569 4.079-4.042 8.347-9.752 10.432v-21.17c.085.025.164.049.25.074 6.711 1.952 10.175 5.839 9.502 10.664zm-24.753 11.54c-4.307-.381-7.571-1.431-12.63-4.16-3.645-1.965-8.195-.606-10.162 3.039-1.967 3.646-.606 8.195 3.039 10.162 7.722 4.167 13.119 5.564 19.753 5.989v3.452c0 4.142 3.358 7.5 7.5 7.5s7.5-3.358 7.5-7.5v-4.023c14.386-2.837 23.147-13.454 24.608-23.926.693-4.963-.179-9.635-2.34-13.726 8.466.102 16.933.167 25.402.198-2.172 39.875-25.821 71.388-54.599 71.388-29.345 0-53.369-32.763-54.714-73.751 15.532.62 31.081 1.119 46.642 1.498v23.86zm-112.481-28.701c1.272.079 2.548.145 3.82.222-.267 7.18-6.175 12.943-13.419 12.943-7.418 0-13.454-6.031-13.454-13.444 0-3.183 1.149-6.218 3.122-8.598 5.252 5.11 12.258 8.405 19.931 8.877zm320.777 106.775c-1.136 7.56-7.518 13.389-15.178 13.862-122.791 7.624-247.312 7.625-370.106 0-7.651-.472-14.029-6.302-15.166-13.864-10.701-71.038-10.701-143.077 0-214.117 1.137-7.56 7.515-13.39 15.17-13.862 8.879-.554 17.895-1.071 27.357-1.571.246 13.749.878 27.493 1.897 41.22-6.258 7.809-15.719 12.411-25.788 12.411-1.205 0-2.466-.079-3.854-.24-2.01-.233-4.031.355-5.602 1.633-1.57 1.278-2.557 3.137-2.735 5.154-3.668 41.353-3.668 83.283 0 124.625.179 2.017 1.166 3.875 2.736 5.154 1.569 1.278 3.586 1.866 5.601 1.633 1.255-.146 2.551-.22 3.854-.22 18.213 0 33.03 14.813 33.03 33.02 0 .59-.006 1.181-.038 1.763-.111 1.996.58 3.955 1.918 5.439 1.339 1.485 3.216 2.374 5.213 2.469 47.191 2.248 94.787 3.388 141.467 3.388 24.681 0 49.904-.32 74.97-.952 4.141-.104 7.412-3.546 7.309-7.687-.104-4.141-3.567-7.41-7.688-7.309-24.938.628-50.035.947-74.591.947-44.158 0-89.139-1.025-133.817-3.049-2.43-23.438-21.793-41.923-45.611-42.982-2.804-35.812-2.804-72.017-.001-107.836 9.165-.412 17.9-3.447 25.271-8.579 1.21 12.081 2.713 24.144 4.523 36.179.241 1.592.609 3.141 1.082 4.644-6.253 5.34-10.053 13.257-10.053 21.67 0 15.684 12.764 28.444 28.454 28.444 15.224 0 27.69-12.022 28.409-27.071 10.662.594 21.335 1.131 32.017 1.611.55 23.14 7.463 44.87 19.64 61.465 13.212 18.007 31 27.924 50.085 27.924s36.873-9.917 50.084-27.924c11.645-15.87 18.475-36.436 19.532-58.439 10.892-.015 21.783-.098 32.673-.231 2.679 12.922 14.154 22.664 27.862 22.664 14.123 0 25.87-10.341 28.076-23.845 7.77-.239 15.537-.508 23.3-.807-.098 16.713-.802 33.522-2.104 50.156-.896-.05-1.794-.075-2.692-.075-24.88 0-45.402 19.013-47.796 43.269-8.36.363-16.583.687-24.527.965-4.139.146-7.377 3.619-7.231 7.759.142 4.05 3.47 7.237 7.49 7.237.089 0 .179-.001.269-.004 10.205-.358 20.867-.791 31.688-1.284 2.009-.091 3.897-.986 5.24-2.483 1.344-1.497 2.029-3.471 1.903-5.478-.044-.702-.065-1.343-.065-1.96 0-18.208 14.816-33.02 33.029-33.02 2.621 0 5.229.307 7.748.912 2.118.508 4.355.071 6.126-1.2s2.9-3.25 3.096-5.42c1.785-19.846 2.73-39.998 2.827-60.009 3.916-.171 7.833-.339 11.747-.525-.141 34.705-2.842 69.794-8.05 104.426z"/><path d="m430.538 78.825c-1.343-1.492-3.227-2.384-5.231-2.476-45.488-2.087-91.456-3.145-136.627-3.145-46.581 0-94.177 1.139-141.468 3.385-1.994.095-3.869.981-5.208 2.462s-2.032 3.435-1.926 5.429c.031.591.05 1.187.05 1.786 0 18.213-14.818 33.031-33.031 33.031-1.25 0-2.514-.076-3.864-.233-2.012-.235-4.032.355-5.602 1.634-1.57 1.278-2.557 3.138-2.735 5.155-3.66 41.349-3.66 83.279 0 124.628.178 2.017 1.165 3.876 2.735 5.155 1.57 1.278 3.591 1.869 5.602 1.634 1.35-.157 2.614-.233 3.864-.233 18.213 0 33.031 14.817 33.031 33.031 0 .599-.019 1.194-.05 1.786-.106 1.994.587 3.948 1.926 5.429s3.213 2.367 5.208 2.462c47.291 2.246 94.888 3.385 141.468 3.385 45.171 0 91.139-1.058 136.627-3.145 2.005-.092 3.889-.984 5.231-2.476s2.031-3.459 1.911-5.463c-.044-.743-.065-1.39-.065-1.979 0-18.213 14.817-33.031 33.031-33.031 2.593 0 5.201.311 7.75.924 2.119.511 4.356.072 6.128-1.199 1.771-1.271 2.901-3.251 3.096-5.422 3.763-41.917 3.763-84.425 0-126.343-.194-2.171-1.325-4.151-3.096-5.422s-4.007-1.711-6.128-1.199c-2.549.613-5.157.924-7.75.924-18.214 0-33.031-14.817-33.031-33.031 0-.588.021-1.236.065-1.979.12-2.005-.569-3.973-1.911-5.464zm34.877 55.472c.898 0 1.797-.025 2.695-.077 2.8 35.834 2.8 72.057 0 107.892-.898-.051-1.797-.077-2.695-.077-24.881 0-45.404 19.015-47.798 43.276-42.972 1.87-86.31 2.816-128.938 2.816-44.064 0-89.042-1.024-133.808-3.046-2.429-23.449-21.799-41.943-45.624-42.999-2.796-35.813-2.796-72.02 0-107.833 23.825-1.056 43.195-19.55 45.624-42.999 44.765-2.022 89.744-3.046 133.808-3.046 42.628 0 85.966.947 128.938 2.816 2.393 24.262 22.917 43.277 47.798 43.277z"/><path d="m288.68 95.793c-19.085 0-36.872 9.916-50.084 27.922-12.7 17.308-19.694 40.197-19.694 64.451s6.994 47.144 19.694 64.451c13.212 18.006 30.999 27.922 50.084 27.922s36.871-9.916 50.083-27.922c12.7-17.308 19.694-40.197 19.694-64.451s-6.994-47.144-19.694-64.451c-13.212-18.006-30.998-27.922-50.083-27.922zm0 169.746c-30.204 0-54.778-34.709-54.778-77.373s24.574-77.373 54.778-77.373 54.777 34.709 54.777 77.373-24.573 77.373-54.777 77.373z"/><path d="m158.526 159.716c-15.687 0-28.45 12.763-28.45 28.45s12.763 28.45 28.45 28.45c15.688 0 28.45-12.763 28.45-28.45s-12.762-28.45-28.45-28.45zm0 41.9c-7.416 0-13.45-6.034-13.45-13.45s6.034-13.45 13.45-13.45c7.417 0 13.45 6.034 13.45 13.45s-6.033 13.45-13.45 13.45z"/><path d="m390.383 188.166c0 15.688 12.763 28.45 28.45 28.45s28.45-12.763 28.45-28.45-12.763-28.45-28.45-28.45-28.45 12.762-28.45 28.45zm41.901 0c0 7.417-6.034 13.45-13.45 13.45s-13.45-6.034-13.45-13.45 6.034-13.45 13.45-13.45 13.45 6.033 13.45 13.45z"/><path d="m300.156 180.534c-1.5-.437-3.027-.89-4.557-1.359v-20.704c4.078.989 6.483 2.646 6.659 2.771 3.377 2.399 8.059 1.606 10.458-1.771 2.399-3.376 1.606-8.059-1.771-10.458-1.441-1.023-6.932-4.564-15.346-5.83v-3.042c0-4.142-3.358-7.5-7.5-7.5s-7.5 3.358-7.5 7.5v3.516c-.59.122-1.185.255-1.787.405-10.098 2.505-17.644 10.25-19.225 19.732-1.356 8.131 1.975 15.877 8.692 20.216 3.192 2.062 7.094 3.956 12.32 5.929v27.644c-4.412-.378-7.736-1.433-12.918-4.225-3.646-1.965-8.195-.601-10.16 3.045-1.609 2.987-.986 6.578 1.296 8.86.504.504 1.09.945 1.75 1.3 7.841 4.225 13.304 5.633 20.032 6.053v3.574c0 2.071.839 3.946 2.197 5.303 1.357 1.357 3.232 2.197 5.303 2.197 4.142 0 7.5-3.358 7.5-7.5v-4.146c14.552-2.839 23.416-13.561 24.895-24.138 1.75-12.523-6.234-23.266-20.338-27.372zm-23.738-9.125c-2.271-1.467-2.251-3.857-2.035-5.15.415-2.49 2.274-5.481 6.216-7.056v14.477c-1.553-.733-2.97-1.489-4.181-2.271zm29.22 34.42c-.585 4.181-4.16 8.558-10.04 10.663v-21.663c.124.036.239.071.364.107 6.84 1.991 10.366 5.962 9.676 10.893z"/></g></g></svg>