<svg height="512" viewBox="0 0 512 512" width="512" xmlns="http://www.w3.org/2000/svg"><g><g><path d="m416 448h-320v-256l160-80 160 80z" fill="#57565c"/><path d="m176 192h160v40h-160z" fill="#2488ff"/><path d="m136 280h240v168h-240z" fill="#acabb1"/><path d="m120 256h272v24h-272z" fill="#57565c"/><path d="m136 280h240v24h-240z" fill="#2d2d30"/><path d="m256 392h48v48h-48z" fill="#5f4d37"/><path d="m304 392h48v48h-48z" fill="#5f4d37"/><path d="m304 344h48v48h-48z" fill="#a0815c"/><path d="m219.63 130.18a40 40 0 0 0 -43.34-57.43 52.006 52.006 0 0 0 -94.9 15.28c-.46-.02-.93-.03-1.39-.03a32 32 0 0 0 0 64h96" fill="#e0e0e2"/></g><g><path d="m464 440h-40v-248a8.011 8.011 0 0 0 -4.42-7.16l-160-80a8.049 8.049 0 0 0 -7.16 0l-20.53 10.27c.07-1.03.11-2.07.11-3.11a48.051 48.051 0 0 0 -48-48c-1.29 0-2.58.05-3.88.16a60.014 60.014 0 0 0 -104.8 16.11 40 40 0 0 0 4.68 79.73h62.11l-49.69 24.84a8.011 8.011 0 0 0 -4.42 7.16v248h-72a8 8 0 0 0 0 16h448a8 8 0 0 0 0-16zm-384-296a24.032 24.032 0 0 1 -24-24 23.979 23.979 0 0 1 24-24c.34 0 .69.01 1.03.02a8.008 8.008 0 0 0 8.15-6.16 44 44 0 0 1 80.3-12.91 8 8 0 0 0 8.35 3.65 32 32 0 0 1 38.17 31.4 31.421 31.421 0 0 1 -2.46 12.28l-39.43 19.72zm216 288h-32v-32h8v8a8 8 0 0 0 16 0v-8h8zm48 0h-32v-32h8v8a8 8 0 0 0 16 0v-8h8zm0-48h-32v-32h8v8a8 8 0 0 0 16 0v-8h8zm24 56h-8v-96a8 8 0 0 0 -8-8h-48a8 8 0 0 0 -8 8v40h-40a8 8 0 0 0 -8 8v48h-104v-128h224zm0-144h-224v-8h224zm-240-24v-8h256v8zm280 168h-24v-152h8a8 8 0 0 0 8-8v-24a8 8 0 0 0 -8-8h-272a8 8 0 0 0 -8 8v24a8 8 0 0 0 8 8h8v152h-24v-243.06l152-76 152 76z"/><path d="m496 440h-8a8 8 0 0 0 0 16h8a8 8 0 0 0 0-16z"/><path d="m336 184h-160a8 8 0 0 0 -8 8v40a8 8 0 0 0 8 8h160a8 8 0 0 0 8-8v-40a8 8 0 0 0 -8-8zm-72 16h24v24h-24zm-16 24h-24v-24h24zm-64-24h24v24h-24zm144 24h-24v-24h24z"/></g></g></svg>