<?xml version="1.0" encoding="iso-8859-1"?>
<!-- Generator: Adobe Illustrator 19.0.0, SVG Export Plug-In . SVG Version: 6.00 Build 0)  -->
<svg version="1.1" id="Capa_1" xmlns="http://www.w3.org/2000/svg" xmlns:xlink="http://www.w3.org/1999/xlink" x="0px" y="0px"
	 viewBox="0 0 512 512" style="enable-background:new 0 0 512 512;" xml:space="preserve">
<path style="fill:#707487;" d="M255.753,8c-48.217,0-87.299,39.086-87.299,87.301c0,1.281,0,121.851,0,123.134
	c0,6.392,5.182,11.575,11.575,11.575c16.542,0,29.663,0,40.128,0h70.998c9.314,0,22.216,0,40.327,0
	c6.392,0,11.574-5.182,11.574-11.575c0-11.674,0-34.009,0-57.063v-32.581c0-13.658,0-25.678,0-33.49
	C343.057,47.087,303.972,8,255.753,8z"/>
<path style="fill:#5B5D6E;" d="M188.454,218.436c0-1.283,0-121.852,0-123.134c0-44.833,33.794-81.766,77.3-86.728
	C262.472,8.199,259.136,8,255.753,8c-48.217,0-87.299,39.086-87.299,87.301c0,1.281,0,121.851,0,123.134
	c0,6.392,5.182,11.575,11.575,11.575c7.314,0,13.958,0,20.001,0C193.638,230.011,188.454,224.829,188.454,218.436z"/>
<path style="fill:#F0A479;" d="M318.938,121.11v46.584c0,0.454-0.025,0.901-0.034,1.353c16.621,3.185,30.462-8.759,30.462-23.966
	C349.366,129.885,335.543,117.951,318.938,121.11z"/>
<path style="fill:#E59770;" d="M339.105,125.253c-5.398-3.829-12.483-5.604-20.167-4.142v46.584c0,0.454-0.025,0.901-0.034,1.353
	c7.697,1.475,14.795-0.299,20.201-4.135L339.105,125.253L339.105,125.253z"/>
<path style="fill:#F0A479;" d="M256.656,228.011c-14.099,0-26.442-3.975-36.45-10.59v32.422l35.499,43.818l35.498-43.818v-32.298
	C281.304,224.151,269.423,228.011,256.656,228.011z"/>
<path style="fill:#E59770;" d="M240.207,226.079c-7.396-1.792-14.106-4.762-20.001-8.658v32.422l20.001,24.689V226.079z"/>
<path style="fill:#F0A479;" d="M314.965,109.41c-7.77-2.361-22.997-8.581-37.665-23.709c-2.394-2.468-6.313-2.286-8.507,0.213
	c-10.278,11.722-37.924,40.366-72.573,53.158c-2.273,0.839-3.783,3.006-3.783,5.429v23.096c0,32.61,25.547,62.414,64.219,62.414
	c34.415,0,62.414-27.999,62.414-62.414v-52.65C319.069,112.399,317.403,110.151,314.965,109.41z"/>
<path style="fill:#E59770;" d="M212.438,167.597v-35.844c-5.195,2.76-10.614,5.249-16.219,7.318
	c-2.273,0.839-3.782,3.006-3.782,5.429v23.096c0,32.609,25.547,62.414,64.219,62.414c3.09,0,6.126-0.234,9.099-0.67
	C235.636,224.922,212.438,198.921,212.438,167.597z"/>
<path style="fill:#E4EAF8;" d="M385.113,284.212l-93.911-36.369l-35.498,43.818l-35.499-43.818l-93.813,36.369
	c0,0-34.734,14.28-34.734,53.875c0,35.828,0,126.394,0,155.337c0,6.391,5.182,11.574,11.575,11.574c4.87,0,300.094,0,305.039,0
	c6.391,0,11.575-5.182,11.575-11.574c0-28.944,0-119.509,0-155.337C419.847,298.492,385.113,284.212,385.113,284.212z"/>
<g>
	<path style="fill:#D8DCE5;" d="M111.66,493.425c0-28.944,0-134.51,0-170.338c0-17.618,6.878-30.213,14.512-38.779
		c-2.812,1.23-34.513,15.939-34.513,53.78c0,35.828,0,126.394,0,155.337c0,6.391,5.182,11.574,11.575,11.574
		c0.734,0,8.068,0,20.001,0C116.843,505,111.66,499.817,111.66,493.425z"/>
	<path style="fill:#D8DCE5;" d="M298.566,314.176l26.546-53.201l-33.909-13.133l-35.498,43.818l34.61,24.581
		C293.116,318.231,297.032,317.251,298.566,314.176z"/>
	<path style="fill:#D8DCE5;" d="M212.891,314.176l-26.546-53.201l33.909-13.133l35.498,43.818l-34.61,24.581
		C218.342,318.231,214.426,317.251,212.891,314.176z"/>
</g>
<g>
	<path style="fill:#FF5050;" d="M232.866,311.44c-14.799,14.654-23.599,36.015-26.808,44.886c-0.822,2.272,0.287,4.785,2.522,5.701
		l21.914,8.988c2.574,1.056,5.498-0.452,6.094-3.17c4.003-18.24,11.348-32.715,16.618-41.43
		C244.031,325.498,236.343,319.588,232.866,311.44z"/>
	<path style="fill:#FF5050;" d="M278.573,311.369c-3.45,8.156-11.116,14.083-20.277,15.035c5.27,8.714,12.62,23.192,16.625,41.441
		c0.596,2.718,3.52,4.226,6.094,3.17l21.914-8.988c2.235-0.917,3.344-3.43,2.522-5.701
		C302.238,347.441,293.415,326.024,278.573,311.369z"/>
</g>
<g>
	<path style="fill:#ED3A3A;" d="M226.06,365.515c2.52-8.393,8.495-26.074,18.116-41.826c-5.04-2.652-9.061-6.976-11.311-12.25
		c-14.799,14.654-23.599,36.015-26.808,44.886c-0.822,2.272,0.287,4.785,2.522,5.701l17.494,7.174
		C225.729,368.048,225.688,366.755,226.06,365.515z"/>
	<path style="fill:#ED3A3A;" d="M288.474,325.371c0.337-0.244,0.668-0.498,0.994-0.76c-3.182-4.657-6.81-9.207-10.897-13.241
		c-3.45,8.156-11.116,14.083-20.277,15.034c5.271,8.715,12.622,23.197,16.627,41.449c0.596,2.715,3.521,4.216,6.092,3.162
		l11.064-4.537c-2.467-9.591-5.444-18.03-8.338-25.049C281.346,335.618,283.388,329.06,288.474,325.371z"/>
	<path style="fill:#ED3A3A;" d="M255.729,291.679l-24.608,17.477c3.093,10.661,12.925,18.456,24.582,18.456
		c11.669,0,21.507-7.81,24.591-18.486L255.729,291.679z"/>
</g>
<path style="fill:#DB2A2A;" d="M253.304,307.235l12.165-8.64l-9.74-6.917l-24.608,17.477c3.093,10.661,12.925,18.456,24.582,18.456
	c3.451,0,6.735-0.698,9.74-1.937c-6.046-2.493-10.933-7.226-13.611-13.173C250.99,310.632,251.632,308.423,253.304,307.235z"/>
<path d="M420.094,425.22c-4.143,0-7.5,3.358-7.5,7.5v60.205c0,2.246-1.827,4.074-4.073,4.074h-40.039V350.016
	c0-4.142-3.357-7.5-7.5-7.5c-4.143,0-7.5,3.358-7.5,7.5v146.983h-90.027V393.398c0-4.142-3.357-7.5-7.5-7.5s-7.5,3.358-7.5,7.5
	v103.601h-29.877c-4.142,0-7.5,3.358-7.5,7.5s3.358,7.5,7.5,7.5h189.946c10.518,0,19.074-8.558,19.074-19.075V432.72
	C427.595,428.578,424.237,425.22,420.094,425.22z"/>
<path d="M388.212,276.775c-0.047-0.02-0.095-0.039-0.143-0.057l-89.119-34.514v-5.192h32.779c10.518,0,19.074-8.558,19.074-19.075
	v-54.379c4.06-5.421,6.309-12.041,6.309-18.975c0-6.933-2.249-13.553-6.309-18.973V94.802C350.803,42.528,308.275,0,256,0
	C203.727,0,161.2,42.528,161.2,94.802v123.133c0,10.519,8.558,19.075,19.075,19.075h32.677v5.195l-89.023,34.512
	c-0.047,0.018-0.094,0.037-0.141,0.056c-1.608,0.661-39.382,16.698-39.382,60.813v155.337c0,10.518,8.558,19.075,19.075,19.075
	h80.092c4.142,0,7.5-3.358,7.5-7.5s-3.358-7.5-7.5-7.5h-25.05V350.016c0-4.142-3.358-7.5-7.5-7.5c-4.142,0-7.5,3.358-7.5,7.5
	v146.983H103.48c-2.246,0-4.074-1.828-4.074-4.074V337.587c0-33.54,28.299-46.175,30.041-46.92l53.483-20.734l23.496,47.091
	c0,0,0,0,0,0.001c1.516,3.039,4.137,5.342,7.301,6.475c-7.545,11.932-12.322,23.815-14.477,29.775
	c-2.194,6.069,0.762,12.743,6.73,15.191l21.913,8.987c3.242,1.33,6.938,1.2,10.134-0.474c3.139-1.646,5.375-4.571,6.133-8.027
	c2.86-13.032,7.525-24.041,11.839-32.276c4.315,8.236,8.981,19.246,11.839,32.273c0.758,3.457,2.992,6.383,6.132,8.029
	c3.155,1.654,6.852,1.822,10.135,0.475l21.916-8.988c5.967-2.449,8.923-9.122,6.728-15.192c-2.158-5.965-6.936-17.854-14.485-29.787
	c3.144-1.138,5.747-3.436,7.257-6.46l0.001-0.001l23.496-47.089l53.534,20.732c1.339,0.576,30.039,13.373,30.039,46.92v60.131
	c0,4.142,3.357,7.5,7.5,7.5s7.5-3.358,7.5-7.5v-60.131C427.595,293.473,389.821,277.436,388.212,276.775z M200.184,167.097v-21.909
	c4.304-1.636,8.501-3.499,12.569-5.531c28.481-14.227,50.746-36.764,60.707-47.92c13.793,13.746,27.952,20.367,36.684,23.407
	c0.582,0.203,1.14,0.389,1.672,0.561v5.009v46.383c0,29.976-24.381,54.913-54.913,54.913
	C221.84,222.01,200.184,194.568,200.184,167.097z M342.112,144.581c0,8.475-6.364,15.751-15.295,16.759v-33.513
	C335.578,128.799,342.112,135.961,342.112,144.581z M270.457,310.663c-3.267,5.017-8.788,7.889-14.506,7.889
	c-5.627,0-11.181-2.8-14.491-7.865l14.515-10.309C267.816,308.787,264.697,306.572,270.457,310.663z M256.903,237.011
	c9.594,0,18.82-1.982,27.047-5.447v13.122l-27.974,34.529l-28.023-34.59v-13.263C236.926,235.084,246.752,237.011,256.903,237.011z
	 M335.802,217.936c0,2.247-1.827,4.074-4.073,4.074h-31.616c13.769-10.854,23.573-26.991,26.064-45.594
	c3.072-0.144,6.575-0.786,9.626-1.864V217.936z M180.275,222.01c-2.247,0-4.074-1.828-4.074-4.074V94.802
	c0-44.003,35.798-79.801,79.8-79.801c44.004,0,79.803,35.798,79.803,79.801v19.81c-2.806-0.988-6.253-1.659-9.089-1.835
	c-0.628-5.08-4.191-9.485-9.321-11.044c-0.001,0-0.001,0-0.001,0c-11.302-3.434-23.743-10.7-34.462-21.755
	c-5.071-5.228-13.306-5.357-18.565-0.5c-1.918,1.77-31.285,37.58-70.497,52.057c-5.194,1.919-8.685,6.928-8.685,12.466v23.096
	c0,22.238,10.408,42.204,26.723,54.913L180.275,222.01L180.275,222.01z M196.981,264.495l21.095-8.169l27.035,33.369l-0.263,0.187
	c-4.115,2.922-23.002,16.337-25.99,18.459L196.981,264.495z M230.327,362.238l-15.964-6.546c2.961-7.673,8.91-21.11,17.884-32.501
	c2.844,3.07,6.257,5.56,10.048,7.328C237.997,338.85,233.444,349.622,230.327,362.238z M281.677,362.237
	c-3.122-12.634-7.685-23.42-11.989-31.759c3.781-1.777,7.187-4.274,10.022-7.348c8.998,11.4,14.963,24.872,17.931,32.561
	L281.677,362.237z M293.093,308.341c-5.44-3.864-20.939-14.872-26.284-18.668l27.028-33.362l21.133,8.184L293.093,308.341z"/>
<g>
</g>
<g>
</g>
<g>
</g>
<g>
</g>
<g>
</g>
<g>
</g>
<g>
</g>
<g>
</g>
<g>
</g>
<g>
</g>
<g>
</g>
<g>
</g>
<g>
</g>
<g>
</g>
<g>
</g>
</svg>
