<?xml version="1.0" encoding="iso-8859-1"?>
<!-- Generator: Adobe Illustrator 19.0.0, SVG Export Plug-In . SVG Version: 6.00 Build 0)  -->
<svg version="1.1" id="Capa_1" xmlns="http://www.w3.org/2000/svg" xmlns:xlink="http://www.w3.org/1999/xlink" x="0px" y="0px"
	 viewBox="0 0 330.947 330.947" style="enable-background:new 0 0 330.947 330.947;" xml:space="preserve">
<g transform="translate(1 1)">
	<g>
		<polygon style="fill:#FFE100;" points="26.561,225.155 26.561,103.792 4.495,103.792 4.495,247.221 302.386,247.221 
			302.386,225.155 		"/>
		<polygon style="fill:#FFE100;" points="26.561,225.155 324.452,225.155 324.452,81.726 26.561,81.726 		"/>
	</g>
	<polygon style="fill:#FFA800;" points="307.902,225.155 324.452,225.155 324.452,81.726 307.902,81.726 	"/>
	<polygon style="fill:#FFFFFF;" points="4.495,247.221 21.044,247.221 21.044,103.792 4.495,103.792 	"/>
	<path d="M324.452,230.65H26.561c-3.035,0-5.495-2.46-5.495-5.495V81.726c0-3.035,2.46-5.495,5.495-5.495h297.891
		c3.035,0,5.495,2.46,5.495,5.495v143.429C329.947,228.19,327.487,230.65,324.452,230.65z M32.056,219.66h286.901V87.221H32.056
		C32.056,87.221,32.056,219.66,32.056,219.66z"/>
	<path d="M302.386,252.716H4.495c-3.035,0-5.495-2.46-5.495-5.495V103.792c0-3.035,2.46-5.495,5.495-5.495h22.066
		c3.035,0,5.495,2.46,5.495,5.495V219.66h270.33c3.034,0,5.495,2.46,5.495,5.495v22.066
		C307.881,250.256,305.42,252.716,302.386,252.716z M9.99,241.726h286.901V230.65H26.561c-3.035,0-5.495-2.46-5.495-5.495V109.287
		H9.99V241.726z"/>
	<path d="M175.506,203.068c-15.197,0-27.561-12.364-27.561-27.561c0-3.035,2.46-5.495,5.495-5.495s5.495,2.46,5.495,5.495
		c0,9.138,7.434,16.571,16.571,16.571c9.138,0,16.571-7.434,16.571-16.571c0-9.137-7.434-16.571-16.571-16.571
		c-15.197,0-27.561-12.364-27.561-27.561c0-15.197,12.364-27.561,27.561-27.561c15.198,0,27.561,12.364,27.561,27.561
		c0,3.035-2.46,5.495-5.495,5.495s-5.495-2.46-5.495-5.495c0-9.137-7.434-16.571-16.571-16.571c-9.137,0-16.571,7.434-16.571,16.571
		c0,9.137,7.434,16.571,16.571,16.571c15.198,0,27.561,12.364,27.561,27.561C203.068,190.704,190.704,203.068,175.506,203.068z"/>
	<path d="M175.506,214.101c-3.035,0-5.495-2.46-5.495-5.495V98.276c0-3.035,2.46-5.495,5.495-5.495c3.035,0,5.495,2.46,5.495,5.495
		v110.33C181.001,211.64,178.541,214.101,175.506,214.101z"/>
	<path d="M70.693,208.584H48.627c-3.035,0-5.495-2.46-5.495-5.495c0-3.035,2.46-5.495,5.495-5.495h22.066
		c3.035,0,5.495,2.46,5.495,5.495C76.188,206.123,73.727,208.584,70.693,208.584z"/>
	<path d="M302.386,109.287H280.32c-3.034,0-5.495-2.46-5.495-5.495s2.46-5.495,5.495-5.495h22.066c3.034,0,5.495,2.46,5.495,5.495
		S305.42,109.287,302.386,109.287z"/>
</g>
<g>
</g>
<g>
</g>
<g>
</g>
<g>
</g>
<g>
</g>
<g>
</g>
<g>
</g>
<g>
</g>
<g>
</g>
<g>
</g>
<g>
</g>
<g>
</g>
<g>
</g>
<g>
</g>
<g>
</g>
</svg>
