<svg height="512" viewBox="0 0 64 64" width="512" xmlns="http://www.w3.org/2000/svg"><g id="Files"><path d="m23 6v50l35-1h3v-52h-38z" fill="#ff6243"/><path d="m20 9v50l35-1h3v-52h-38z" fill="#ffcd00"/><path d="m55 61h-38v-52h30l8 8z" fill="#ffe477"/><path d="m53 15v28a16 16 0 0 1 -16 16h-20v2h38v-44z" fill="#e5cd6b"/><path d="m47 16a1 1 0 0 0 1 1h7l-8-8z" fill="#ff6243"/><circle cx="16" cy="35" fill="#ffb655" r="13"/><circle cx="16" cy="35" fill="#ff9811" r="9"/><path d="m16 26a8.935 8.935 0 0 0 -1 .059 9 9 0 0 1 0 17.882 9 9 0 1 0 1-17.941z" fill="#e5890f"/><path d="m29 49h4v8h-4z" fill="#ed1c24"/><path d="m37 45h4v12h-4z" fill="#5eac24"/><path d="m45 39h4v18h-4z" fill="#006df0"/><g fill="#231f20"><path d="m17 41v-1a3 3 0 0 0 0-6h-2a1 1 0 0 1 0-2h2a1 1 0 0 1 1 1 1 1 0 0 0 2 0 3 3 0 0 0 -3-3v-1a1 1 0 0 0 -2 0v1a3 3 0 0 0 0 6h2a1 1 0 0 1 0 2h-2a1 1 0 0 1 -1-1 1 1 0 0 0 -2 0 3 3 0 0 0 3 3v1a1 1 0 0 0 2 0z"/><path d="m26 35a10 10 0 1 0 -10 10 10.011 10.011 0 0 0 10-10zm-18 0a8 8 0 1 1 8 8 8.009 8.009 0 0 1 -8-8z"/><path d="m61 2h-38a1 1 0 0 0 -1 1v2h-2a1 1 0 0 0 -1 1v2h-2a1 1 0 0 0 -1 1v12a14 14 0 0 0 0 28v12a1 1 0 0 0 1 1h38a1 1 0 0 0 1-1v-2h2a1 1 0 0 0 1-1v-2h2a1 1 0 0 0 1-1v-52a1 1 0 0 0 -1-1zm-45 45a12 12 0 1 1 12-12 12.01 12.01 0 0 1 -12 12zm38 13h-36v-11.16a13.981 13.981 0 0 0 0-27.68v-11.16h28v6a2.006 2.006 0 0 0 2 2h6zm-6-44v-4.59l4.59 4.59zm9 41h-1v-40a1.033 1.033 0 0 0 -.29-.71l-8-8a1.033 1.033 0 0 0 -.71-.29h-26v-1h36zm3-3h-1v-48a1 1 0 0 0 -1-1h-34v-1h36z"/><path d="m29 20h14a1 1 0 0 0 0-2h-14a1 1 0 0 0 0 2z"/><path d="m44 23a1 1 0 0 0 -1-1h-14a1 1 0 0 0 0 2h14a1 1 0 0 0 1-1z"/><path d="m29 16h14a1 1 0 0 0 0-2h-14a1 1 0 0 0 0 2z"/><path d="m25 14h-2a1 1 0 0 0 0 2h2a1 1 0 0 0 0-2z"/><path d="m25 18h-2a1 1 0 0 0 0 2h2a1 1 0 0 0 0-2z"/><path d="m51 56h-1v-17a1 1 0 0 0 -1-1h-4a1 1 0 0 0 -1 1v17h-2v-11a1 1 0 0 0 -1-1h-4a1 1 0 0 0 -1 1v11h-2v-7a1 1 0 0 0 -1-1h-4a1 1 0 0 0 -1 1v7h-1a1 1 0 0 0 0 2h24a1 1 0 0 0 0-2zm-19 0h-2v-6h2zm8 0h-2v-10h2zm8 0h-2v-16h2z"/><path d="m42 31a1 1 0 0 0 1 1h1.4l-14.025 11.219a1 1 0 0 0 1.25 1.562l14.375-11.5v1.719a1 1 0 0 0 2 0v-4a1 1 0 0 0 -1-1h-4a1 1 0 0 0 -1 1z"/></g></g></svg>