<svg id="Layer_1" enable-background="new 0 0 256 256" height="512" viewBox="0 0 256 256" width="512" xmlns="http://www.w3.org/2000/svg"><g><path d="m194.9 15.4h20.1c1 0 1.8.8 1.8 1.8v8.9c0 1-.8 1.8-1.8 1.8h-20.1c-1 0-1.8-.8-1.8-1.8v-8.9c0-1 .8-1.8 1.8-1.8z" fill="#edf4fc"/><path d="m204.9 39.2c2.1 0 4.2.1 6.3.4v-11.7h-12.5v11.7c2.1-.2 4.1-.4 6.2-.4z" fill="#c7d7e5"/><path d="m175.4 49.3c3.4-2.6 7.1-4.7 11-6.4l-4.7-8.1c-.9-1.6-2.9-2.1-4.5-1.2l-5.3 3c-1.6.9-2.1 2.9-1.2 4.5z" fill="#edf4fc"/><path d="m156.4 87.8c0-7.3 1.6-14.5 4.8-21.1h-152.4c-3.5 0-6.3 2.8-6.3 6.3v112.8c0 3.5 2.8 6.3 6.3 6.3h18v-94.7c0-3.5 2.8-6.3 6.3-6.3h123.3c0-1.1 0-2.2 0-3.3z" fill="#87d147"/><path d="m156.4 87.8c0-2.9.3-5.8.8-8.7h-116.3c-1.2 0-2.2.7-2.5 1.9-1.1 3.6-2.8 7.1-5.1 10.1h123.2c-.1-1.1-.1-2.2-.1-3.3z" fill="#b2e26d"/><path d="m26.9 97.5c-3 2.3-6.4 4-10.1 5.1-1.1.3-1.9 1.4-1.9 2.5v48.7c0 1.2.7 2.2 1.9 2.5 3.6 1.1 7.1 2.8 10.1 5.1z" fill="#b2e26d"/><path d="m204.9 136.4c-25.6 0-46.7-19.8-48.4-45.3h-123.3c-3.5 0-6.3 2.8-6.3 6.3v112.8c0 3.5 2.8 6.3 6.3 6.3h197.3c3.5 0 6.3-2.8 6.3-6.3v-85.8c-8.8 7.7-20.1 12-31.9 12z" fill="#87d147"/><path d="m204.9 136.4c-20.8 0-39.2-13.2-46-32.9h-93.6c-1.2 0-2.2.7-2.5 1.9-3.1 10.4-11.3 18.5-21.6 21.6-1.1.3-1.9 1.4-1.9 2.5v48.7c0 1.2.7 2.2 1.9 2.5 10.4 3.1 18.5 11.2 21.6 21.6.3 1.1 1.4 1.9 2.5 1.9h133.1c1.2 0 2.2-.7 2.5-1.9 3.1-10.4 11.3-18.5 21.6-21.6 1.1-.3 1.9-1.4 1.9-2.5v-45.9c-6.1 2.7-12.8 4.1-19.5 4.1z" fill="#b2e26d"/><circle cx="131.8" cy="153.8" fill="#87d147" r="35.4"/><circle cx="204.9" cy="87.8" fill="#edf4fc" r="48.6"/><circle cx="204.9" cy="87.8" fill="#fcdd86" r="35.4"/><path d="m204.9 52.4v29.3c3.4 0 6.1 2.7 6.1 6.1h29.3c.1-19.6-15.8-35.4-35.4-35.4z" fill="#fc657e"/><circle cx="204.9" cy="87.8" fill="#edf4fc" r="6.1"/><path d="m241.7 20.9h-2.1v-2.1c0-1.5-1.3-2.8-2.8-2.8s-2.8 1.3-2.8 2.8v2.1h-2.1c-1.5 0-2.8 1.3-2.8 2.8s1.3 2.8 2.8 2.8h2.1v2.1c0 1.5 1.3 2.8 2.8 2.8s2.8-1.3 2.8-2.8v-2.1h2.1c1.5 0 2.8-1.3 2.8-2.8s-1.3-2.8-2.8-2.8z" fill="#70d6f9"/><path d="m169.8 234.9c-4-.7-7.1-3.8-7.9-7.7 0-.1-.1-.2-.2-.1-.1 0-.1.1-.1.1-.8 4-3.9 7-7.9 7.7-.1 0-.2.1-.2.2s.1.1.2.2c4 .7 7.1 3.8 7.9 7.7 0 .1.1.2.2.1.1 0 .1-.1.1-.1.8-4 3.9-7 7.9-7.7.1 0 .2-.1.2-.2 0-.2-.1-.2-.2-.2z" fill="#fc657e"/><path d="m100.3 49.4c-2.7-.5-4.9-2.6-5.5-5.3 0-.1-.1-.1-.1-.1-.1 0-.1 0-.1.1-.6 2.7-2.7 4.8-5.4 5.3-.1 0-.1.1-.1.1 0 .1 0 .1.1.1 2.7.5 4.9 2.6 5.4 5.3 0 .1.1.1.1.1.1 0 .1 0 .1-.1.6-2.7 2.7-4.8 5.5-5.3.1 0 .1-.1.1-.1s0-.1-.1-.1z" fill="#f5c84c"/><circle cx="253" cy="41" fill="#87d147" r="3"/><circle cx="139" cy="229" fill="#70d6f9" r="3"/><path d="m26.9 194.7h-18c-4.9 0-8.8-4-8.8-8.8v-112.9c0-4.9 4-8.8 8.8-8.8h152.3c1.4 0 2.5 1.1 2.5 2.5 0 .4-.1.7-.2 1.1-3 6.2-4.6 13.1-4.6 20 0 .9 0 1.9.1 3.1.1 1.4-.9 2.6-2.3 2.7-.1 0-.1 0-.2 0h-123.3c-2.1 0-3.8 1.7-3.8 3.8v94.8c0 1.4-1.2 2.5-2.5 2.5zm-18.1-125.5c-2.1 0-3.8 1.7-3.8 3.8v112.8c0 2.1 1.7 3.8 3.8 3.8h15.5v-92.2c0-4.9 4-8.8 8.8-8.8h120.7c0-.3 0-.5 0-.8 0-6.4 1.2-12.7 3.5-18.6z"/><path d="m215 30.4h-20.1c-2.4 0-4.3-1.9-4.3-4.3v-8.9c0-2.4 1.9-4.3 4.3-4.3h20.1c2.4 0 4.3 1.9 4.3 4.3v8.9c0 2.4-1.9 4.3-4.3 4.3zm-19.4-5h18.8v-7.5h-18.8z"/><path d="m204.9 125c-1.4 0-2.5-1.1-2.5-2.5v-6.1c0-1.4 1.1-2.5 2.5-2.5s2.5 1.1 2.5 2.5v6.1c0 1.4-1.1 2.5-2.5 2.5z"/><path d="m190.6 65.5c-.9 0-1.7-.5-2.2-1.2l-3-5.3c-.7-1.2-.3-2.7.9-3.4s2.7-.3 3.4.9l3 5.3c.7 1.2.3 2.7-.9 3.4-.3.2-.7.3-1.2.3z"/><path d="m222.3 120.4c-.9 0-1.7-.5-2.2-1.2l-3-5.3c-.7-1.2-.3-2.7.9-3.4s2.7-.3 3.4.9l3 5.3c.7 1.2.3 2.7-.9 3.4-.3.1-.8.3-1.2.3z"/><path d="m180.1 76c-.4 0-.9-.1-1.2-.3l-5.3-3c-1.2-.7-1.6-2.2-.9-3.4s2.2-1.6 3.4-.9l5.3 3c1.2.7 1.6 2.2.9 3.4-.4.7-1.3 1.2-2.2 1.2z"/><path d="m235 107.7c-.4 0-.9-.1-1.2-.3l-5.3-3c-1.2-.7-1.6-2.2-.9-3.4s2.2-1.6 3.4-.9l5.3 3c1.2.7 1.6 2.2.9 3.4-.5.7-1.3 1.2-2.2 1.2z"/><path d="m176.3 90.3h-6.1c-1.4 0-2.5-1.1-2.5-2.5s1.1-2.5 2.5-2.5h6.1c1.4 0 2.5 1.1 2.5 2.5s-1.1 2.5-2.5 2.5z"/><path d="m174.9 107.7c-1.4 0-2.5-1.1-2.5-2.5 0-.9.5-1.7 1.3-2.2l5.3-3c1.2-.7 2.7-.3 3.4.9s.3 2.7-.9 3.4l-5.3 3c-.5.2-.9.4-1.3.4z"/><path d="m229.7 76c-1.4 0-2.5-1.1-2.5-2.5 0-.9.5-1.7 1.3-2.2l5.3-3c1.2-.7 2.7-.3 3.4.9s.3 2.7-.9 3.4l-5.3 3c-.4.3-.8.4-1.3.4z"/><path d="m187.6 120.4c-1.4 0-2.5-1.1-2.5-2.5 0-.4.1-.9.3-1.2l3-5.3c.7-1.2 2.2-1.6 3.4-.9s1.6 2.2.9 3.4l-3 5.3c-.4.7-1.2 1.2-2.1 1.2z"/><path d="m219.2 65.5c-1.4 0-2.5-1.1-2.5-2.5 0-.4.1-.9.3-1.2l3-5.3c.7-1.2 2.2-1.6 3.4-.9s1.6 2.2.9 3.4l-3 5.3c-.3.7-1.2 1.2-2.1 1.2z"/><path d="m211.2 42.1c-.1 0-.2 0-.3 0-3.9-.5-7.9-.5-11.9 0-1.4.2-2.6-.8-2.8-2.2 0-.1 0-.2 0-.3v-11.7c0-1.4 1.1-2.5 2.5-2.5h12.5c1.4 0 2.5 1.1 2.5 2.5v11.7c0 1.4-1.1 2.5-2.5 2.5zm-10-11.7v6.5c2.5-.2 5-.2 7.5 0v-6.5z"/><path d="m175.4 51.8c-.9 0-1.7-.5-2.2-1.2l-4.7-8.1c-1.6-2.8-.6-6.3 2.1-7.9l5.3-3c2.8-1.6 6.3-.7 7.9 2.1l4.7 8.1c.7 1.2.3 2.7-.9 3.4-.1.1-.2.1-.3.1-3.7 1.5-7.2 3.6-10.4 6-.4.3-1 .5-1.5.5zm3.4-16.1c-.1 0-.3 0-.4.1l-5.3 3c-.4.2-.5.7-.3 1.1l3.3 5.7c2.1-1.5 4.4-2.7 6.7-3.9l-3.3-5.7c-.1-.2-.3-.3-.5-.4 0 .1-.1.1-.2.1z"/><path d="m136.2 171.9h-13.8c-1.4 0-2.5-1.1-2.5-2.5s1.1-2.5 2.5-2.5h13.8c2.9 0 5.3-2.3 5.4-5.2 0-2.9-2.3-5.3-5.2-5.4h-.1-8.7c-5.7 0-10.3-4.6-10.3-10.3s4.6-10.3 10.3-10.3h12.3c1.4 0 2.5 1.1 2.5 2.5s-1.1 2.5-2.5 2.5h-12.3c-2.9 0-5.3 2.4-5.3 5.3s2.4 5.3 5.3 5.3h8.7c5.7-.1 10.4 4.5 10.4 10.2.1 5.7-4.5 10.4-10.2 10.4-.2 0-.3 0-.3 0z"/><path d="m131.8 177.3c-1.4 0-2.5-1.1-2.5-2.5v-41.9c0-1.4 1.1-2.5 2.5-2.5s2.5 1.1 2.5 2.5v41.9c0 1.4-1.1 2.5-2.5 2.5z"/><path d="m77.2 156.3h-7.5c-1.4 0-2.5-1.1-2.5-2.5s1.1-2.5 2.5-2.5h7.5c1.4 0 2.5 1.1 2.5 2.5s-1.1 2.5-2.5 2.5z"/><path d="m194 156.3h-7.5c-1.4 0-2.5-1.1-2.5-2.5s1.1-2.5 2.5-2.5h7.5c1.4 0 2.5 1.1 2.5 2.5s-1.2 2.5-2.5 2.5z"/><path d="m183.5 18.5h-57c-1.4 0-2.5-1.1-2.5-2.5s1.1-2.5 2.5-2.5h57c1.4 0 2.5 1.1 2.5 2.5s-1.1 2.5-2.5 2.5z"/><path d="m155.5 58h-17c-1.4 0-2.5-1.1-2.5-2.5s1.1-2.5 2.5-2.5h17c1.4 0 2.5 1.1 2.5 2.5s-1.1 2.5-2.5 2.5z"/><path d="m126.5 44.9c-1.4 0-2.5-1.1-2.5-2.4 0-1.4 1.1-2.6 2.5-2.7h33c1.4 0 2.5 1.1 2.5 2.5s-1.1 2.6-2.5 2.6z"/><path d="m167.5 31.7h-29c-1.4 0-2.5-1.1-2.5-2.5s1.1-2.5 2.5-2.5h29c1.4 0 2.5 1.1 2.5 2.5s-1.1 2.5-2.5 2.5z"/><path d="m156.5 93.6h-123.2c-1.4 0-2.5-1.1-2.5-2.5 0-.5.2-1.1.5-1.5 2.1-2.8 3.7-5.9 4.7-9.3.7-2.2 2.6-3.6 4.9-3.6h116.2c1.4 0 2.5 1.1 2.5 2.5v.4c-.5 2.7-.7 5.5-.7 8.2 0 .9 0 1.9.1 3.1.1 1.4-.9 2.6-2.3 2.7-.1 0-.2 0-.2 0zm-118.6-5h116c0-.3 0-.5 0-.8 0-2.1.1-4.1.4-6.2h-113.4c-.1 0-.1 0-.1.1-.7 2.4-1.7 4.7-2.9 6.9z"/><path d="m26.9 163.9c-.5 0-1.1-.2-1.5-.5-2.8-2.1-5.9-3.7-9.3-4.7-2.2-.7-3.6-2.7-3.6-4.9v-48.7c0-2.3 1.5-4.2 3.6-4.9 3.4-1 6.5-2.6 9.3-4.7 1.1-.8 2.7-.6 3.5.5.3.4.5 1 .5 1.5v63.9c0 1.4-1.2 2.5-2.5 2.5zm-2.5-61.8c-2.2 1.2-4.5 2.2-6.9 2.9 0 0-.1.1-.1.1v48.7c0 .1 0 .1.1.1 2.4.7 4.7 1.7 6.9 2.9z"/><path d="m230.5 219.1h-197.3c-4.9 0-8.8-4-8.8-8.8v-112.9c0-4.9 4-8.8 8.8-8.8h123.3c1.3 0 2.4 1 2.5 2.3 1.7 25.4 23.7 44.6 49 42.9 10-.7 19.6-4.6 27.2-11.2 1-.9 2.6-.8 3.5.2.4.5.6 1 .6 1.6v85.8c0 4.9-3.9 8.8-8.8 8.9zm-197.3-125.5c-2.1 0-3.8 1.7-3.8 3.8v112.8c0 2.1 1.7 3.8 3.8 3.8h197.3c2.1 0 3.8-1.7 3.8-3.8v-80.7c-23 16.2-54.9 10.7-71.1-12.3-4.9-7-8-15.1-9-23.7h-121z"/><path d="m198.4 206.6h-133.1c-2.3 0-4.2-1.5-4.9-3.6-2.9-9.6-10.4-17.1-19.9-19.9-2.2-.7-3.6-2.7-3.6-4.9v-48.7c0-2.3 1.5-4.2 3.6-4.9 9.6-2.9 17.1-10.4 19.9-19.9.7-2.2 2.6-3.6 4.9-3.6h93.7c1.1 0 2 .7 2.4 1.7 8.2 24.1 34.4 36.9 58.5 28.7 1.2-.4 2.4-.9 3.6-1.4 1.3-.6 2.7 0 3.3 1.3.1.3.2.7.2 1v45.8c0 2.3-1.5 4.2-3.6 4.9-9.6 2.9-17.1 10.4-19.9 19.9-.8 2.1-2.8 3.6-5.1 3.6zm-133.1-100.6c-.1 0-.1 0-.1.1-3.3 11.2-12.1 20-23.3 23.3 0 0-.1.1-.1.1v48.7c0 .1 0 .1.1.1 11.2 3.3 20 12.1 23.3 23.3 0 0 .1.1.1.1h133.1c.1 0 .1 0 .1-.1 3.3-11.2 12.1-20 23.3-23.3 0 0 .1-.1.1-.1v-42.2c-26.1 9.2-54.8-4.1-64.7-30z"/><path d="m131.8 191.7c-20.9 0-37.9-17-37.9-37.9s17-37.9 37.9-37.9 37.9 17 37.9 37.9c0 20.9-16.9 37.9-37.9 37.9zm0-70.8c-18.2 0-32.9 14.7-32.9 32.9s14.7 32.9 32.9 32.9 32.9-14.7 32.9-32.9c0-18.2-14.7-32.9-32.9-32.9z"/><path d="m204.9 138.9c-28.2 0-51.1-22.9-51.1-51.1s22.9-51.1 51.1-51.1 51.1 22.9 51.1 51.1-22.9 51-51.1 51.1zm0-97.2c-25.4 0-46.1 20.6-46.1 46.1s20.6 46.1 46.1 46.1 46.1-20.7 46.1-46.1-20.6-46-46.1-46.1z"/><path d="m204.9 125.7c-21 0-37.9-17-37.9-37.9 0-21 17-37.9 37.9-37.9 21 0 37.9 17 37.9 37.9s-16.9 37.9-37.9 37.9zm0-70.8c-18.2 0-32.9 14.7-32.9 32.9s14.7 32.9 32.9 32.9 32.9-14.7 32.9-32.9c0-18.2-14.7-32.9-32.9-32.9z"/><path d="m240.4 90.3h-29.4c-1.4 0-2.5-1.1-2.5-2.5 0-2-1.6-3.6-3.6-3.6-1.4 0-2.5-1.1-2.5-2.5v-29.3c0-1.4 1.1-2.5 2.5-2.5 20.9 0 37.9 17 37.9 37.9.1 1.4-1.1 2.5-2.4 2.5zm-27.3-5h24.6c-1.3-16.2-14.1-29.1-30.3-30.3v24.6c2.8.8 4.9 3 5.7 5.7z"/><path d="m204.9 96.4c-4.7 0-8.6-3.8-8.6-8.6 0-4.7 3.8-8.6 8.6-8.6 4.7 0 8.6 3.8 8.6 8.6 0 4.7-3.8 8.6-8.6 8.6zm0-12.2c-2 0-3.6 1.6-3.6 3.6s1.6 3.6 3.6 3.6 3.6-1.6 3.6-3.6c0-2-1.6-3.6-3.6-3.6z"/></g></svg>