<?xml version="1.0" encoding="iso-8859-1"?>
<!-- Generator: Adobe Illustrator 19.0.0, SVG Export Plug-In . SVG Version: 6.00 Build 0)  -->
<svg version="1.1" id="Capa_1" xmlns="http://www.w3.org/2000/svg" xmlns:xlink="http://www.w3.org/1999/xlink" x="0px" y="0px"
	 viewBox="0 0 511.998 511.998" style="enable-background:new 0 0 511.998 511.998;" xml:space="preserve">
<path style="fill:#DBD9DC;" d="M477.765,286.704l-43.272-17.024H280.894l-43.272,17.024c-16.592,6.528-27.234,22.843-26.52,40.658
	l5.79,144.57h281.604l5.79-144.57C504.999,309.547,494.357,293.232,477.765,286.704z"/>
<rect x="308.82" y="213.609" style="fill:#B48764;" width="97.75" height="83.78"/>
<path style="fill:#5C414B;" d="M357.693,39.281c-34.858,1.884-54.69,20.945-54.69,20.945s-29.091,0-29.091,34.909
	c0,27.927,6.982,55.635,6.982,55.635h160.581C455.438,73.971,422.275,35.791,357.693,39.281z"/>
<path style="fill:#503441;" d="M315.803,121.959c-25.648-32.067-12.8-61.732-12.8-61.732s-29.091,0-29.091,34.909
	c0,27.927,6.982,55.635,6.982,55.635h34.909V121.959z"/>
<path style="fill:#C39772;" d="M434.493,143.789h-6.982l-13.695-16.55c-62.835,13.091-95.763-14.046-95.763-14.046
	c-3.436,21.728-24.479,38.094-24.479,38.094l-12.917-7.499c-0.004,0-0.007,0.002-0.011,0.002c-0.761,0.014-1.538,0.094-2.33,0.246
	c-6.801,1.308-11.386,7.807-11.386,14.732v5.056c0,6.82,4.483,13.212,11.164,14.584c1.333,0.274,2.631,0.345,3.878,0.245
	c3.434-0.275,6.489,2.192,7.103,5.583c5.898,32.577,34.34,57.297,68.618,57.297c34.245,0,62.666-24.673,68.602-57.204
	c0.602-3.299,3.45-5.702,6.759-5.632h1.439c7.712,0,13.964-6.252,13.964-13.964v-6.982
	C448.457,150.041,442.205,143.789,434.493,143.789z"/>
<path style="fill:#EDEBED;" d="M467.708,334.211l30.376-30.376c4.238,6.914,6.543,15.032,6.202,23.528l-5.79,144.57h-43.057V363.831
	C455.439,352.721,459.852,342.066,467.708,334.211z"/>
<polygon style="fill:#5D5360;" points="370.679,297.707 342.612,297.707 335.594,471.933 377.696,471.933 "/>
<polygon style="fill:#4B3F4E;" points="372.207,335.659 370.679,297.707 342.612,297.707 341.084,335.659 "/>
<g>
	<path style="fill:#EDEBED;" d="M357.693,297.607l-55.854-48.872l-20.945,20.945l32.443,48.664
		c4.888,7.332,15.261,8.359,21.492,2.128L357.693,297.607z"/>
	<path style="fill:#EDEBED;" d="M357.693,297.607l55.854-48.872l20.945,20.945l-32.443,48.664
		c-4.888,7.332-15.261,8.359-21.492,2.128L357.693,297.607z"/>
</g>
<path style="fill:#B48764;" d="M371.536,240.112c-31.806-6.515-55.733-34.662-55.733-68.396v-50.121
	c-6.459,17.405-22.228,29.693-22.228,29.693l-12.918-7.498c-0.004,0-0.007,0.002-0.011,0.002c-0.761,0.014-1.538,0.094-2.33,0.246
	c-6.801,1.308-11.385,7.807-11.385,14.732v5.056c0,6.82,4.482,13.212,11.163,14.585c1.333,0.273,2.63,0.345,3.878,0.245
	c3.434-0.275,6.489,2.192,7.103,5.583c5.899,32.577,34.341,57.296,68.619,57.296C362.439,241.534,367.058,241.016,371.536,240.112z"
	/>
<path style="fill:#5D5360;" d="M233.792,327.794l-37.667-16.442H70.379l-37.667,16.442c-15.857,6.922-25.827,22.88-25.094,40.166
	l4.407,103.973H254.48l4.407-103.973C259.619,350.674,249.649,334.716,233.792,327.794z"/>
<rect x="98.34" y="262.479" style="fill:#FAD7A5;" width="69.818" height="69.818"/>
<circle style="fill:#DEAF73;" cx="133.25" cy="80.953" r="41.891"/>
<ellipse style="fill:#D59F63;" cx="133.25" cy="154.259" rx="83.78" ry="80.29"/>
<path style="fill:#CD915A;" d="M105.325,164.734C77.398,136.807,73.223,112.73,73.883,97.62
	c-15.083,14.52-24.412,34.534-24.412,56.641c0,15.142,4.391,29.283,12.003,41.351L105.325,164.734z"/>
<path style="fill:#FFE1B4;" d="M212.857,178.989c-0.559-0.182-4.003-0.291-4.003-0.291c-3.704,0-7.255-1.471-9.874-4.09
	l-9.615-7.288c0,0-49.433,10.354-94.19-19.372c-4.342,12.692-12.024,22.378-25.718,35.071l-13.241-4.321
	c-0.004,0-0.007,0.002-0.011,0.002c-0.765,0.014-1.547,0.095-2.343,0.249c-6.795,1.313-11.373,7.809-11.373,14.73v5.058
	c0,6.817,4.48,13.207,11.158,14.581c1.337,0.275,2.64,0.347,3.891,0.246c3.43-0.277,6.482,2.19,7.095,5.577
	c5.895,32.58,34.339,57.303,68.619,57.303c34.215,0,62.617-24.63,68.586-57.118c0.628-3.415,3.674-6.05,7.132-5.734
	c1.463,0.134,2.989,0.037,4.543-0.332c6.506-1.547,10.741-7.922,10.579-14.608c-0.077-3.17-0.077-6.274-0.077-6.274
	C224.015,185.805,219.106,181.018,212.857,178.989z"/>
<g>
	<path style="fill:#6F6571;" d="M45.124,367.576l-25.51-30.612c-7.931,8.109-12.497,19.205-11.997,30.996l4.407,103.973h44.428
		v-73.069C56.452,387.431,52.444,376.359,45.124,367.576z"/>
	<path style="fill:#6F6571;" d="M221.38,367.576l25.51-30.612c7.931,8.109,12.497,19.205,11.997,30.996l-4.407,103.973h-44.428
		v-73.069C210.052,387.431,214.06,376.359,221.38,367.576z"/>
</g>
<path style="fill:#FAD7A5;" d="M91.361,206.625v-49.857c-4.634,8.764-11.545,16.649-21.903,26.25l-13.241-4.321
	c-0.004,0-0.008,0.002-0.012,0.002c-0.765,0.014-1.546,0.095-2.343,0.249c-6.795,1.313-11.372,7.809-11.372,14.73v5.058
	c0,6.817,4.48,13.207,11.157,14.581c1.338,0.275,2.64,0.347,3.892,0.246c3.43-0.278,6.482,2.19,7.095,5.577
	c5.895,32.58,34.339,57.303,68.619,57.303c4.747,0,9.365-0.519,13.844-1.422C115.288,268.506,91.361,240.36,91.361,206.625z"/>
<g>
	<path style="fill:#6F6571;" d="M131.296,331.597l-42.101-42.101l-21.05,21.05l25.963,42.143c2.258,3.665,7.254,4.452,10.529,1.657
		L131.296,331.597z"/>
	<path style="fill:#6F6571;" d="M131.296,331.597l42.101-42.101l21.05,21.05l-25.963,42.143c-2.258,3.665-7.254,4.452-10.529,1.657
		L131.296,331.597z"/>
</g>
<path d="M315.046,361.686h-28.067c-4.142,0-7.5,3.358-7.5,7.5c0,4.143,3.358,7.5,7.5,7.5h28.067c4.142,0,7.5-3.357,7.5-7.5
	C322.546,365.044,319.188,361.686,315.046,361.686z"/>
<path d="M480.248,281.394l-40.841-15.753l-20.823-20.823c-1.337-1.337-3.06-2.061-4.82-2.174v-16.569
	c9.814-10.464,16.8-23.715,19.619-38.643c1.75,0.079,3.517-0.062,5.26-0.418c9.979-2.043,17.222-11.302,17.222-22.014v-5.469
	c0-6.197-2.513-11.885-6.605-15.952c6.623-36.02,1.168-65.374-15.846-85.021c-16.457-19.003-42.971-28.086-76.672-26.263
	c-31.136,1.683-51.236,16.009-57.604,21.25c-3.486,0.414-9.424,1.638-15.434,5.244c-8.33,4.998-18.259,15.497-18.259,37.13
	c0,18.872,3.016,34.628,5.2,43.567c-7.32,3.566-12.217,11.294-12.217,20.129v5.384c0,10.712,7.243,19.971,17.222,22.014
	c1.743,0.357,3.511,0.497,5.26,0.418c2.819,14.928,9.806,28.179,19.619,38.643v16.569c-1.76,0.113-3.484,0.837-4.82,2.174
	l-20.823,20.823l-40.841,15.753c-3.533,1.362-6.908,3.129-10.03,5.25c-3.426,2.328-4.316,6.992-1.989,10.418
	c1.451,2.136,3.81,3.286,6.21,3.286c1.451,0,2.917-0.421,4.208-1.297c2.177-1.479,4.532-2.711,6.999-3.663l37.903-14.62
	l28.98,43.471c3.592,5.389,9.35,8.846,15.795,9.484c0.717,0.071,1.434,0.106,2.146,0.106c3.731,0,7.351-0.981,10.555-2.794
	l-6.219,141.068c-0.183,4.138,3.024,7.641,7.163,7.823c0.112,0.005,0.224,0.007,0.336,0.007c3.99,0,7.31-3.145,7.487-7.17
	l5.772-130.941h15.57l5.772,130.941c0.177,4.026,3.497,7.17,7.487,7.17c0.112,0,0.224-0.002,0.336-0.007
	c4.138-0.182,7.345-3.685,7.163-7.823l-6.219-141.068c3.204,1.813,6.823,2.794,10.555,2.794c0.712,0,1.429-0.035,2.146-0.106
	c6.445-0.638,12.202-4.095,15.795-9.484l28.98-43.471l37.903,14.62c5.316,2.05,9.892,5.321,13.49,9.402l-25.931,25.931
	c-9.369,9.369-14.528,21.825-14.528,35.073v106.64c0,4.142,3.358,7.5,7.5,7.5s7.5-3.358,7.5-7.5v-106.64
	c0-9.241,3.599-17.931,10.134-24.466l22.758-22.758c0.914,3.353,1.341,6.878,1.197,10.482l-5.809,143.078
	c-0.168,4.139,3.051,7.63,7.189,7.799c0.104,0.004,0.207,0.006,0.31,0.006c4.001,0,7.325-3.161,7.488-7.195l5.811-143.082
	C512.809,308.433,500.066,289.038,480.248,281.394z M357.146,289.272l-41.617-36.415v-14.354c12.1,7.695,26.416,12.1,41.617,12.1
	s29.518-4.405,41.618-12.1v14.354L357.146,289.272z M280.404,172.437c-0.569,0.041-1.155,0.001-1.745-0.119
	c-2.982-0.61-5.231-3.757-5.231-7.318v-5.386c0-3.479,2.325-6.613,5.292-7.134c2.504-0.44,4.902,0.479,6.419,2.458
	c1.377,1.795,3.214,3.079,5.311,3.711c3.072,0.928,6.459,0.383,9.063-1.455c4.69-3.311,8.828-7.356,12.299-12.024
	c2.472-3.324,1.78-8.022-1.543-10.493c-3.325-2.472-8.022-1.781-10.494,1.543c-1.731,2.328-3.687,4.441-5.84,6.311
	c-2.378-2.034-5.156-3.504-8.133-4.343c-1.927-7.382-5.357-23.197-5.357-42.271c0-11.487,3.541-19.558,10.524-23.988
	c5.449-3.457,11.216-3.595,11.212-3.596c1.917,0,3.783-0.755,5.175-2.072c0.183-0.172,18.62-17.282,50.194-18.989
	c28.902-1.56,51.214,5.736,64.523,21.104c13.414,15.49,17.881,39.271,13.035,69.036c-2.009-0.071-4.208,0.081-6.397,0.446
	l-7.046-16.922c-1.438-3.452-5.204-5.316-8.822-4.373c-0.697,0.182-69.958,17.74-98.999-18.416
	c-2.593-3.229-7.313-3.745-10.544-1.151c-3.229,2.594-3.745,7.314-1.15,10.544c29.656,36.922,88.5,28.89,108.088,24.973
	l5.449,13.085c2.343,5.625,8.337,8.697,14.245,7.304c2.425-0.571,4.742-0.584,5.612-0.412c3.033,0.604,5.32,3.629,5.32,7.039v5.47
	c0,3.562-2.249,6.708-5.231,7.318c-0.589,0.121-1.178,0.161-1.745,0.119c-7.196-0.524-13.864,4.7-15.188,11.903
	c-5.456,29.704-31.343,51.264-61.554,51.264c-30.211,0-56.098-21.56-61.554-51.264C294.269,177.138,287.601,171.904,280.404,172.437
	z M323.6,318.796c-1.149-0.113-3.3-0.639-4.792-2.877l-29.195-43.792l11.741-11.741l44.82,39.218l-17.311,17.311
	C326.961,318.817,324.75,318.91,323.6,318.796z M350.022,326.823l0.454-10.309l6.669-6.669l6.669,6.669l0.454,10.308
	L350.022,326.823L350.022,326.823z M395.486,315.919c-1.493,2.239-3.644,2.764-4.792,2.877c-1.151,0.114-3.362,0.021-5.264-1.882
	l-17.311-17.311l44.82-39.218l11.741,11.741L395.486,315.919z"/>
<path d="M237.845,320.699l-36.622-15.985l-20.019-20.019c-1.341-1.342-3.065-2.062-4.82-2.174v-11.799
	c17.109-11.243,29.629-29.124,33.652-50.431c1.97,0.088,3.959-0.101,5.919-0.564c9.597-2.271,16.562-11.468,16.562-21.868v-5.468
	c0-7.598-3.77-14.433-9.611-18.443c1.718-6.806,2.594-13.769,2.594-20.778c0-31.072-16.796-58.44-42.113-74.154
	c-0.27-25.933-22.405-46.953-49.588-46.953s-49.318,21.02-49.588,46.953C58.895,94.73,42.099,122.099,42.099,153.17
	c0,6.988,0.87,13.931,2.578,20.718c-5.838,3.99-9.595,10.857-9.595,18.585v5.386c0,10.4,6.965,19.597,16.562,21.868
	c1.96,0.464,3.948,0.652,5.919,0.564c4.023,21.307,16.544,39.188,33.653,50.431v11.799c-1.755,0.112-3.479,0.832-4.82,2.174
	l-20.019,20.019l-36.621,15.985c-18.633,8.134-30.573,27.246-29.712,47.559l4.429,104.493c0.171,4.03,3.492,7.183,7.488,7.183
	c0.107,0,0.215-0.002,0.323-0.007c4.139-0.175,7.351-3.672,7.176-7.811l-4.43-104.494c-0.285-6.733,1.465-13.266,4.755-18.889
	l19.685,23.622c6.221,7.465,9.646,16.927,9.646,26.643v73.436c0,4.142,3.358,7.5,7.5,7.5s7.5-3.358,7.5-7.5v-73.436
	c0-13.218-4.661-26.09-13.123-36.245L30.066,337.64c1.779-1.226,3.67-2.312,5.691-3.194l31.916-13.932l22.554,36.609
	c2.227,3.615,5.909,6.066,10.103,6.726c0.754,0.119,1.51,0.177,2.263,0.177c3.429,0,6.769-1.215,9.417-3.475l14.292-12.195v124.077
	c0,4.142,3.358,7.5,7.5,7.5s7.5-3.358,7.5-7.5V348.358l14.291,12.195c2.648,2.26,5.988,3.475,9.417,3.475
	c0.752,0,1.509-0.059,2.263-0.177c4.194-0.66,7.876-3.111,10.103-6.726l22.554-36.61l31.916,13.932
	c2.02,0.882,3.912,1.968,5.691,3.194l-20.927,25.113c-8.462,10.154-13.123,23.027-13.123,36.245v73.436c0,4.142,3.358,7.5,7.5,7.5
	s7.5-3.358,7.5-7.5v-73.436c0-9.716,3.426-19.178,9.646-26.643l19.685-23.622c3.29,5.623,5.04,12.156,4.755,18.889l-4.429,104.494
	c-0.175,4.138,3.037,7.635,7.176,7.811c0.108,0.005,0.215,0.007,0.323,0.007c3.996,0,7.317-3.152,7.488-7.183l4.429-104.493
	C268.42,347.946,256.479,328.833,237.845,320.699z M133.801,47.063c15.956,0,29.418,10.179,33.399,23.971
	c-10.354-3.908-21.62-6.057-33.399-6.057s-23.045,2.149-33.399,6.057C104.383,57.242,117.844,47.063,133.801,47.063z M72.246,217.2
	c-1.322-7.203-8.001-12.435-15.187-11.903c-0.637,0.045-1.295-0.009-1.959-0.167c-2.86-0.677-5.017-3.803-5.017-7.271v-5.386
	c0-3.479,2.325-6.613,5.292-7.134c2.504-0.44,4.901,0.48,6.417,2.457c1.377,1.796,3.214,3.08,5.313,3.714
	c3.071,0.928,6.46,0.383,9.062-1.456c4.619-3.26,8.703-7.234,12.139-11.81c2.487-3.312,1.818-8.014-1.494-10.5
	c-3.313-2.487-8.014-1.818-10.501,1.494c-1.701,2.265-3.616,4.324-5.722,6.153c-3.209-2.744-7.144-4.462-11.318-4.983
	c-1.437-5.649-2.172-11.426-2.172-17.237c0-40.358,34.408-73.193,76.702-73.193c42.293,0,76.701,32.834,76.701,73.193
	c0,5.8-0.731,11.565-2.163,17.204c-1.974,0.157-3.98,0.48-5.837,0.962l-5.638-4.636c-2.833-2.33-6.399-3.496-10.008-3.281
	c-11.024,0.651-67.482,2.142-96.448-32.524c-2.656-3.178-7.385-3.602-10.564-0.946s-3.602,7.386-0.946,10.564
	c14.286,17.097,35.239,28.658,62.276,34.362c20.701,4.367,39.103,3.943,46.313,3.532l8.796,7.233
	c2.421,1.991,5.816,2.272,8.527,0.694c1.272-0.693,5.532-1.355,7.391-0.984c3.033,0.603,5.319,3.629,5.319,7.04v5.468
	c0,3.469-2.157,6.595-5.017,7.271c-0.663,0.157-1.322,0.214-1.959,0.166c-7.182-0.522-13.865,4.701-15.188,11.903
	c-5.456,29.705-31.343,51.265-61.554,51.265C103.59,268.464,77.702,246.904,72.246,217.2z M133.801,283.464
	c9.668,0,18.973-1.795,27.584-5.072v15.515l-27.584,27.584l-27.584-27.584v-15.516C114.828,281.669,124.133,283.464,133.801,283.464
	z M102.702,348.776L80.144,312.16L91.7,300.604l31.058,31.058L102.702,348.776z M164.9,348.776l-20.056-17.114l31.058-31.058
	l11.556,11.556L164.9,348.776z"/>
<path d="M105.734,394.766h-21.05c-4.142,0-7.5,3.358-7.5,7.5s3.358,7.5,7.5,7.5h21.05c4.142,0,7.5-3.358,7.5-7.5
	S109.876,394.766,105.734,394.766z"/>
<g>
</g>
<g>
</g>
<g>
</g>
<g>
</g>
<g>
</g>
<g>
</g>
<g>
</g>
<g>
</g>
<g>
</g>
<g>
</g>
<g>
</g>
<g>
</g>
<g>
</g>
<g>
</g>
<g>
</g>
</svg>
