<svg height="496pt" viewBox="0 -15 496 495" width="496pt" xmlns="http://www.w3.org/2000/svg"><path d="m328 192.5v-48h-50.640625c-2.84375-12.910156-7.964844-25.207031-15.121094-36.320312l35.839844-35.839844-33.917969-33.917969-35.839844 35.839844c-11.113281-7.15625-23.410156-12.277344-36.320312-15.121094v-50.640625h-48v50.640625c-12.910156 2.84375-25.207031 7.964844-36.320312 15.121094l-35.839844-35.839844-33.917969 33.917969 35.839844 35.839844c-7.15625 11.113281-12.277344 23.410156-15.121094 36.320312h-50.640625v48h50.640625c2.84375 12.910156 7.964844 25.207031 15.121094 36.320312l-35.839844 35.839844 33.917969 33.917969 35.839844-35.839844c11.113281 7.15625 23.410156 12.277344 36.320312 15.121094v50.640625h48v-50.640625c12.910156-2.84375 25.207031-7.964844 36.320312-15.121094l35.839844 35.839844 33.917969-33.917969-35.839844-35.839844c7.15625-11.113281 12.277344-23.410156 15.121094-36.320312zm-160 32c-30.929688 0-56-25.070312-56-56s25.070312-56 56-56 56 25.070312 56 56c.011719 14.855469-5.886719 29.105469-16.390625 39.609375s-24.753906 16.402344-39.609375 16.390625zm0 0" fill="#3e3d42"/><path d="m168 88.5c-44.183594 0-80 35.816406-80 80s35.816406 80 80 80 80-35.816406 80-80-35.816406-80-80-80zm0 136c-30.929688 0-56-25.070312-56-56s25.070312-56 56-56 56 25.070312 56 56c.011719 14.855469-5.886719 29.105469-16.390625 39.609375s-24.753906 16.402344-39.609375 16.390625zm0 0" fill="#d80027"/><path d="m40 376.5h416c17.671875 0 32 14.328125 32 32v16c0 17.671875-14.328125 32-32 32h-416c-17.671875 0-32-14.328125-32-32v-16c0-17.671875 14.328125-32 32-32zm0 0" fill="#787680"/><path d="m264 416.5c0 8.835938-7.164062 16-16 16s-16-7.164062-16-16 7.164062-16 16-16 16 7.164062 16 16zm0 0" fill="#acabb1"/><path d="m184 416.5c0 8.835938-7.164062 16-16 16s-16-7.164062-16-16 7.164062-16 16-16 16 7.164062 16 16zm0 0" fill="#acabb1"/><path d="m344 416.5c0 8.835938-7.164062 16-16 16s-16-7.164062-16-16 7.164062-16 16-16 16 7.164062 16 16zm0 0" fill="#acabb1"/><path d="m104 416.5c0 8.835938-7.164062 16-16 16s-16-7.164062-16-16 7.164062-16 16-16 16 7.164062 16 16zm0 0" fill="#acabb1"/><path d="m424 416.5c0 8.835938-7.164062 16-16 16s-16-7.164062-16-16 7.164062-16 16-16 16 7.164062 16 16zm0 0" fill="#acabb1"/><path d="m448 376.5h-72v-72h72zm0 0" fill="#ffd422"/><path d="m424 304.5h-72v-72h72zm0 0" fill="#ffcd00"/><path d="m376 376.5h-72v-72h72zm0 0" fill="#cca400"/><g fill="#231f20"><path d="m8 200.5h44.382812c2.625 9.464844 6.40625 18.570312 11.265626 27.105469l-31.410157 31.398437c-1.5 1.5-2.34375 3.535156-2.34375 5.660156s.84375 4.160157 2.34375 5.660157l33.9375 33.945312c3.125 3.121094 8.1875 3.121094 11.3125 0l31.414063-31.417969c8.535156 4.859376 17.632812 8.644532 27.097656 11.265626v44.382812c0 4.417969 3.582031 8 8 8h48c4.417969 0 8-3.582031 8-8v-44.382812c9.464844-2.621094 18.5625-6.40625 27.097656-11.265626l31.414063 31.417969c3.175781 3 8.140625 3 11.3125 0l33.945312-33.945312c1.5-1.5 2.34375-3.535157 2.34375-5.660157s-.84375-4.160156-2.34375-5.660156l-31.417969-31.398437c4.859376-8.535157 8.640626-17.640625 11.265626-27.105469h44.382812c4.417969 0 8-3.582031 8-8v-48c0-4.417969-3.582031-8-8-8h-44.382812c-2.625-9.464844-6.40625-18.570312-11.265626-27.105469l31.410157-31.398437c1.5-1.5 2.34375-3.535156 2.34375-5.660156s-.84375-4.160157-2.34375-5.660157l-33.9375-33.945312c-3.125-3.121094-8.1875-3.121094-11.3125 0l-31.414063 31.417969c-8.535156-4.855469-17.636718-8.640626-27.097656-11.265626v-44.382812c0-4.417969-3.582031-8-8-8h-48c-4.417969 0-8 3.582031-8 8v44.382812c-9.460938 2.625-18.5625 6.410157-27.097656 11.265626l-31.414063-31.417969c-3.175781-3-8.140625-3-11.3125 0l-33.945312 33.945312c-1.5 1.5-2.34375 3.535157-2.34375 5.660157s.84375 4.160156 2.34375 5.660156l31.417969 31.398437c-4.859376 8.535157-8.640626 17.640625-11.265626 27.105469h-44.382812c-4.417969 0-8 3.582031-8 8v48c0 4.417969 3.582031 8 8 8zm8-48h42.640625c3.757813 0 7.011719-2.617188 7.816406-6.289062 2.625-11.980469 7.371094-23.398438 14.015625-33.710938 2.027344-3.164062 1.578125-7.316406-1.082031-9.976562l-30.191406-30.191407 22.632812-22.632812 30.183594 30.191406c2.660156 2.664063 6.816406 3.113281 9.984375 1.082031 10.316406-6.640625 21.730469-11.386718 33.710938-14.015625 3.671874-.804687 6.289062-4.058593 6.289062-7.816406v-42.640625h32v42.640625c0 3.757813 2.617188 7.011719 6.289062 7.816406 11.980469 2.628907 23.394532 7.375 33.710938 14.015625 3.167969 2.03125 7.324219 1.582032 9.984375-1.082031l30.183594-30.191406 22.625 22.632812-30.183594 30.183594c-2.664063 2.660156-3.113281 6.816406-1.082031 9.984375 6.644531 10.316406 11.386718 21.734375 14.007812 33.71875.804688 3.671875 4.058594 6.289062 7.816406 6.289062h42.648438v32h-42.648438c-3.757812 0-7.011718 2.617188-7.816406 6.289063-2.621094 11.980469-7.367187 23.394531-14.007812 33.703125-2.027344 3.164062-1.578125 7.316406 1.082031 9.976562l30.191406 30.183594-22.632812 22.640625-30.183594-30.191406c-2.660156-2.664063-6.816406-3.113281-9.984375-1.082031-10.308594 6.644531-21.722656 11.390625-33.703125 14.015625-3.675781.800781-6.296875 4.054687-6.296875 7.816406v42.640625h-32v-42.640625c0-3.761719-2.621094-7.015625-6.296875-7.816406-11.980469-2.625-23.394531-7.371094-33.703125-14.015625-3.167969-2.03125-7.324219-1.582032-9.984375 1.082031l-30.183594 30.191406-22.625-22.632812 30.183594-30.183594c2.664063-2.660156 3.113281-6.816406 1.082031-9.984375-6.644531-10.316406-11.390625-21.734375-14.015625-33.71875-.808593-3.671875-4.058593-6.28125-7.816406-6.28125h-42.640625zm0 0"/><path d="m168 232.5c35.347656 0 64-28.652344 64-64s-28.652344-64-64-64-64 28.652344-64 64c.039062 35.328125 28.671875 63.960938 64 64zm0-112c26.507812 0 48 21.492188 48 48s-21.492188 48-48 48-48-21.492188-48-48c.027344-26.5 21.5-47.972656 48-48zm0 0"/><path d="m168 256.5c48.601562 0 88-39.398438 88-88s-39.398438-88-88-88-88 39.398438-88 88c.058594 48.578125 39.421875 87.941406 88 88zm0-160c39.765625 0 72 32.234375 72 72s-32.234375 72-72 72-72-32.234375-72-72c.042969-39.746094 32.253906-71.957031 72-72zm0 0"/><path d="m456 368.5v-64c0-4.417969-3.582031-8-8-8h-16v-64c0-4.417969-3.582031-8-8-8h-72c-4.417969 0-8 3.582031-8 8v64h-40c-4.417969 0-8 3.582031-8 8v64h-256c-22.082031.027344-39.9726562 17.917969-40 40v16c.0273438 22.082031 17.917969 39.972656 40 40h416c22.082031-.027344 39.972656-17.917969 40-40v-16c-.027344-22.082031-17.917969-39.972656-40-40zm-16 0h-56v-56h56zm-80-128h56v56h-56zm-48 72h56v56h-56zm168 112c0 13.253906-10.746094 24-24 24h-416c-13.253906 0-24-10.746094-24-24v-16c0-13.253906 10.746094-24 24-24h416c13.253906 0 24 10.746094 24 24zm0 0"/><path d="m248 392.5c-13.253906 0-24 10.746094-24 24s10.746094 24 24 24 24-10.746094 24-24-10.746094-24-24-24zm0 32c-4.417969 0-8-3.582031-8-8s3.582031-8 8-8 8 3.582031 8 8-3.582031 8-8 8zm0 0"/><path d="m168 392.5c-13.253906 0-24 10.746094-24 24s10.746094 24 24 24 24-10.746094 24-24-10.746094-24-24-24zm0 32c-4.417969 0-8-3.582031-8-8s3.582031-8 8-8 8 3.582031 8 8-3.582031 8-8 8zm0 0"/><path d="m328 392.5c-13.253906 0-24 10.746094-24 24s10.746094 24 24 24 24-10.746094 24-24-10.746094-24-24-24zm0 32c-4.417969 0-8-3.582031-8-8s3.582031-8 8-8 8 3.582031 8 8-3.582031 8-8 8zm0 0"/><path d="m88 392.5c-13.253906 0-24 10.746094-24 24s10.746094 24 24 24 24-10.746094 24-24-10.746094-24-24-24zm0 32c-4.417969 0-8-3.582031-8-8s3.582031-8 8-8 8 3.582031 8 8-3.582031 8-8 8zm0 0"/><path d="m408 392.5c-13.253906 0-24 10.746094-24 24s10.746094 24 24 24 24-10.746094 24-24-10.746094-24-24-24zm0 32c-4.417969 0-8-3.582031-8-8s3.582031-8 8-8 8 3.582031 8 8-3.582031 8-8 8zm0 0"/></g></svg>