<?xml version="1.0" encoding="iso-8859-1"?>
<!-- Generator: Adobe Illustrator 19.0.0, SVG Export Plug-In . SVG Version: 6.00 Build 0)  -->
<svg version="1.1" id="Capa_1" xmlns="http://www.w3.org/2000/svg" xmlns:xlink="http://www.w3.org/1999/xlink" x="0px" y="0px"
	 viewBox="0 0 511.999 511.999" style="enable-background:new 0 0 511.999 511.999;" xml:space="preserve">
<path style="fill:#FF7D46;" d="M114.946,320.701c-8.097-17.851-13.923-36.691-17.316-55.998l-1.101-6.264l42.259,42.259
	l-22.644,22.646L114.946,320.701z"/>
<path style="fill:#FBDF97;" d="M96.997,96.129c-11.829,0-21.454-9.625-21.454-21.454s9.625-21.454,21.454-21.454
	s21.454,9.625,21.454,21.454S108.826,96.129,96.997,96.129z"/>
<path style="fill:#FBC640;" d="M74.06,361.778c-22.824-42.1-34.888-89.723-34.888-137.721V17.753h338.426l-58.929,58.93H155.563
	c-1.041,31.216-26.246,56.419-57.46,57.461v89.914c0,13.368,1.172,26.81,3.484,39.95c3.334,18.975,9.059,37.492,17.017,55.035
	l0.574,1.266l-43.835,43.836L74.06,361.778z M96.997,57.237c-9.615,0-17.438,7.822-17.438,17.438s7.822,17.438,17.438,17.438
	s17.438-7.823,17.438-17.438S106.613,57.237,96.997,57.237z"/>
<g>
	<path style="fill:#FBDF97;" d="M97.631,264.703c-2.352-13.369-3.544-27.044-3.544-40.645v-93.895h2.008
		c30.595,0,55.486-24.891,55.486-55.487v-2.008h171.105L151.168,244.194l-25.133-25.133L98.64,270.439L97.631,264.703z"/>
	<path style="fill:#FBDF97;" d="M255.363,446.656c-37.411-12.245-71.4-33.958-98.294-62.791l-1.322-1.419l32.397-32.396
		l36.876,36.875l44.768-24.114l-25.141-25.142l173.233-173.233v59.62c0,49.793-15.479,97.408-44.764,137.698
		c-29.171,40.133-69.457,69.492-116.502,84.9l-0.624,0.205L255.363,446.656z"/>
</g>
<path style="fill:#FBC640;" d="M255.72,503.969l-0.249-0.064c-52.545-13.685-100.007-41.753-137.255-81.168l-1.341-1.419
	l41.712-41.713l1.419,1.521c26.282,28.177,59.461,49.436,95.981,61.509c94.459-31.233,157.875-118.987,157.875-218.577v-55.605
	l58.94-58.94v114.545c0,131.611-88.95,246.689-216.309,279.847l-0.249,0.064L255.72,503.969L255.72,503.969z"/>
<path style="fill:#D4D4D4;" d="M243.195,245.644l-96.757-2.398L371.921,17.753h0.009l2.554-2.562
	c4.628-4.618,10.766-7.159,17.285-7.159l0.403,0.003l63.548,1.044c13.261,0.221,23.821,10.78,24.041,24.04l1.044,63.538
	c0.107,6.586-2.499,13.032-7.154,17.687L245.594,342.4L243.195,245.644z"/>
<polygon style="fill:#EFEFEF;" points="146.197,239.224 247.114,241.725 249.615,342.641 "/>
<polygon style="fill:#5A6B96;" points="97.137,264.722 125.042,212.388 276.441,363.789 224.291,391.878 "/>
<g>
	
		<rect x="113.02" y="307.347" transform="matrix(0.7071 -0.7071 0.7071 0.7071 -203.0871 202.2305)" style="fill:#917464;" width="59.101" height="77.833"/>
	
		<rect x="72.617" y="346.91" transform="matrix(0.7071 -0.7071 0.7071 0.7071 -242.6427 185.8505)" style="fill:#917464;" width="60.806" height="77.823"/>
	<path style="fill:#917464;" d="M70.082,457.668c-10.406,0-20.178-4.045-27.512-11.391c-15.174-15.174-15.174-39.866,0.001-55.042
		l14.27-14.27l55.033,55.031l-14.269,14.282C90.258,453.623,80.485,457.668,70.082,457.668z"/>
</g>
<path d="M36.887,451.952c8.853,8.865,20.642,13.747,33.195,13.747c12.547,0,24.337-4.88,33.203-13.745l16.318-16.32
	c37.116,36.64,83.18,62.846,133.843,76.04c0.826,0.216,1.687,0.324,2.54,0.324s1.704-0.108,2.53-0.323
	c130.897-34.08,222.317-152.353,222.317-287.619v-105.66c5.233-6.016,8.132-13.864,8.001-21.871l-1.044-63.54
	c-0.293-17.616-14.322-31.644-31.94-31.938l-63.547-1.044c-8.771-0.147-17.296,3.318-23.509,9.516l-0.2,0.2H41.18
	c-5.544,0-10.039,4.496-10.039,10.039v204.296c0,46.815,11.176,93.283,32.365,134.884l-26.615,26.615
	C18.586,403.863,18.586,433.651,36.887,451.952z M82.988,367.855c0.016-0.016,0.032-0.031,0.047-0.047l13.961-13.961l37.999,37.998
	l-22.205,22.208c-0.003,0.003-0.007,0.006-0.011,0.009c-0.013,0.012-0.023,0.025-0.036,0.037l-3.705,3.706l-38-37.999
	L82.988,367.855z M106.134,224.057v-82.593c29.216-4.374,52.375-27.534,56.749-56.75h130.721L151.168,227.157l-18.531-18.531
	c-2.25-2.249-5.432-3.302-8.577-2.83c-3.146,0.468-5.883,2.399-7.381,5.206l-10.438,19.575
	C106.177,228.403,106.134,226.229,106.134,224.057z M143.048,293.597l-31.082-31.081l16.056-30.11l16.039,16.039
	c0.003,0.003,0.006,0.007,0.009,0.01c0.003,0.003,0.007,0.006,0.01,0.009l112.396,112.396l-30.004,16.162l-31.23-31.23
	L143.048,293.597z M188.143,367.087l29.413,29.413c1.932,1.931,4.501,2.94,7.102,2.94c1.622,0,3.258-0.394,4.758-1.201
	l48.459-26.102c2.794-1.505,4.711-4.242,5.172-7.382c0.46-3.139-0.59-6.312-2.834-8.555l-18.53-18.53l144.149-144.15v30.537
	c0,95.227-60.074,179.242-149.844,210.101c-31.199-10.734-59.765-28.456-83.325-51.588L188.143,367.087z M235.356,253.484
	l1.47,59.331l-60.801-60.801L235.356,253.484z M121.751,300.696l-1.447,1.447c-0.565-1.504-1.107-3.016-1.639-4.532L121.751,300.696
	z M135.949,314.894l37.996,37.996l-24.753,24.755l-37.998-37.997L135.949,314.894z M255.982,491.576
	c-46.205-12.497-88.209-36.634-122.18-70.139l24.65-24.652c26.569,26.125,59.007,45.916,94.412,57.505
	c1.015,0.332,2.07,0.498,3.123,0.498c1.055,0,2.11-0.167,3.124-0.499c48.662-15.938,90.329-46.303,120.499-87.811
	c30.289-41.671,46.298-90.918,46.298-142.419v-50.615l34.846-34.846v85.461C460.755,349.316,376.689,458.946,255.982,491.576z
	 M391.973,20.082l63.546,1.044c6.726,0.11,12.083,5.467,12.195,12.193l1.044,63.538c0.055,3.341-1.267,6.611-3.623,8.969
	l-1.426,1.426c-0.009,0.008-0.017,0.017-0.025,0.025l-54.904,54.903c-0.005,0.005-0.01,0.01-0.015,0.015L256.941,314.016
	l-1.642-66.276L411.384,91.653c3.92-3.92,3.92-10.277,0-14.198c-3.921-3.919-10.276-3.919-14.198,0L241.1,233.542l-66.278-1.642
	L379.579,27.131c0.099-0.092,0.197-0.187,0.293-0.283l3.123-3.132C385.366,21.351,388.662,20.029,391.973,20.082z M51.219,224.057
	V29.8h297.297l-34.835,34.836H153.588c-5.544,0-10.039,4.496-10.039,10.039c0,26.167-21.288,47.456-47.455,47.456
	c-5.544,0-10.039,4.496-10.039,10.039v91.887c0,14.067,1.234,28.21,3.665,42.035c3.105,17.675,8.186,34.97,15.119,51.515
	l-26.351,26.351C60.617,306.693,51.219,265.523,51.219,224.057z M51.089,399.754l5.751-5.751l38.001,38l-5.755,5.756
	c-5.071,5.07-11.819,7.862-19.004,7.862s-13.929-2.79-18.993-7.862C40.611,427.281,40.611,410.232,51.089,399.754z"/>
<path d="M126.482,74.675c0-16.257-13.228-29.485-29.485-29.485S67.512,58.417,67.512,74.675S80.74,104.16,96.997,104.16
	S126.482,90.933,126.482,74.675z M87.591,74.675c0-5.187,4.219-9.407,9.407-9.407c5.187,0,9.407,4.219,9.407,9.407
	c0,5.187-4.219,9.407-9.407,9.407C91.81,84.081,87.591,79.862,87.591,74.675z"/>
<path d="M425.648,72.788c12.919,0,12.94-20.078,0-20.078C412.729,52.71,412.708,72.788,425.648,72.788z"/>
<g>
</g>
<g>
</g>
<g>
</g>
<g>
</g>
<g>
</g>
<g>
</g>
<g>
</g>
<g>
</g>
<g>
</g>
<g>
</g>
<g>
</g>
<g>
</g>
<g>
</g>
<g>
</g>
<g>
</g>
</svg>
