<?xml version="1.0" encoding="iso-8859-1"?>
<!-- Generator: Adobe Illustrator 19.0.0, SVG Export Plug-In . SVG Version: 6.00 Build 0)  -->
<svg version="1.1" id="Capa_1" xmlns="http://www.w3.org/2000/svg" xmlns:xlink="http://www.w3.org/1999/xlink" x="0px" y="0px"
	 viewBox="0 0 512 512" style="enable-background:new 0 0 512 512;" xml:space="preserve">
<circle style="fill:#005C83;" cx="256" cy="256" r="256"/>
<path style="fill:#00263F;" d="M512,256c0-18.935-2.074-37.384-5.975-55.148l-59.823-59.823l-7.572,10.139L425,137.538
	l-18.082,34.643L315.28,80.543L65.798,368.933l137.659,137.659C220.417,510.13,237.99,512,256,512C397.385,512,512,397.385,512,256z
	"/>
<g>
	<path style="fill:#35CCFF;" d="M306.364,141.029c-27.815,0-50.364,22.549-50.364,50.364c0-27.815-22.549-50.364-50.364-50.364
		H65.798v227.904h139.838c14.58,0,27.706,6.203,36.903,16.105H256h13.461c9.197-9.902,22.323-16.105,36.903-16.105h139.838V141.029
		H306.364z"/>
	<path style="fill:#35CCFF;" d="M306.364,368.933h139.838V141.029H306.364c-27.815,0-50.364,22.549-50.364,50.364v22.79v170.855
		h13.461C278.658,375.136,291.784,368.933,306.364,368.933z"/>
</g>
<path style="fill:#FFFFFF;" d="M300.75,137.538c-24.715,0-44.75,20.035-44.75,44.75c0-24.715-20.035-44.75-44.75-44.75H87v202.5
	h124.25c14.685,0,27.718,7.074,35.877,18H256h8.873c8.159-10.926,21.192-18,35.877-18H425v-202.5H300.75z"/>
<path style="fill:#F2F2F2;" d="M300.75,340.038H425v-202.5H300.75c-24.715,0-44.75,20.035-44.75,44.75v20.25v155.5h8.873
	C273.032,347.112,286.065,340.038,300.75,340.038z"/>
<path style="fill:#FFCF35;" d="M336.5,135c0-45.106-37.098-81.547-82.446-80.477c-43.766,1.033-78.995,37.536-78.55,81.313
	c0.255,25.02,11.928,47.299,30.055,61.889c10.212,8.219,16.191,20.589,16.191,33.697v26.886h68.5v-26.886
	c0-13.075,5.921-25.451,16.116-33.637C324.737,183.034,336.5,160.394,336.5,135z"/>
<path style="fill:#FFB344;" d="M255.952,54.527v203.781h34.298v-26.886c0-13.075,5.921-25.451,16.116-33.637
	C324.737,183.034,336.5,160.394,336.5,135C336.5,90.527,300.43,54.505,255.952,54.527z"/>
<polygon style="fill:#FF6838;" points="256,295.232 224.61,148.353 234.39,146.263 256,247.384 277.61,146.263 287.39,148.353 "/>
<polygon style="fill:#AE4E32;" points="287.39,148.353 277.61,146.263 256,247.384 255.952,247.161 255.952,295.01 256,295.232 "/>
<path style="fill:#C0C0C0;" d="M256.017,300.5L256.017,300.5c-18.925,0-34.267-15.342-34.267-34.267v-26.987h68.534v26.987
	C290.284,285.158,274.942,300.5,256.017,300.5z"/>
<path style="fill:#758F9B;" d="M255.952,239.246v61.252c0.022,0,0.043,0.002,0.064,0.002l0,0c18.925,0,34.267-15.342,34.267-34.267
	v-26.987H255.952z"/>
<rect x="221.75" y="251.15" style="fill:#E0E0E0;" width="68.53" height="14.309"/>
<rect x="255.95" y="251.15" style="fill:#C0C0C0;" width="34.33" height="14.309"/>
<rect x="221.75" y="140.15" style="fill:#FF6838;" width="68.53" height="14.309"/>
<rect x="255.95" y="140.15" style="fill:#AE4E32;" width="34.33" height="14.309"/>
<g>
</g>
<g>
</g>
<g>
</g>
<g>
</g>
<g>
</g>
<g>
</g>
<g>
</g>
<g>
</g>
<g>
</g>
<g>
</g>
<g>
</g>
<g>
</g>
<g>
</g>
<g>
</g>
<g>
</g>
</svg>
