<svg height="480pt" viewBox="0 -80 480 480" width="480pt" xmlns="http://www.w3.org/2000/svg"><path d="m88 152h160c44.183594 0 80 35.816406 80 80s-35.816406 80-80 80h-160c-44.183594 0-80-35.816406-80-80s35.816406-80 80-80zm0 0" fill="#754c24"/><path d="m168 8h160c44.183594 0 80 35.816406 80 80s-35.816406 80-80 80h-160c-44.183594 0-80-35.816406-80-80s35.816406-80 80-80zm0 0" fill="#a67c52"/><path d="m248 152h144c44.183594 0 80 35.816406 80 80s-35.816406 80-80 80h-144c-44.183594 0-80-35.816406-80-80s35.816406-80 80-80zm0 0" fill="#8c6239"/><path d="m168 232c0 44.183594-35.816406 80-80 80s-80-35.816406-80-80 35.816406-80 80-80 80 35.816406 80 80zm0 0" fill="#6d411d"/><path d="m248 88c0 44.183594-35.816406 80-80 80s-80-35.816406-80-80 35.816406-80 80-80 80 35.816406 80 80zm0 0" fill="#bc895b"/><path d="m328 232c0 44.183594-35.816406 80-80 80s-80-35.816406-80-80 35.816406-80 80-80 80 35.816406 80 80zm0 0" fill="#875831"/><path d="m208 122.503906c2.679688.003906 5.1875-1.335937 6.671875-3.566406.457031-.691406.800781-1.441406 1.207031-2.144531.222656-.253907.425782-.519531.609375-.800781.449219-.800782.800781-1.601563 1.191407-2.398438.503906-.984375 1.015624-1.953125 1.464843-2.960938.617188-1.394531 1.128907-2.808593 1.597657-4.242187.363281-1.023437.753906-2.03125 1.050781-3.078125.445312-1.601562.800781-3.199219 1.0625-4.800781.183593-.9375.433593-1.855469.558593-2.800781.808594-5.410157.753907-10.917969-.15625-16.3125-.136718-.894532-.355468-1.78125-.53125-2.679688-.402343-1.980469-.914062-3.9375-1.535156-5.863281-.167968-.511719-.230468-1.0625-.40625-1.597657-.074218-.1875-.21875-.304687-.289062-.480468-1.070313-3.066406-2.410156-6.027344-4-8.855469-1.382813-2.570313-4.050782-4.183594-6.964844-4.210937-2.917969-.027344-5.617188 1.53125-7.050781 4.070312-1.429688 2.542969-1.367188 5.660156.167969 8.140625 2.097656 3.769531 3.597656 7.847656 4.449218 12.078125.132813.648438.285156 1.289062.390625 1.945312.320313 2 .492188 4.027344.511719 6.054688-.007812 1.855469-.144531 3.707031-.40625 5.542969-.089844.65625-.265625 1.296875-.386719 1.945312-.222656 1.167969-.445312 2.328125-.800781 3.464844-.207031.734375-.476562 1.4375-.734375 2.160156-.351563 1.023438-.71875 2.046875-1.167969 3.039063-.320312.734375-.695312 1.449218-1.070312 2.167968-.640625 1.289063-1.351563 2.542969-2.121094 3.757813-1.632812 2.460937-1.777344 5.617187-.378906 8.21875 1.398437 2.597656 4.113281 4.214844 7.066406 4.207031zm0 0"/><path d="m168 144c9.832031-.003906 19.488281-2.597656 28-7.519531 3.617188-2.300781 4.78125-7.042969 2.632812-10.753907-2.144531-3.714843-6.835937-5.074218-10.632812-3.085937-16.8125 9.707031-38.164062 5.941406-50.644531-8.929687-12.476563-14.871094-12.476563-36.550782 0-51.421876 12.480469-14.871093 33.832031-18.636718 50.644531-8.929687 3.796875 1.988281 8.488281.628906 10.632812-3.085937 2.148438-3.710938.984376-8.453126-2.632812-10.753907-20.386719-11.789062-45.972656-9.558593-64.015625 5.574219s-24.691406 39.9375-16.632813 62.066406c8.054688 22.128906 29.097657 36.851563 52.648438 36.839844zm0 0"/><path d="m168 96c-4.417969 0-8-3.582031-8-8s-3.582031-8-8-8-8 3.582031-8 8c0 13.253906 10.746094 24 24 24s24-10.746094 24-24-10.746094-24-24-24c-4.417969 0-8 3.582031-8 8s3.582031 8 8 8 8 3.582031 8 8-3.582031 8-8 8zm0 0"/><path d="m128 266.503906c2.679688.003906 5.1875-1.335937 6.671875-3.566406.457031-.691406.800781-1.441406 1.207031-2.144531.222656-.253907.425782-.519531.609375-.800781.449219-.800782.800781-1.601563 1.191407-2.398438.503906-.984375 1.015624-1.953125 1.464843-2.960938.617188-1.394531 1.128907-2.808593 1.597657-4.242187.363281-1.023437.753906-2.03125 1.050781-3.078125.445312-1.601562.800781-3.199219 1.0625-4.800781.183593-.9375.433593-1.855469.558593-2.800781.808594-5.410157.753907-10.917969-.15625-16.3125-.136718-.894532-.355468-1.78125-.53125-2.679688-.402343-1.980469-.914062-3.9375-1.535156-5.863281-.167968-.511719-.230468-1.0625-.40625-1.597657-.074218-.1875-.21875-.304687-.289062-.480468-1.070313-3.066406-2.410156-6.027344-4-8.855469-1.382813-2.570313-4.050782-4.183594-6.964844-4.210937-2.917969-.027344-5.617188 1.53125-7.050781 4.070312-1.429688 2.542969-1.367188 5.660156.167969 8.140625 2.085937 3.730469 3.589843 7.761719 4.457031 11.949219.132812.648437.285156 1.289062.390625 1.945312.324218 2.046875.492187 4.113282.503906 6.183594-.007812 1.855469-.144531 3.707031-.40625 5.542969-.089844.65625-.265625 1.296875-.386719 1.945312-.222656 1.167969-.445312 2.328125-.800781 3.464844-.207031.734375-.476562 1.4375-.734375 2.160156-.351563 1.023438-.71875 2.046875-1.167969 3.039063-.320312.734375-.695312 1.449218-1.070312 2.167968-.640625 1.289063-1.351563 2.542969-2.121094 3.757813-1.632812 2.460937-1.777344 5.617187-.378906 8.21875 1.398437 2.597656 4.113281 4.214844 7.066406 4.207031zm0 0"/><path d="m116 280.480469c2.605469-1.363281 4.25-4.042969 4.292969-6.980469.039062-2.9375-1.535157-5.664062-4.101563-7.09375-2.566406-1.433594-5.710937-1.34375-8.191406.234375-16.8125 9.707031-38.164062 5.941406-50.644531-8.929687-12.476563-14.871094-12.476563-36.550782 0-51.421876 12.480469-14.871093 33.832031-18.636718 50.644531-8.929687 2.480469 1.578125 5.625 1.667969 8.191406.234375 2.566406-1.429688 4.140625-4.15625 4.101563-7.09375-.042969-2.9375-1.6875-5.617188-4.292969-6.980469-23.535156-13.605469-53.441406-8.347656-70.921875 12.476563-17.476563 20.820312-17.476563 51.1875 0 72.007812 17.480469 20.824219 47.386719 26.082032 70.921875 12.476563zm0 0"/><path d="m88 240c-4.417969 0-8-3.582031-8-8s-3.582031-8-8-8-8 3.582031-8 8c0 13.253906 10.746094 24 24 24s24-10.746094 24-24-10.746094-24-24-24c-4.417969 0-8 3.582031-8 8s3.582031 8 8 8 8 3.582031 8 8-3.582031 8-8 8zm0 0"/><path d="m297.671875 257.601562c.503906-.984374 1.015625-1.953124 1.464844-2.960937.617187-1.394531 1.128906-2.808594 1.597656-4.242187.363281-1.023438.753906-2.03125 1.050781-3.078126.445313-1.601562.757813-3.199218 1.0625-4.800781.183594-.933593.433594-1.855469.558594-2.800781.808594-5.410156.753906-10.914062-.160156-16.3125-.132813-.894531-.351563-1.78125-.527344-2.679688-.402344-1.980468-.914062-3.9375-1.535156-5.863281-.167969-.511719-.230469-1.0625-.40625-1.597656-.074219-.1875-.21875-.304687-.289063-.472656-1.070312-3.066407-2.410156-6.035157-4-8.863281-1.382812-2.570313-4.050781-4.183594-6.964843-4.210938-2.917969-.027344-5.617188 1.53125-7.050782 4.070312-1.429687 2.542969-1.367187 5.660157.167969 8.140626 2.085937 3.730468 3.589844 7.761718 4.457031 11.949218.132813.648438.285156 1.289063.390625 1.945313.328125 2.042969.5 4.105469.511719 6.175781-.007812 1.855469-.144531 3.707031-.40625 5.542969-.089844.65625-.265625 1.296875-.386719 1.945312-.222656 1.167969-.445312 2.328125-.800781 3.464844-.207031.734375-.476562 1.4375-.734375 2.160156-.351563 1.023438-.71875 2.046875-1.167969 3.039063-.320312.734375-.695312 1.449218-1.070312 2.167968-.640625 1.289063-1.351563 2.542969-2.121094 3.757813-2.445312 3.683594-1.445312 8.648437 2.234375 11.09375s8.648437 1.445313 11.09375-2.234375c.457031-.691406.800781-1.441406 1.207031-2.144531.222656-.253907.425782-.519531.609375-.800781.472657-.753907.800781-1.59375 1.214844-2.390626zm0 0"/><path d="m278.921875 194.457031c2.214844-3.828125.90625-8.726562-2.921875-10.9375-23.535156-13.605469-53.441406-8.347656-70.921875 12.476563-17.476563 20.820312-17.476563 51.1875 0 72.007812 17.480469 20.824219 47.386719 26.082032 70.921875 12.476563 2.605469-1.363281 4.25-4.042969 4.292969-6.980469.039062-2.9375-1.535157-5.664062-4.101563-7.09375-2.566406-1.433594-5.710937-1.34375-8.191406.234375-16.8125 9.707031-38.164062 5.941406-50.644531-8.929687-12.476563-14.871094-12.476563-36.550782 0-51.421876 12.480469-14.871093 33.832031-18.636718 50.644531-8.929687 3.816406 2.207031 8.703125.910156 10.921875-2.902344zm0 0"/><path d="m248 240c-4.417969 0-8-3.582031-8-8s-3.582031-8-8-8-8 3.582031-8 8c0 13.253906 10.746094 24 24 24s24-10.746094 24-24-10.746094-24-24-24c-4.417969 0-8 3.582031-8 8s3.582031 8 8 8 8 3.582031 8 8-3.582031 8-8 8zm0 0"/><path d="m479.199219 220.59375c-5.585938-42.328125-40.746094-74.539062-83.398438-76.402344 26.003907-31.34375 27.035157-76.453125 2.488281-108.953125-.222656-.34375-.472656-.671875-.746093-.980469-16.609375-21.589843-42.300781-34.2460932-69.542969-34.257812h-160c-34.074219-.0195312-65.097656 19.644531-79.617188 50.472656-14.523437 30.824219-9.929687 67.265625 11.785157 93.527344h-12.167969c-48.601562 0-88 39.398438-88 88s39.398438 88 88 88h304c48.578125-.058594 87.941406-39.421875 88-88 0-2.160156-.167969-4.273438-.320312-6.398438.164062-.523437.269531-1.058593.320312-1.601562-.007812-1.179688-.28125-2.347656-.800781-3.40625zm-151.199219-204.59375c16.441406-.007812 32.382812 5.640625 45.152344 16h-69.152344c-4.417969 0-8 3.582031-8 8s3.582031 8 8 8h83.824219c7.949219 11.824219 12.1875 25.753906 12.175781 40 0 8.175781-1.382812 16.289062-4.097656 24h-115.902344c-4.417969 0-8 3.582031-8 8s3.582031 8 8 8h107.878906c-4.089844 6.050781-9.074218 11.445312-14.78125 16h-125.097656c-4.410156.035156-8.8125.402344-13.167969 1.097656 11.859375-13.808594 19.113281-30.972656 20.761719-49.097656h104.40625c4.417969 0 8-3.582031 8-8s-3.582031-8-8-8h-104.40625c-2.371094-25.757812-15.960938-49.167969-37.152344-64zm-147.832031 160c-4.890625 5.960938-8.980469 12.53125-12.167969 19.550781-3.40625-7.460937-7.839844-14.410156-13.167969-20.648437 4.355469.695312 8.757813 1.0625 13.167969 1.097656zm-12.167969-160c39.765625 0 72 32.234375 72 72s-32.234375 72-72 72-72-32.234375-72-72c.042969-39.746094 32.253906-71.957031 72-72zm-152 216c0-39.765625 32.234375-72 72-72s72 32.234375 72 72-32.234375 72-72 72c-39.746094-.042969-71.957031-32.253906-72-72zm122.441406 72c12.828125-9.023438 23.03125-21.292969 29.558594-35.550781 6.539062 14.265625 16.753906 26.535156 29.601562 35.550781zm37.558594-72c0-39.765625 32.234375-72 72-72s72 32.234375 72 72-32.234375 72-72 72c-39.746094-.042969-71.957031-32.253906-72-72zm269.511719 48h-61.511719c-4.417969 0-8 3.582031-8 8s3.582031 8 8 8h40.800781c-10.136719 5.25-21.386719 7.992188-32.800781 8h-93.558594c14.175782-9.964844 25.109375-23.875 31.445313-40h94.113281c4.417969 0 8-3.582031 8-8s-3.582031-8-8-8h-89.527344c3.628906-19.054688.75-38.78125-8.183594-56h81.710938c4.417969 0 8-3.582031 8-8s-3.582031-8-8-8h-92.167969c-5.058593-6.085938-10.90625-11.464844-17.390625-16h93.558594c33.570312.054688 62.65625 23.277344 70.144531 56h-94.144531c-4.417969 0-8 3.582031-8 8s3.582031 8 8 8h96c-.003906 17.738281-6.59375 34.84375-18.488281 48zm0 0"/></svg>