<svg id="Layer_3" enable-background="new 0 0 64 64" height="512" viewBox="0 0 64 64" width="512" xmlns="http://www.w3.org/2000/svg"><circle cx="32" cy="32" fill="#fff" r="20"/><path d="m32 4c-7.18 0-13 5.82-13 13v1h26v-1c0-7.18-5.82-13-13-13z" fill="#494138"/><path d="m30.5 4.093c-6.472.745-11.5 6.235-11.5 12.907v1h23v-1c0-6.672-5.028-12.162-11.5-12.907z" fill="#6e6253"/><path d="m29 18v-16h6v16" fill="#c3ad94"/><path d="m17 18h30v4h-30z" fill="#92826f"/><path d="m17 18h27v4h-27z" fill="#c3ad94"/><path d="m50 57 7-7-3.45-3.45c1.917-2.834 3.286-6.069 3.964-9.55h4.486v-10h-4.485c-.678-3.481-2.047-6.716-3.964-9.55l3.449-3.45-7-7-3.45 3.45c-1.724-1.166-3.596-2.13-5.582-2.858l.002-.002c2.483 2.368 4.03 5.708 4.03 9.41v1h2v.773h.002c3.111 3.526 4.998 8.156 4.998 13.227 0 5.058-1.878 9.677-4.974 13.199l-.066-.052c.371.248.72.533 1.04.853 1.281 1.281 2 3.017 2 4.828z" fill="#666"/><path d="m28 40h8v4h-8z" fill="#f6c165"/><g fill="#f4b23e"><path d="m43 27h1c1.657 0 3 1.343 3 3 0 1.657-1.343 3-3 3h-1"/><path d="m21 33h-1c-1.657 0-3-1.343-3-3 0-1.657 1.343-3 3-3h1"/><path d="m43 22v8c0 5.523-4.477 10-10 10h-2c-5.523 0-10-4.477-10-10v-8"/></g><path d="m30.5 39.975c5.289-.262 9.5-4.621 9.5-9.975v-8h-19v8c0 5.354 4.211 9.713 9.5 9.975z" fill="#f6c165"/><path d="m50 62h-36v-11.172c0-1.811.719-3.548 2-4.828 1.281-1.281 3.017-2 4.828-2h5.172 12 5.172c1.811 0 3.548.719 4.828 2 1.281 1.281 2 3.017 2 4.828z" fill="#5396bb"/><path d="m45 46c-1.281-1.281-3.017-2-4.828-2h-2.172-3-9-3-2.172c-1.811 0-3.548.719-4.828 2s-2 3.017-2 4.828v11.172h33v-11.172c0-1.811-.719-3.547-2-4.828z" fill="#6ec8fa"/><path d="m32 62 4-18 6 6-4 4 1 3z" fill="#3e718c"/><path d="m32 62-4-18-6 6 4 4-1 3z" fill="#3e718c"/><path d="m36 44-4 18-4-18z" fill="#fff"/><path d="m13.968 57-7-7 3.45-3.45c-1.917-2.834-3.286-6.069-3.964-9.55h-4.486v-10h4.485c.678-3.481 2.047-6.716 3.964-9.55l-3.449-3.45 7-7 3.45 3.45c1.724-1.167 3.596-2.13 5.582-2.858l-.002-.002c-2.483 2.368-4.03 5.708-4.03 9.41v1h-2v.773h-.002c-3.11 3.525-4.998 8.156-4.998 13.227 0 5.058 1.878 9.677 4.974 13.199l.066-.052c-.371.248-.72.533-1.04.853-1.281 1.281-2 3.017-2 4.828z" fill="#666"/><path d="m35 40h2v4h-2z"/><path d="m50 63h-36c-.552 0-1-.447-1-1v-11.172c0-2.092.814-4.058 2.293-5.535 1.479-1.479 3.445-2.293 5.536-2.293h22.343c2.091 0 4.057.814 5.536 2.293 1.478 1.478 2.292 3.443 2.292 5.535v11.172c0 .553-.448 1-1 1zm-35-2h34v-10.172c0-1.557-.606-3.021-1.707-4.121-1.101-1.101-2.565-1.707-4.122-1.707h-22.342c-1.557 0-3.021.606-4.122 1.707s-1.707 2.564-1.707 4.121z"/><path d="m26 25h2v4h-2z"/><path d="m36 25h2v4h-2z"/><path d="m33 37h-2c-1.654 0-3-1.346-3-3v-1h2v1c0 .552.449 1 1 1h2c.551 0 1-.448 1-1v-1h2v1c0 1.654-1.346 3-3 3z"/><path d="m31.419 62.813-7-5c-.357-.255-.506-.713-.368-1.13l.805-2.413-3.563-3.563c-.391-.391-.391-1.023 0-1.414l6-6 1.414 1.414-5.293 5.293 3.293 3.293c.268.268.361.664.242 1.023l-.767 2.299 6.399 4.571z"/><path d="m32.581 62.813-1.162-1.627 6.399-4.571-.767-2.299c-.12-.359-.026-.756.242-1.023l3.293-3.293-5.293-5.293 1.414-1.414 6 6c.391.391.391 1.023 0 1.414l-3.563 3.563.805 2.413c.139.417-.01.875-.368 1.13z"/><path d="m32 63c-.469 0-.875-.325-.976-.783l-4-18 1.952-.434 3.024 13.608 3.024-13.607 1.952.434-4 18c-.101.457-.507.782-.976.782z"/><path d="m27 40h2v4h-2z"/><path d="m33 41h-2c-6.065 0-11-4.935-11-11v-8h2v8c0 4.963 4.038 9 9 9h2c4.962 0 9-4.037 9-9v-8h2v8c0 6.065-4.935 11-11 11z"/><path d="m21 34h-1c-2.206 0-4-1.794-4-4s1.794-4 4-4h1v2h-1c-1.103 0-2 .897-2 2s.897 2 2 2h1z"/><path d="m44 34h-1v-2h1c1.103 0 2-.897 2-2s-.897-2-2-2h-1v-2h1c2.206 0 4 1.794 4 4s-1.794 4-4 4z"/><path d="m47 23h-30c-.552 0-1-.448-1-1v-4c0-.552.448-1 1-1h30c.552 0 1 .448 1 1v4c0 .552-.448 1-1 1zm-29-2h28v-2h-28z"/><path d="m46 18h-2v-1c0-5.593-3.795-10.396-9.23-11.679l.46-1.946c6.341 1.498 10.77 7.101 10.77 13.625z"/><path d="m20 18h-2v-1c0-6.524 4.429-12.127 10.77-13.625l.46 1.946c-5.435 1.283-9.23 6.086-9.23 11.679z"/><path d="m36 18h-2v-15h-4v15h-2v-16c0-.552.448-1 1-1h6c.552 0 1 .448 1 1z"/><path d="m13.293 57.707-7-7c-.391-.391-.391-1.023 0-1.414l2.875-2.876c-1.643-2.594-2.815-5.419-3.494-8.417h-3.674c-.552 0-1-.447-1-1v-10c0-.552.448-1 1-1h3.674c.679-2.999 1.851-5.824 3.494-8.418l-2.875-2.875c-.391-.391-.391-1.023 0-1.414l7-7c.391-.391 1.023-.391 1.414 0l2.875 2.875c1.607-1.016 3.322-1.861 5.108-2.516l.688 1.878c-1.893.694-3.699 1.619-5.369 2.748-.399.269-.93.217-1.268-.121l-2.741-2.743-5.586 5.586 2.743 2.743c.339.339.39.871.121 1.268-1.884 2.785-3.166 5.874-3.811 9.181-.092.469-.503.808-.982.808h-3.485v8h3.485c.479 0 .89.339.981.809.644 3.307 1.926 6.396 3.811 9.181.269.397.218.929-.121 1.268l-2.742 2.742 6.293 6.293z"/><path d="m50.707 57.707-1.414-1.414 6.293-6.293-2.743-2.743c-.339-.339-.39-.87-.121-1.268 1.885-2.785 3.167-5.874 3.811-9.181.092-.469.503-.808.982-.808h3.485v-8h-3.485c-.479 0-.89-.339-.981-.809-.644-3.306-1.926-6.395-3.811-9.181-.269-.397-.218-.929.121-1.268l2.742-2.742-5.586-5.586-2.743 2.743c-.338.338-.869.39-1.268.121-1.668-1.129-3.474-2.053-5.366-2.747l.688-1.878c1.785.655 3.499 1.5 5.105 2.515l2.875-2.875c.391-.391 1.023-.391 1.414 0l7 7c.391.391.391 1.023 0 1.414l-2.875 2.875c1.643 2.595 2.815 5.42 3.494 8.418h3.676c.552 0 1 .448 1 1v10c0 .553-.448 1-1 1h-3.674c-.679 2.998-1.852 5.823-3.494 8.417l2.875 2.876c.391.391.391 1.023 0 1.414z"/><path d="m16.223 45.859c-3.369-3.831-5.223-8.754-5.223-13.859 0-5.12 1.864-10.053 5.248-13.888l1.5 1.323c-3.062 3.47-4.748 7.932-4.748 12.565 0 4.62 1.678 9.073 4.725 12.539z"/><path d="m47.777 45.859-1.502-1.32c3.047-3.466 4.725-7.919 4.725-12.539 0-4.633-1.686-9.095-4.748-12.565l1.5-1.323c3.384 3.835 5.248 8.768 5.248 13.888 0 5.105-1.854 10.028-5.223 13.859z"/></svg>